<svg xmlns="http://www.w3.org/2000/svg" xmlns:xlink="http://www.w3.org/1999/xlink" viewBox="0 0 91.9 111.5"><style>.st5{fill:#ffc724}.st6{fill:#f58b1f}.st7{fill:#ee3e30}.st8{fill:#931a3d}.st10{fill:#2d2d2d}</style><g id="OBJECTS"><g id="XMLID_28_"><g id="XMLID_152_"><g id="XMLID_56_"><linearGradient id="XMLID_80_" gradientUnits="userSpaceOnUse" x1="82.713" y1="-15733.715" x2="4.341" y2="-15655.343" gradientTransform="matrix(1 0 0 -1 0 -15650.465)"><stop offset="0" stop-color="#f58b1f"/><stop offset=".495" stop-color="#ed6723"/><stop offset="1" stop-color="#ee3e30"/></linearGradient><path id="XMLID_37_" d="M78.5 14C69.5 5 57.7.5 46 .5 34.2.5 22.4 5 13.5 14c-2.1 2.1-3.9 4.4-5.6 6.7C14.3 11.4 25 5.3 37.2 5.3c19.6 0 35.5 15.9 35.5 35.5 0 6.3-1.6 12.2-4.5 17.3-.7 1.3-1.5 2.6-2.4 3.8-1.8 2.4-3.8 4.5-6.1 6.4L46 81.9 31.2 96.7 46 111.5 78.5 79c17.9-18 17.9-47.1 0-65z" fill="url(#XMLID_80_)"/><linearGradient id="XMLID_81_" gradientUnits="userSpaceOnUse" x1="-22.921" y1="-15656.159" x2="93.157" y2="-15737.929" gradientTransform="matrix(1 0 0 -1 0 -15650.465)"><stop offset="0" stop-color="#c41e51"/><stop offset=".167" stop-color="#b41d4a"/><stop offset=".427" stop-color="#a21b43"/><stop offset=".699" stop-color="#971a3e"/><stop offset="1" stop-color="#931a3d"/></linearGradient><path id="XMLID_34_" d="M72.7 40.8c0-19.6-15.9-35.5-35.5-35.5-12.2 0-22.9 6.1-29.3 15.4-.1.1-.2.3-.3.4-.3.4-.5.8-.8 1.2 0 0 0 .1-.1.1C-4.1 40.1-1.9 63.6 13.5 79l10.3 10.3 14.8-14.8-10.4-10.3c-9.8-9.8-9.8-25.7 0-35.5 4.7-4.7 11-7.3 17.7-7.3s13 2.6 17.7 7.3c7.9 7.9 9.4 19.9 4.5 29.3 2.9-5 4.6-10.9 4.6-17.2z" fill="url(#XMLID_81_)"/><linearGradient id="XMLID_83_" gradientUnits="userSpaceOnUse" x1="46.585" y1="-15728.864" x2="46.585" y2="-15692.479" gradientTransform="matrix(1 0 0 -1 0 -15650.465)"><stop offset="0" stop-color="#c41e51"/><stop offset=".167" stop-color="#b41d4a"/><stop offset=".427" stop-color="#a21b43"/><stop offset=".699" stop-color="#971a3e"/><stop offset="1" stop-color="#931a3d"/></linearGradient><path id="XMLID_13_" d="M62.3 47.1c0 8.6-7 15.7-15.7 15.7s-15.7-7-15.7-15.7c0-2.5.6-4.9 1.7-7 2.6-5.1 7.9-8.6 14-8.6s11.4 3.5 14 8.6c1.1 2.1 1.7 4.5 1.7 7z" fill="url(#XMLID_83_)"/></g></g><g id="XMLID_168_"><g id="XMLID_60_"><g id="XMLID_102_"><linearGradient id="XMLID_84_" gradientUnits="userSpaceOnUse" x1="460.763" y1="-15750.721" x2="537.536" y2="-15673.947" gradientTransform="matrix(1 0 0 -1 0 -15650.465)"><stop offset="0" stop-color="#f58b1f"/><stop offset=".495" stop-color="#ed6723"/><stop offset="1" stop-color="#ee3e30"/></linearGradient><path id="XMLID_11_" d="M531.1 56.5c-6.4-1.2-10.6-7.4-9.3-13.8l1.2-6.1c3.1-16.4-7.1-32.7-23.5-36-16.6-3.4-32.8 7.6-35.7 24.3-2.9 16.4 8.4 32 24.8 35.1l6.1 1.2c6.4 1.2 10.6 7.4 9.3 13.8-2.5 13 5.7 26.1 18.7 28.6 13 2.6 25.7-6 28.1-19.1 2.4-13.1-6.7-25.5-19.7-28z" fill="url(#XMLID_84_)"/><linearGradient id="XMLID_85_" gradientUnits="userSpaceOnUse" x1="473.986" y1="-15777.134" x2="473.986" y2="-15709.108" gradientTransform="matrix(1 0 0 -1 0 -15650.465)"><stop offset="0" stop-color="#c41e51"/><stop offset=".205" stop-color="#b71a4b"/><stop offset=".587" stop-color="#940f3a"/><stop offset="1" stop-color="#680225"/></linearGradient><circle id="XMLID_12_" cx="474" cy="87.2" r="16.8" fill="url(#XMLID_85_)"/></g></g></g><g id="XMLID_123_"><g id="XMLID_61_"><g id="XMLID_36_"><g id="XMLID_14_"><path id="XMLID_15_" class="st5" d="M4.3 253.1l37.3-21.5v43.1z"/><path id="XMLID_40_" class="st6" d="M78.9 253.1l-37.3-21.5v43.1l37.3-21.6"/><path id="XMLID_41_" class="st7" d="M78.9 296.2v-43.1l-37.3 21.6"/><path id="XMLID_27_" class="st8" d="M4.3 296.2l37.3 21.6v-43.1z"/><path id="XMLID_43_" fill="#c41e51" d="M41.6 274.7v43.1l37.3-21.6z"/></g><g id="XMLID_42_"><path id="XMLID_46_" class="st7" d="M4.3 296.2v43.1l37.3-21.5z"/><path id="XMLID_45_" class="st6" d="M4.3 339.3l37.3 21.6v-43.1z"/><path id="XMLID_44_" class="st5" d="M41.6 317.8v43.1l37.3-21.6z"/></g></g></g></g><g id="XMLID_124_"><g id="XMLID_62_"><g id="XMLID_107_"><path id="XMLID_48_" class="st7" d="M270.4 296.2v55.6c-30.7 0-55.6-24.9-55.6-55.6h55.6z"/><path id="XMLID_50_" class="st8" d="M270.4 296.2h-55.6v-55.6c30.7 0 55.6 24.9 55.6 55.6z"/><path id="XMLID_52_" class="st6" d="M326 296.2c0 30.7-24.9 55.6-55.6 55.6 0-30.7 24.9-55.6 55.6-55.6z"/><path id="XMLID_51_" class="st5" d="M326 296.2c-30.7 0-55.6-24.9-55.6-55.6 30.7 0 55.6 24.9 55.6 55.6z"/></g></g></g><g id="XMLID_135_"><g id="XMLID_63_"><g id="XMLID_75_"><g id="XMLID_49_"><path id="XMLID_89_" class="st5" d="M459 315.2h-21.3c0 10.3 9.5 18.7 21.3 18.7h85.1l-20.6-18.7H459z"/><g id="XMLID_76_"><path id="XMLID_82_" class="st7" d="M544.2 246.6H459v18.7h106.4c.1-10.3-9.5-18.7-21.2-18.7z"/><path id="XMLID_87_" class="st8" d="M544.2 265.3V334c11.8 0 21.3-8.4 21.3-18.7v-49.9h-21.3z"/></g></g><path id="XMLID_74_" class="st6" d="M437.7 315.2H459v-68.7c-11.8 0-21.3 8.4-21.3 18.7v50z"/><ellipse id="XMLID_65_" class="st10" cx="481.4" cy="289.3" rx="6.9" ry="6"/><ellipse id="XMLID_77_" class="st10" cx="504.5" cy="289.3" rx="6.9" ry="6"/><ellipse id="XMLID_91_" class="st10" cx="527.6" cy="289.3" rx="6.9" ry="6"/></g></g></g><g id="XMLID_148_"><g id="XMLID_64_"><g id="XMLID_94_"><linearGradient id="XMLID_86_" gradientUnits="userSpaceOnUse" x1="132.897" y1="-16241.86" x2="-23.16" y2="-16144.51" gradientTransform="matrix(1 0 0 -1 0 -15650.465)"><stop offset="0" stop-color="#f58b1f"/><stop offset=".495" stop-color="#ed6723"/><stop offset="1" stop-color="#ee3e30"/></linearGradient><path id="XMLID_125_" d="M43.9 478.2c-35.7 0-64.6 28.9-64.6 64.6v.2c.1-31.2 25.4-56.5 56.6-56.5 2.7 0 5.4.2 8.1.6 24.4 3.5 43.8 22.6 47.8 46.9.5 2.5.7 5.1.8 7.7v2c0 .7 0 1.4-.1 2.2v-.6c-1.3 21.2-18.9 38-40.4 38-2.8 0-5.5-.3-8.2-.8-18.4-3.8-32.3-20.2-32.3-39.8 0-17.8 14.5-32.3 32.3-32.3 17.8 0 32.3 14.5 32.3 32.3 0-19.6-13.9-36-32.3-39.8-2.6-.5-5.4-.8-8.2-.8-20.8 0-38 15.8-40.2 36.1-.1 1.6-.2 3.3-.2 5v2.3c1.1 27.5 21.8 50 48.5 53.8 2.6.4 5.3.6 8.1.6 29.3 0 53.4-22.3 56.3-50.9.1-1.5.2-2.9.3-4.4v-1.9c-.1-35.6-29-64.5-64.6-64.5z" fill="url(#XMLID_86_)"/><g id="XMLID_122_"><defs><path id="XMLID_88_" d="M51.8 599.9c-2.7 0-5.4-.2-8.1-.6C17 595.5-3.6 573-4.7 545.5c0-.6-.1-1.1-.1-1.7v-2c.1-2.4.3-4.7.7-7-.2 1.2-.3 2.4-.4 3.5 2.2-20.3 19.4-36.1 40.2-36.1 2.8 0 5.5.3 8.2.8 18.4 3.8 32.3 20.2 32.3 39.8 0 17.8-14.5 32.3-32.3 32.3-17.8 0-32.3-14.5-32.3-32.3 0 19.6 13.9 36 32.3 39.8 2.6.5 5.4.8 8.2.8 21.5 0 39-16.8 40.4-38v-2.2c0-1.8-.1-3.5-.2-5.3-.1-1.3-.3-2.6-.5-3.9-3.9-24.3-23.3-43.4-47.8-46.9-2.6-.4-5.3-.6-8.1-.6-31.2 0-56.5 25.3-56.6 56.5 0 2.1.1 4.3.3 6.4 3.3 32.6 30.8 58 64.2 58 33.5 0 61.1-25.6 64.3-58.3-2.9 28.5-27 50.8-56.3 50.8z"/></defs><linearGradient id="XMLID_90_" gradientUnits="userSpaceOnUse" x1="99.191" y1="-16287.816" x2="20.132" y2="-16171.466" gradientTransform="matrix(1 0 0 -1 0 -15650.465)"><stop offset="0" stop-color="#c41e51"/><stop offset=".167" stop-color="#b41d4a"/><stop offset=".427" stop-color="#a21b43"/><stop offset=".699" stop-color="#971a3e"/><stop offset="1" stop-color="#931a3d"/></linearGradient><use xlink:href="#XMLID_88_" overflow="visible" fill="url(#XMLID_90_)"/><clipPath id="XMLID_92_"><use xlink:href="#XMLID_88_" overflow="visible"/></clipPath></g></g></g></g><g id="XMLID_150_"><g id="XMLID_66_"><g id="XMLID_95_"><path id="XMLID_101_" fill="#d7df32" d="M278.1 500.3v-22.1 22.1z"/><path id="XMLID_104_" class="st8" d="M278.1 584.7v-.1.1L252.7 570l-11.2-6.4v-.1.1l-19 11 55.6 32.1 55.6-32.1-19.1-11z"/><path id="XMLID_117_" class="st6" d="M314.6 521.4v42.2l19.1 11v-64.3l-55.6-32.1v22.1z"/><path id="XMLID_137_" class="st7" d="M222.5 574.6l19-11v-42.2l36.6-21.1v-22.1l-55.7 32.1v64.3z"/><path id="XMLID_138_" class="st5" d="M261.5 560.4l-7.3-4.2v-27.5l23.9 13.8V570v-27.5l23.8-13.8-23.8-13.8-23.9 13.8v27.5z"/><path id="XMLID_139_" class="st7" d="M278.1 542.5V570l23.8-13.8v-27.5z"/><path id="XMLID_140_" class="st6" d="M254.2 528.7v27.5l7.3 4.2 16.6 9.6v-27.5z"/></g></g></g><g id="XMLID_151_"><g id="XMLID_72_"><g id="XMLID_96_"><g id="XMLID_120_"><path id="XMLID_121_" class="st8" d="M470.8 513.2h.1l-18.7-10.8v42.9l18.6-10.7z"/><path id="XMLID_202_" class="st7" d="M452.2 502.4l18.7 10.8 18.5-10.7V481z"/><path id="XMLID_203_" class="st8" d="M563.7 502.4L526.5 481v21.5l18.5 10.7z"/><path id="XMLID_208_" class="st7" d="M507.9 577.5l-18.5-10.7-18.6 10.7 37.2 21.4v-21.5z"/><path id="XMLID_209_" class="st8" d="M545 577.5l-18.5-10.7-18.5 10.6v21.5z"/><path id="XMLID_210_" class="st7" d="M545 513.2v21.4l18.6 10.7.1-42.9z"/></g><path id="XMLID_213_" class="st6" d="M508 571.8l15.7-9.1v-18.2l-15.7-9z"/><path id="XMLID_215_" class="st5" d="M494.6 543.1l-2.5 1.4v18.2l15.8 9.1v-36.4z"/><path id="XMLID_223_" class="st5" d="M507.9 517.2l-15.8-9.1-15.7 9.1 31.5 18.2z"/><path id="XMLID_224_" class="st6" d="M476.4 535.4l15.7 9.1 15.8-9.1-31.5-18.2z"/><path id="XMLID_225_" class="st5" d="M508 535.4h-.1l.1.1 15.7 9 15.8-9.1v-18.2z"/><path id="XMLID_227_" class="st6" d="M508 535.4l31.5-18.2-15.8-9.1-15.7 9.1z"/></g></g></g><g id="XMLID_153_"><g id="XMLID_59_"><g id="XMLID_106_"><linearGradient id="XMLID_93_" gradientUnits="userSpaceOnUse" x1="241.402" y1="-15748.294" x2="241.402" y2="-15671.754" gradientTransform="matrix(1 0 0 -1 0 -15650.465)"><stop offset="0" stop-color="#c41e51"/><stop offset=".041" stop-color="#be1c4e"/><stop offset=".324" stop-color="#99113c"/><stop offset=".587" stop-color="#7e0930"/><stop offset=".821" stop-color="#6e0428"/><stop offset="1" stop-color="#680225"/></linearGradient><path id="XMLID_9_" fill="url(#XMLID_93_)" d="M217.3 19.6v67.8h48.2V19.6z"/><linearGradient id="XMLID_97_" gradientUnits="userSpaceOnUse" x1="313.788" y1="-15644.553" x2="313.788" y2="-15730.728" gradientTransform="matrix(1 0 0 -1 0 -15650.465)"><stop offset="0" stop-color="#c41e51"/><stop offset=".041" stop-color="#be1c4e"/><stop offset=".324" stop-color="#99113c"/><stop offset=".587" stop-color="#7e0930"/><stop offset=".821" stop-color="#6e0428"/><stop offset="1" stop-color="#680225"/></linearGradient><path id="XMLID_24_" fill="url(#XMLID_97_)" d="M289.7 19.6v67.8h48.2V19.6z"/><linearGradient id="XMLID_98_" gradientUnits="userSpaceOnUse" x1="234.309" y1="141.482" x2="234.309" y2="296.26" gradientTransform="rotate(45.001 522.73 216.295)"><stop offset="0" stop-color="#f58b1f"/><stop offset=".495" stop-color="#ed6723"/><stop offset="1" stop-color="#ee3e30"/></linearGradient><path id="XMLID_26_" fill="url(#XMLID_98_)" d="M289.7 19.6l-72.4 67.8h48.6l23.9-23.9 48.1-43.9z"/></g></g></g></g></g></svg>