<svg xmlns="http://www.w3.org/2000/svg" xmlns:xlink="http://www.w3.org/1999/xlink" viewBox="0 0 120.6 67.6"><style>.st5{fill:#ffc724}.st6{fill:#f58b1f}.st7{fill:#ee3e30}.st8{fill:#931a3d}.st10{fill:#2d2d2d}</style><g id="OBJECTS"><g id="XMLID_28_"><g id="XMLID_152_"><g id="XMLID_56_"><linearGradient id="XMLID_2_" gradientUnits="userSpaceOnUse" x1="-134.56" y1="-15753.363" x2="-212.932" y2="-15674.99" gradientTransform="matrix(1 0 0 -1 0 -15689.76)"><stop offset="0" stop-color="#f58b1f"/><stop offset=".495" stop-color="#ed6723"/><stop offset="1" stop-color="#ee3e30"/></linearGradient><path id="XMLID_37_" d="M-138.8-5.7c-9-9-20.7-13.5-32.5-13.5s-23.5 4.5-32.5 13.5c-2.1 2.1-3.9 4.4-5.6 6.7 6.4-9.3 17.1-15.4 29.3-15.4 19.6 0 35.5 15.9 35.5 35.5 0 6.3-1.6 12.2-4.5 17.3-.7 1.3-1.5 2.6-2.4 3.8-1.8 2.4-3.8 4.5-6.1 6.4l-13.6 13.6L-186 77l14.8 14.8 32.5-32.5c17.8-17.9 17.8-47-.1-65z" fill="url(#XMLID_2_)"/><linearGradient id="XMLID_3_" gradientUnits="userSpaceOnUse" x1="-240.195" y1="-15675.808" x2="-124.116" y2="-15757.577" gradientTransform="matrix(1 0 0 -1 0 -15689.76)"><stop offset="0" stop-color="#c41e51"/><stop offset=".167" stop-color="#b41d4a"/><stop offset=".427" stop-color="#a21b43"/><stop offset=".699" stop-color="#971a3e"/><stop offset="1" stop-color="#931a3d"/></linearGradient><path id="XMLID_34_" d="M-144.6 21.1c0-19.6-15.9-35.5-35.5-35.5-12.2 0-22.9 6.1-29.3 15.4-.1.1-.2.3-.3.4-.3.4-.5.8-.8 1.2 0 0 0 .1-.1.1-10.9 17.7-8.7 41.2 6.7 56.6l10.3 10.3 14.8-14.8-10.2-10.2c-9.8-9.8-9.8-25.7 0-35.5 4.7-4.7 11-7.3 17.7-7.3 6.7 0 13 2.6 17.7 7.3 7.9 7.9 9.4 19.9 4.5 29.3 2.9-5.1 4.5-11 4.5-17.3z" fill="url(#XMLID_3_)"/><linearGradient id="XMLID_4_" gradientUnits="userSpaceOnUse" x1="-170.688" y1="-15748.513" x2="-170.688" y2="-15712.127" gradientTransform="matrix(1 0 0 -1 0 -15689.76)"><stop offset="0" stop-color="#c41e51"/><stop offset=".167" stop-color="#b41d4a"/><stop offset=".427" stop-color="#a21b43"/><stop offset=".699" stop-color="#971a3e"/><stop offset="1" stop-color="#931a3d"/></linearGradient><path id="XMLID_13_" d="M-155 27.5c0 8.6-7 15.7-15.7 15.7s-15.7-7-15.7-15.7c0-2.5.6-4.9 1.7-7 2.6-5.1 7.9-8.6 14-8.6s11.4 3.5 14 8.6c1.1 2 1.7 4.4 1.7 7z" fill="url(#XMLID_4_)"/></g></g><g id="XMLID_168_"><g id="XMLID_60_"><g id="XMLID_102_"><linearGradient id="XMLID_5_" gradientUnits="userSpaceOnUse" x1="243.489" y1="-15770.369" x2="320.262" y2="-15693.596" gradientTransform="matrix(1 0 0 -1 0 -15689.76)"><stop offset="0" stop-color="#f58b1f"/><stop offset=".495" stop-color="#ed6723"/><stop offset="1" stop-color="#ee3e30"/></linearGradient><path id="XMLID_11_" d="M313.8 36.8c-6.4-1.2-10.6-7.4-9.3-13.8l1.2-6.1c3.1-16.4-7.1-32.7-23.5-36-16.6-3.4-32.8 7.6-35.7 24.3-2.9 16.4 8.4 32 24.8 35.1l6.1 1.2c6.4 1.2 10.6 7.4 9.3 13.8-2.5 13 5.7 26.1 18.7 28.6 13 2.6 25.7-6 28.1-19.1 2.4-13-6.7-25.5-19.7-28z" fill="url(#XMLID_5_)"/><linearGradient id="XMLID_6_" gradientUnits="userSpaceOnUse" x1="256.713" y1="-15796.781" x2="256.713" y2="-15728.757" gradientTransform="matrix(1 0 0 -1 0 -15689.76)"><stop offset="0" stop-color="#c41e51"/><stop offset=".205" stop-color="#b71a4b"/><stop offset=".587" stop-color="#940f3a"/><stop offset="1" stop-color="#680225"/></linearGradient><circle id="XMLID_12_" cx="256.7" cy="67.6" r="16.8" fill="url(#XMLID_6_)"/></g></g></g><g id="XMLID_123_"><g id="XMLID_61_"><g id="XMLID_36_"><g id="XMLID_14_"><path id="XMLID_15_" class="st5" d="M-213 233.5l37.3-21.6V255z"/><path id="XMLID_40_" class="st6" d="M-138.4 233.5l-37.3-21.6V255l37.3-21.5"/><path id="XMLID_41_" class="st7" d="M-138.4 276.6v-43.1l-37.3 21.5"/><path id="XMLID_27_" class="st8" d="M-213 276.6l37.3 21.5V255z"/><path id="XMLID_43_" fill="#c41e51" d="M-175.7 255v43.1l37.3-21.5z"/></g><g id="XMLID_42_"><path id="XMLID_46_" class="st7" d="M-213 276.6v43.1l37.3-21.6z"/><path id="XMLID_45_" class="st6" d="M-213 319.7l37.3 21.5v-43.1z"/><path id="XMLID_44_" class="st5" d="M-175.7 298.1v43.1l37.3-21.5z"/></g></g></g></g><g id="XMLID_124_"><g id="XMLID_62_"><g id="XMLID_107_"><path id="XMLID_48_" class="st7" d="M53.1 276.6v55.6c-30.7 0-55.6-24.9-55.6-55.6h55.6z"/><path id="XMLID_50_" class="st8" d="M53.1 276.6H-2.5V221c30.7 0 55.6 24.9 55.6 55.6z"/><path id="XMLID_52_" class="st6" d="M108.7 276.6c0 30.7-24.9 55.6-55.6 55.6 0-30.7 24.9-55.6 55.6-55.6z"/><path id="XMLID_51_" class="st5" d="M108.7 276.6c-30.7 0-55.6-24.9-55.6-55.6 30.7 0 55.6 24.9 55.6 55.6z"/></g></g></g><g id="XMLID_135_"><g id="XMLID_63_"><g id="XMLID_75_"><g id="XMLID_49_"><path id="XMLID_89_" class="st5" d="M241.8 295.6h-21.3c0 10.3 9.5 18.7 21.3 18.7h85.1l-20.6-18.7h-64.5z"/><g id="XMLID_76_"><path id="XMLID_82_" class="st7" d="M326.9 226.9h-85.1v18.7h106.4c0-10.3-9.5-18.7-21.3-18.7z"/><path id="XMLID_87_" class="st8" d="M326.9 245.7v68.7c11.8 0 21.3-8.4 21.3-18.7v-49.9h-21.3z"/></g></g><path id="XMLID_74_" class="st6" d="M220.5 295.6h21.3v-68.7c-11.8 0-21.3 8.4-21.3 18.7v50z"/><ellipse id="XMLID_65_" class="st10" cx="264.2" cy="269.7" rx="6.9" ry="6"/><ellipse id="XMLID_77_" class="st10" cx="287.2" cy="269.7" rx="6.9" ry="6"/><ellipse id="XMLID_91_" class="st10" cx="310.3" cy="269.7" rx="6.9" ry="6"/></g></g></g><g id="XMLID_148_"><g id="XMLID_64_"><g id="XMLID_94_"><linearGradient id="XMLID_7_" gradientUnits="userSpaceOnUse" x1="-84.376" y1="-16261.509" x2="-240.434" y2="-16164.158" gradientTransform="matrix(1 0 0 -1 0 -15689.76)"><stop offset="0" stop-color="#f58b1f"/><stop offset=".495" stop-color="#ed6723"/><stop offset="1" stop-color="#ee3e30"/></linearGradient><path id="XMLID_125_" d="M-173.4 458.6c-35.7 0-64.6 28.9-64.6 64.6v.2c.1-31.2 25.4-56.5 56.6-56.5 2.7 0 5.4.2 8.1.6 24.4 3.5 43.8 22.6 47.8 46.9.5 2.5.7 5.1.8 7.7v2c0 .7 0 1.4-.1 2.2v-.6c-1.3 21.2-18.9 38-40.4 38-2.8 0-5.5-.3-8.2-.8-18.4-3.8-32.3-20.2-32.3-39.8 0-17.8 14.5-32.3 32.3-32.3 17.8 0 32.3 14.5 32.3 32.3 0-19.6-13.9-36-32.3-39.8-2.6-.5-5.4-.8-8.2-.8-20.8 0-38 15.8-40.2 36.1-.1 1.6-.2 3.3-.2 5v2.3c1.1 27.5 21.8 50 48.5 53.8 2.6.4 5.3.6 8.1.6 29.3 0 53.4-22.3 56.3-50.9.1-1.5.2-2.9.3-4.4v-1.9c0-35.6-29-64.5-64.6-64.5z" fill="url(#XMLID_7_)"/><g id="XMLID_122_"><defs><path id="XMLID_88_" d="M-165.5 580.3c-2.7 0-5.4-.2-8.1-.6-26.7-3.8-47.4-26.3-48.5-53.8 0-.6-.1-1.1-.1-1.7v-2c.1-2.4.3-4.7.7-7-.2 1.2-.3 2.4-.4 3.5 2.2-20.3 19.4-36.1 40.2-36.1 2.8 0 5.5.3 8.2.8 18.4 3.8 32.3 20.2 32.3 39.8 0 17.8-14.5 32.3-32.3 32.3-17.8 0-32.3-14.5-32.3-32.3 0 19.6 13.9 36 32.3 39.8 2.6.5 5.4.8 8.2.8 21.5 0 39-16.8 40.4-38v-2.2c0-1.8-.1-3.5-.2-5.3-.1-1.3-.3-2.6-.5-3.9-3.9-24.3-23.3-43.4-47.8-46.9-2.6-.4-5.3-.6-8.1-.6-31.2 0-56.5 25.3-56.6 56.5 0 2.1.1 4.3.3 6.4 3.3 32.6 30.8 58 64.2 58 33.5 0 61.1-25.6 64.3-58.3-2.8 28.5-26.9 50.8-56.2 50.8z"/></defs><linearGradient id="XMLID_8_" gradientUnits="userSpaceOnUse" x1="-118.082" y1="-16307.465" x2="-197.141" y2="-16191.113" gradientTransform="matrix(1 0 0 -1 0 -15689.76)"><stop offset="0" stop-color="#c41e51"/><stop offset=".167" stop-color="#b41d4a"/><stop offset=".427" stop-color="#a21b43"/><stop offset=".699" stop-color="#971a3e"/><stop offset="1" stop-color="#931a3d"/></linearGradient><use xlink:href="#XMLID_88_" overflow="visible" fill="url(#XMLID_8_)"/><clipPath id="XMLID_10_"><use xlink:href="#XMLID_88_" overflow="visible"/></clipPath></g></g></g></g><g id="XMLID_150_"><g id="XMLID_66_"><g id="XMLID_95_"><path id="XMLID_101_" fill="#d7df32" d="M60.8 480.6v-22 22z"/><path id="XMLID_104_" class="st8" d="M60.8 565l-25.4-14.7-11.1-6.4-19.1 11 55.6 32.2 55.7-32.2-19.1-11z"/><path id="XMLID_117_" class="st6" d="M97.4 501.7v42.2l19.1 11v-64.2l-55.7-32.1v22z"/><path id="XMLID_137_" class="st7" d="M5.2 554.9l19.1-11v-42.2l36.5-21.1v-22L5.2 490.7v64.2z"/><path id="XMLID_138_" class="st5" d="M44.2 540.8l-7.2-4.2V509l23.8 13.8v27.5-27.5L84.7 509l-23.9-13.7L37 509v27.6z"/><path id="XMLID_139_" class="st7" d="M60.8 522.8v27.5l23.9-13.7V509z"/><path id="XMLID_140_" class="st6" d="M37 509v27.6l7.2 4.2 16.6 9.5v-27.5z"/></g></g></g><g id="XMLID_151_"><g id="XMLID_72_"><g id="XMLID_96_"><g id="XMLID_120_"><path id="XMLID_121_" class="st8" d="M253.5 493.5h.1L235 482.8v42.9l18.5-10.7z"/><path id="XMLID_202_" class="st7" d="M235 482.8l18.6 10.7 18.5-10.7v-21.4z"/><path id="XMLID_203_" class="st8" d="M346.4 482.8l-37.2-21.4v21.4l18.6 10.7z"/><path id="XMLID_208_" class="st7" d="M290.6 557.8l-18.5-10.7-18.6 10.7 37.2 21.5v-21.5z"/><path id="XMLID_209_" class="st8" d="M327.8 557.8l-18.6-10.7-18.5 10.7v21.5z"/><path id="XMLID_210_" class="st7" d="M327.8 493.5V515l18.5 10.7.1-42.9z"/><path id="XMLID_216_" class="st8" d="M309.2 525.7l.1-.1"/></g><path id="XMLID_213_" class="st6" d="M290.7 552.2l15.7-9.1v-18.2l-15.7-9.1z"/><path id="XMLID_215_" class="st5" d="M277.3 523.5l-2.4 1.4v18.2l15.7 9.1v-36.4z"/><path id="XMLID_223_" class="st5" d="M290.6 497.6l-15.7-9.1-15.7 9 31.4 18.2z"/><path id="XMLID_224_" class="st6" d="M259.1 515.8l15.8 9.1 15.7-9.1-31.5-18.2z"/><path id="XMLID_225_" class="st5" d="M290.7 515.7l-.1.1h.1l15.7 9.1.1-.1 15.7-9v-18.2z"/><path id="XMLID_227_" class="st6" d="M290.7 515.7l31.5-18.1-15.8-9.1-15.7 9z"/></g></g></g><g id="XMLID_153_"><g id="XMLID_59_"><g id="XMLID_106_"><linearGradient id="XMLID_16_" gradientUnits="userSpaceOnUse" x1="24.129" y1="-15767.942" x2="24.129" y2="-15691.402" gradientTransform="matrix(1 0 0 -1 0 -15689.76)"><stop offset="0" stop-color="#c41e51"/><stop offset=".041" stop-color="#be1c4e"/><stop offset=".324" stop-color="#99113c"/><stop offset=".587" stop-color="#7e0930"/><stop offset=".821" stop-color="#6e0428"/><stop offset="1" stop-color="#680225"/></linearGradient><path id="XMLID_9_" fill="url(#XMLID_16_)" d="M0 0v67.8h48.3V0z"/><linearGradient id="XMLID_17_" gradientUnits="userSpaceOnUse" x1="96.514" y1="-15664.201" x2="96.514" y2="-15750.376" gradientTransform="matrix(1 0 0 -1 0 -15689.76)"><stop offset="0" stop-color="#c41e51"/><stop offset=".041" stop-color="#be1c4e"/><stop offset=".324" stop-color="#99113c"/><stop offset=".587" stop-color="#7e0930"/><stop offset=".821" stop-color="#6e0428"/><stop offset="1" stop-color="#680225"/></linearGradient><path id="XMLID_24_" fill="url(#XMLID_17_)" d="M72.4 0v67.8h48.2V0z"/><linearGradient id="XMLID_18_" gradientUnits="userSpaceOnUse" x1="17.035" y1="121.834" x2="17.035" y2="276.611" gradientTransform="rotate(45.001 305.457 196.647)"><stop offset="0" stop-color="#f58b1f"/><stop offset=".495" stop-color="#ed6723"/><stop offset="1" stop-color="#ee3e30"/></linearGradient><path id="XMLID_26_" fill="url(#XMLID_18_)" d="M72.4 0L0 67.8h48.6l23.9-24L120.6 0z"/></g></g></g></g></g></svg>