<svg xmlns="http://www.w3.org/2000/svg" viewBox="0 0 96.2 81.5"><style/><g id="Objects"><linearGradient id="SVGID_1_" gradientUnits="userSpaceOnUse" x1="310.789" y1="19.022" x2="334.96" y2="51.763"><stop offset="0" stop-color="#00d47e"/><stop offset=".142" stop-color="#02d484" stop-opacity=".996"/><stop offset=".337" stop-color="#08d696" stop-opacity=".99"/><stop offset=".564" stop-color="#11d8b3" stop-opacity=".983"/><stop offset=".812" stop-color="#1edbdb" stop-opacity=".976"/><stop offset="1" stop-color="#2adeff" stop-opacity=".97"/></linearGradient><path d="M336.1 55.5c-9.8 0-17.8-8-17.8-17.8V27.1c9.8 0 17.8 8 17.8 17.8v10.6z" fill="url(#SVGID_1_)"/><linearGradient id="SVGID_2_" gradientUnits="userSpaceOnUse" x1="304.832" y1="51.208" x2="342.787" y2="1.634"><stop offset="0" stop-color="#00bc7e"/><stop offset=".218" stop-color="#00bc7f"/><stop offset=".393" stop-color="#01bd82" stop-opacity=".993"/><stop offset=".529" stop-color="#04bf8c" stop-opacity=".988"/><stop offset=".651" stop-color="#0ac49c" stop-opacity=".983"/><stop offset=".765" stop-color="#11cab3" stop-opacity=".979"/><stop offset=".874" stop-color="#1bd2d1" stop-opacity=".975"/><stop offset=".977" stop-color="#27dcf6" stop-opacity=".971"/><stop offset="1" stop-color="#2adeff" stop-opacity=".97"/></linearGradient><path d="M346.7 6.2c0 9.8-8 17.8-17.8 17.8h-10.6c0-9.8 8-17.8 17.8-17.8h10.6z" fill="url(#SVGID_2_)"/><linearGradient id="SVGID_3_" gradientUnits="userSpaceOnUse" x1="318.854" y1="33.711" x2="286.678" y2="-27.528"><stop offset=".005" stop-color="#00bc7e"/><stop offset=".143" stop-color="#02be85" stop-opacity=".996"/><stop offset=".351" stop-color="#09c39a" stop-opacity=".99"/><stop offset=".603" stop-color="#14ccbc" stop-opacity=".982"/><stop offset=".887" stop-color="#23d9ea" stop-opacity=".973"/><stop offset="1" stop-color="#2adeff" stop-opacity=".97"/></linearGradient><path d="M297.4-4.4c9.8 0 17.8 8 17.8 17.8V24c-9.8 0-17.8-8-17.8-17.8V-4.4z" fill="url(#SVGID_3_)"/><linearGradient id="SVGID_4_" gradientUnits="userSpaceOnUse" x1="278.228" y1=".614" x2="310.507" y2="85.753"><stop offset="0" stop-color="#90145a"/><stop offset=".15" stop-color="#842c6e" stop-opacity=".996"/><stop offset=".468" stop-color="#646aa1" stop-opacity=".986"/><stop offset=".925" stop-color="#33cdf1" stop-opacity=".972"/><stop offset="1" stop-color="#2adeff" stop-opacity=".97"/></linearGradient><path d="M279.5 55.3c-6.9 3.6-2.4 26.8 14.1 26.7 11.9-.1 21.5-9.6 21.5-21.5V27.1c-9.8 0-17.8 8-17.8 17.8v10.5c0 4.9-4 8.9-8.9 8.9s-8.9-4-8.9-9" fill="url(#SVGID_4_)"/><linearGradient id="SVGID_5_" gradientUnits="userSpaceOnUse" x1="280.494" y1="4.629" x2="305.345" y2="52.455"><stop offset="0" stop-color="#90145a"/><stop offset=".15" stop-color="#842c6e" stop-opacity=".996"/><stop offset=".468" stop-color="#646aa1" stop-opacity=".986"/><stop offset=".925" stop-color="#33cdf1" stop-opacity=".972"/><stop offset="1" stop-color="#2adeff" stop-opacity=".97"/></linearGradient><path d="M288.5 64.3c5.3-.1 8.8-4.6 8.8-8.8V44.7c0-9.8 8.1-17.5 17.9-17.5v10.3c0 25.9-26.7 26.8-26.7 26.8z" fill="url(#SVGID_5_)"/><linearGradient id="SVGID_6_" gradientUnits="userSpaceOnUse" x1="255.984" y1="2.439" x2="303.476" y2="123.497"><stop offset="0" stop-color="#90145a"/><stop offset=".15" stop-color="#842c6e" stop-opacity=".996"/><stop offset=".468" stop-color="#646aa1" stop-opacity=".986"/><stop offset=".925" stop-color="#33cdf1" stop-opacity=".972"/><stop offset="1" stop-color="#2adeff" stop-opacity=".97"/></linearGradient><path d="M293 81.8c-14.4-2.1-13.5-26.4-13.5-26.4V18.7c0-9.8-8-17.8-17.8-17.8v59.6c0 11.9 9.8 21.5 21.5 21.5h11.1c.2 0-.2-.1-1.3-.2z" fill="url(#SVGID_6_)"/><path d="M312.8 286.7c.1.4.1.8.1 1.1v-1.5c0 .6-.1.5-.1.4.1 0 0-.1 0-.1v-.3.2c-.1.1 0 .1 0 .2z" fill="none"/><linearGradient id="SVGID_7_" gradientUnits="userSpaceOnUse" x1="301.156" y1="285.877" x2="281.539" y2="316.291"><stop offset=".158" stop-color="#686f9f"/><stop offset=".288" stop-color="#6a67a3"/><stop offset=".491" stop-color="#7051ae"/><stop offset=".742" stop-color="#792cc1"/><stop offset="1" stop-color="#8400d7"/></linearGradient><path d="M304.2 315.5v-24c-.1-2.1-1-4.2-2.7-5.8-1.3-1.2-3-1.9-4.7-2-2-.2-4 .4-5.6 1.6-.4.3-.8.7-1.2 1.1-.3.3-.5.6-.7.9-.9 1.3-1.3 2.8-1.4 4.3v14.8c-.1 0-.1-.1-.2-.1s-.1-.1-.1-.1-.1 0-.1-.1c0 0-.1 0-.1-.1l-.1-.1-.1-.1-.1-.1-.1-.1-.1-.1-.1-.1-.1-.1s-.1 0-.1-.1l-.1-.1-.1-.1-.1-.1-.1-.1-.1-.1-.1-.1-.1-.1-.1-.1s-.1 0-.1-.1l-.1-.1-.1-.1s-.1 0-.1-.1c0 0-.1 0-.1-.1l-.1-.1-.1-.1-.1-.1h-.1s0-.1-.1-.1l-.1-.1-.1-.1-.1-.1-.1-.1-.1-.1-.1-.1-.1-.1-.1-.1-.1-.1-.1-.1-.1-.1-.1-.1s0-.1-.1-.1l-.1-.1-.1-.1-.1-.1s0-.1-.1-.1l-.1-.1-.1-.1-.1-.1-.1-.1-.1-.1-.1-.1s0-.1-.1-.1l-.1-.1-.1-.1-.1-.1-.1-.1-.1-.1-.1-.1-.1-.1-.1-.1-.1-.1-.1-.1s0-.1-.1-.1c0 0 0-.1-.1-.1 0-.1-.1-.1-.1-.2s0-.1-.1-.2c0-.1 0-.1-.1-.2 0-.1 0-.1-.1-.2 0-.1 0-.1-.1-.2 0-.1 0-.1-.1-.2 0-.1 0-.1-.1-.2 0-.1 0-.1-.1-.2 0-.1 0-.1-.1-.2 0-.1 0-.1-.1-.2v-.1c0-.1 0-.1-.1-.2 0-.1 0-.1-.1-.2 0-.1 0-.1-.1-.2 0-.1 0-.1-.1-.2 0-.1 0-.1-.1-.2 0-.1 0-.1-.1-.2 0-.1 0-.1-.1-.2 0-.1 0-.1-.1-.2 0-.1 0-.1-.1-.2 0-.1 0-.1-.1-.2 0-.1 0-.1-.1-.2v-10.9.1c0 .1 0 .1-.1.2v12.4c0 .1 0 .1.1.2 0 .1 0 .1.1.2 0 .1 0 .1.1.2 0 .1 0 .1.1.2 0 .1 0 .1.1.2 0 .1 0 .1.1.2 0 .1 0 .1.1.2 0 .1 0 .1.1.2 0 .1 0 .1.1.2 0 .1 0 .1.1.2v.1c0 .1 0 .1.1.2 0 .1.1.1.1.2s.1.1.1.2.1.1.1.2.1.1.1.2.1.1.1.2.1.1.1.2.1.1.1.2.1.1.1.2.1.1.1.2c0 0 0 .1.1.1 0 .1.1.1.1.2s.1.1.1.2.1.1.1.2.1.1.1.2.1.1.1.2.1.1.1.2.1.1.1.2.1.1.1.2.1.1.1.2c0 0 0 .1.1.1 0 .1.1.1.1.2s.1.1.1.2.1.1.1.2.1.1.1.2.1.1.1.2.1.1.1.2.1.1.1.2.1.1.1.2.1.1.1.2c0 0 0 .1.1.1 0 0 0 .1.1.1v.1c0 .1.1.1.1.2s.1.1.1.2.1.1.1.2.1.1.1.2.1.1.1.2.1.1.1.2.1.1.1.2.1.1.1.2.1.1.1.2l.1.1.1.1.1.1h.1l.1.1.1.1.1.1s.1 0 .1.1c0 0 0 .1.1.1l.1.1s0 .1.1.1l.1.1.1.1.1.1.1.1.1.1.1.1.1.1c.1 0 .1.1.2.2.1 0 .1.1.2.2.1 0 .1.1.2.1s.1.1.2.1.1.1.2.1.1.1.2.1.1.1.2.1.1.1.2.1.1.1.2.1l.1.1c.1 0 .1.1.2.1s.1.1.2.1.1.1.2.1.1.1.2.1.1.1.2.1.1.1.2.1.1.1.2.1.1.1.2.1c0 0 .1 0 .1.1.1 0 .1.1.2.1s.1.1.2.1.1.1.2.1.1.1.2.1.1.1.2.1.1.1.2.1.1.1.2.1.1.1.2.1.1.1.2.1h.1c.1 0 .1.1.2.1s.1.1.2.1.1.1.2.1.1.1.2.1.1 0 .2.1c.1 0 .1.1.2.1s.1 0 .2.1c.1 0 .1 0 .2.1h.1c.1 0 .1 0 .2.1.1 0 .1 0 .2.1.1 0 .1 0 .2.1.1 0 .1 0 .2.1.1 0 .1 0 .2.1.1 0 .1 0 .2.1.1 0 .1 0 .2.1.1 0 .1 0 .2.1.1 0 .1 0 .2.1h9.8c.1 0 .1 0 .2-.1.1 0 .1 0 .2-.1.1 0 .1 0 .2-.1h.1c-1.2 2.1-1.2 2-1.2 2z" fill="url(#SVGID_7_)"/><linearGradient id="SVGID_8_" gradientUnits="userSpaceOnUse" x1="274.955" y1="312.61" x2="292.314" y2="278.659"><stop offset=".048" stop-color="#846fde"/><stop offset=".229" stop-color="#8c60d0"/><stop offset=".581" stop-color="#a137ab"/><stop offset=".995" stop-color="#bd0079"/></linearGradient><path d="M312.7 286.3v-2.2c-.1-.4-.1-.7-.2-1.1v-1.4c0-.1 0-.1-.1-.2 0-.1 0-.1-.1-.2 0-.1 0-.1-.1-.2 0-.1 0-.1-.1-.2 0-.1 0-.1-.1-.2-.1-.4-.2-.7-.3-1.1 0-.1 0-.1-.1-.2 0-.1 0-.1-.1-.2 0-.1 0-.1-.1-.2 0-.1 0-.1-.1-.2 0-.1 0-.1-.1-.2 0-.1 0-.1-.1-.2 0-.1 0-.1-.1-.2 0-.1 0-.1-.1-.2 0-.1 0-.1-.1-.2 0-.1 0-.1-.1-.2 0-.1 0-.1-.1-.2 0-.1 0-.1-.1-.2 0-.1 0-.1-.1-.2-.1-.4-.3-.7-.4-1 0-.1 0-.1-.1-.2 0-.1 0-.1-.1-.2 0-.1-.1-.1-.1-.2s-.1-.1-.1-.2-.1-.1-.1-.2-.1-.1-.1-.2-.1-.1-.1-.2-.1-.1-.1-.2-.1-.1-.1-.2-.1-.1-.1-.2-.1-.1-.1-.2-.1-.1-.1-.2-.1-.1-.1-.2-.1-.1-.1-.2c-.1-.3-.3-.7-.5-1 0 0 0-.1-.1-.1v-.1c0-.1-.1-.1-.1-.2s-.1-.1-.1-.2-.1-.1-.1-.2-.1-.1-.1-.2-.1-.1-.1-.2-.1-.1-.1-.2-.1-.1-.1-.2-.1-.1-.1-.2-.1-.1-.1-.2-.1-.1-.1-.2-.1-.1-.1-.2-.1-.1-.1-.2l-.6-.9c0-.1-.1-.1-.1-.2s-.1-.1-.1-.2-.1-.1-.1-.2-.1-.1-.1-.2-.1-.1-.1-.2-.1-.1-.1-.2-.1-.1-.1-.2-.1-.1-.1-.2-.1-.1-.1-.2-.1-.1-.1-.2-.1-.1-.1-.2-.1-.1-.1-.2-.1-.1-.1-.2-.1-.1-.1-.2-.1-.1-.1-.2c-.2-.3-.4-.6-.7-.9 0-.1-.1-.1-.1-.2s-.1-.1-.1-.2c0 0-.1-.1-.1-.2s-.1-.1-.1-.2l-.1-.1-.1-.1-.1-.1-.1-.1-.1-.1-.1-.1-.1-.1-.1-.1-.1-.1-.1-.1-.1-.1c-.2-.3-.5-.6-.8-.8l-.1-.1-.1-.1-.1-.1-.1-.1-.1-.1-.1-.1h-.1s0-.1-.1-.1l-.1-.1-.1-.1-.1-.1-.1-.1s-.1 0-.1-.1l-.1-.1s-.1 0-.1-.1l-.1-.1-.1-.1-.1-.1-.1-.1-.1-.1c-.3-.3-.5-.5-.8-.7l-.1-.1-.1-.1-.1-.1-.1-.1-.1-.1-.1-.1-.1-.1c-.1 0-.1-.1-.2-.1s-.1-.1-.2-.1-.1-.1-.2-.1-.1-.1-.2-.1-.1-.1-.2-.1-.1-.1-.2-.1-.1-.1-.2-.1-.1-.1-.2-.1-.1-.1-.2-.1l-.9-.6c-.1 0-.1-.1-.2-.1s-.1-.1-.2-.1-.1-.1-.2-.1-.1-.1-.2-.1-.1-.1-.2-.1-.1-.1-.2-.1-.1-.1-.2-.1-.1-.1-.2-.1-.1-.1-.2-.1-.1-.1-.2-.1-.1-.1-.2-.1-.1-.1-.2-.1-.1-.1-.2-.1-.1-.1-.2-.1-.1-.1-.2-.1-.1-.1-.2-.1-.1-.1-.2-.1c-.3-.2-.6-.4-.9-.5-.1 0-.1-.1-.2-.1s-.1-.1-.2-.1-.1-.1-.2-.1-.1-.1-.2-.1-.1-.1-.2-.1-.1-.1-.2-.1-.1-.1-.2-.1-.1-.1-.2-.1-.1-.1-.2-.1-.1-.1-.2-.1-.1-.1-.2-.1-.1-.1-.2-.1-.1-.1-.2-.1-.1 0-.2-.1c-.1 0-.1 0-.2-.1-.1 0-.1 0-.2-.1-.3-.2-.6-.3-.9-.4-.1 0-.1 0-.2-.1-.1 0-.1 0-.2-.1-.1 0-.1 0-.2-.1-.1 0-.1 0-.2-.1-.1 0-.1 0-.2-.1-.1 0-.1 0-.2-.1-.1 0-.1 0-.2-.1-.1 0-.1 0-.2-.1-.1 0-.1 0-.2-.1-.1 0-.1 0-.2-.1-.1 0-.1 0-.2-.1-.1 0-.1 0-.2-.1-.1 0-.1 0-.2-.1-.1 0-.1 0-.2-.1-.1 0-.1 0-.2-.1-.1 0-.1 0-.2-.1h-.1c-.1 0-.3.1-.4.1-.1 0-.1 0-.2.1-.1 0-.1 0-.2.1-.1 0-.1 0-.2.1-.1 0-.1 0-.2.1-.1 0-.1 0-.2.1-.1 0-.1 0-.2.1-.1 0-.1 0-.2.1-.1 0-.1 0-.2.1-.1 0-.1 0-.2.1-.1 0-.1 0-.2.1-.1 0-.1 0-.2.1-.1 0-.1.1-.2.1s-.1.1-.2.1c-.3.1-.6.2-.9.4-.1 0-.1.1-.2.1s-.1.1-.2.1-.1.1-.2.1-.1.1-.2.1-.1.1-.2.1-.1.1-.2.1-.1.1-.2.1-.1.1-.2.1-.1.1-.2.1-.1.1-.2.1-.1.1-.2.1-.1.1-.2.1c-.3.1-.6.3-.9.5-.1 0-.1.1-.2.1s-.1.1-.2.1-.1.1-.2.1-.1.1-.2.1-.1.1-.2.1-.1.1-.2.1-.1.1-.2.1-.1.1-.2.1-.1.1-.2.1-.1.1-.2.1-.1.1-.2.1-.1.1-.2.1-.1.1-.2.1c-.3.2-.6.4-.8.6-.1 0-.1.1-.2.1s-.1.1-.2.1-.1.1-.2.1-.1.1-.2.1-.1.1-.2.1-.1.1-.2.1-.1.1-.2.1-.1.1-.2.1-.1.1-.2.1-.1.1-.2.1-.1.1-.2.1-.1.1-.2.1-.1.1-.2.1c-.3.2-.5.4-.8.7-.1 0-.1.1-.2.1s-.1.1-.2.1-.1.1-.2.1-.1.1-.2.1-.1.1-.2.1-.1.1-.2.1-.1.1-.2.1-.1.1-.2.1-.1.1-.2.1-.1.1-.2.1-.1.1-.2.2c-.1 0-.1.1-.1.2-.1 0-.1.1-.1.2l-.7.7-.1.1-.1.1-.1.1-.1.1v.1l-.1.1v.1l-.1.1-.1.1-.1.1s0 .1-.1.1l-.1.1s0 .1-.1.1l-.1.1-.1.1v.1l-.1.1-.1.1-.1.1-.1.1c-.2.3-.4.5-.6.8 0 .1-.1.1-.1.2s-.1.1-.1.2-.1.1-.1.2-.1.1-.1.2-.1.1-.1.2-.1.1-.1.2-.1.1-.1.2-.1.1-.1.2-.1.1-.1.2-.1.1-.1.2-.1.1-.1.2-.1.1-.1.2-.1.1-.1.2-.1.1-.1.2-.1.1-.1.2c-.2.3-.4.6-.5.9 0 .1-.1.1-.1.2s-.1.1-.1.2-.1.1-.1.2-.1.1-.1.2-.1.1-.1.2-.1.1-.1.2-.1.1-.1.2-.1.1-.1.2-.1.1-.1.2-.1.1-.1.2-.1.1-.1.2-.1.1-.1.2-.1.1-.1.2c-.2.3-.3.6-.4.9 0 .1-.1.1-.1.2s-.1.1-.1.2-.1.1-.1.2-.1.1-.1.2-.1.1-.1.2-.1.1-.1.2-.1.1-.1.2-.1.1-.1.2-.1.1-.1.2-.1.1-.1.2-.1.1-.1.2-.1.1-.1.2 0 .1-.1.2c0 .1 0 .1-.1.2-.1.3-.2.6-.4.9 0 .1 0 .1-.1.2 0 .1 0 .1-.1.2 0 .1 0 .1-.1.2 0 .1 0 .1-.1.2 0 .1 0 .1-.1.2 0 .1 0 .1-.1.2 0 .1 0 .1-.1.2 0 .1 0 .1-.1.2v.2c0 .1 0 .1-.1.2 0 .1 0 .1-.1.2 0 .1 0 .1-.1.2 0 .1 0 .1-.1.2 0 .1-.1.3-.1.4-.1.2-.1.5-.2.7 0 .1 0 .1-.1.2 0 .1 0 .1-.1.2v2.4c-.1.3-.1.6-.2.9v2.8c0 .3-.1.6-.1.9v6.7c0 .3 0 .6.1.9v3c0 .3.1.6.2.9v2.4c0 .1 0 .1.1.2 0 .1 0 .1.1.2 0 .1 0 .1.1.2 0 .1 0 .1.1.2 0 .1.1.3.1.4 0 .1.1.2.1.3 0 .1 0 .1.1.2 0 .1 0 .1.1.2 0 .1 0 .1.1.2 0 .1 0 .1.1.2 0 .1 0 .1.1.2 0 .1 0 .1.1.2 0 .1 0 .1.1.2 0 .1 0 .1.1.2 0 .1 0 .1.1.2 0 .1 0 .1.1.2 0 .1 0 .1.1.2 0 .1 0 .1.1.2 0 .1 0 .1.1.2 0 .1 0 .1.1.2 0 .1 0 .1.1.2 0 .1 0 .1.1.2 0 0 0 .1.1.1.1.2.1.4.2.5 0 .1 0 .1.1.2 0 .1 0 .1.1.2 0 .1 0 .1.1.2 0 .1 0 .1.1.2 0 .1 0 .1.1.2 0 .1.1.1.1.2s.1.1.1.2.1.1.1.2.1.1.1.2.1.1.1.2.1.1.1.2.1.1.1.2.1.1.1.2.1.1.1.2.1.1.1.2c.1.3.3.6.4.8 0 .1.1.1.1.2s.1.1.1.2.1.1.1.2.1.1.1.2.1.1.1.2.1.1.1.2.1.1.1.2.1.1.1.2.1.1.1.2.1.1.1.2.1.1.1.2.1.1.1.2.1.1.1.2.1.1.1.2.1.1.1.2c.2.3.3.5.5.8 0 .1.1.1.1.2s.1.1.1.2.1.1.1.2.1.1.1.2.1.1.1.2.1.1.1.2.1.1.1.2.1.1.1.2.1.1.1.2.1.1.1.2.1.1.1.2.1.1.1.1c0 .1.1.1.1.1 0 .1.1.1.1.1.1.2.3.4.4.5l.1.1.1.1.1.1.1.1.1.1.1.1.1.1.1.1.1.1.1.1.1.1.1.1.1.1.1.1c.2.2.4.5.7.7l.1.1.1.1.1.1.1.1.1.1h.1s0 .1.1.1l.1.1.1.1s.1 0 .1.1l.1.1s.1 0 .1.1l.1.1.1.1.1.1.1.1.1.1c.2.2.5.4.7.6l.1.1.1.1c.1 0 .1.1.2.1l.1.1c.1 0 .1.1.2.1s.1.1.2.1.1.1.2.1.1.1.2.1.1.1.2.1.1.1.2.1.1.1.2.1.1.1.2.1c.2.2.5.4.8.5.1 0 .1.1.2.1s.1.1.2.1.1.1.2.1.1.1.2.1.1.1.2.1.1.1.2.1.1.1.2.1.1.1.2.1.1.1.2.1.1.1.2.1.1.1.2.1.1.1.2.1c.3.2.5.3.8.4.1 0 .1.1.2.1s.1.1.2.1.1.1.2.1.1.1.2.1.1.1.2.1.1.1.2.1.1.1.2.1.1.1.2.1c0 0 .1 0 .1.1.1 0 .1.1.2.1s.1.1.2.1.1 0 .2.1c.3.1.5.2.8.3.1 0 .1 0 .2.1.1 0 .1 0 .2.1.1 0 .1 0 .2.1.1 0 .1 0 .2.1.1 0 .1 0 .2.1.1 0 .1 0 .2.1.1 0 .1 0 .2.1.1 0 .1 0 .2.1.1 0 .1 0 .2.1.1 0 .1 0 .2.1.1 0 .1 0 .2.1.3.1.5.2.8.2.1 0 .1 0 .2.1.1 0 .1 0 .2.1.1 0 .1 0 .2.1h1.6c.3.1.6.1.8.2h2.2c.3 0 .6.1.8.1h5.2c.6 0 1.1-.1 1.7-.3 1.7-.4 3.2-1.3 4.5-2.7 1.6-1.8 2.3-4.1 2.2-6.3v-1h-.1c-.1 0-.1 0-.2.1-.1 0-.1 0-.2.1-.1 0-.1 0-.2.1h-9.8c-.1 0-.1 0-.2-.1-.1 0-.1 0-.2-.1-.1 0-.1 0-.2-.1-.1 0-.1 0-.2-.1-.1 0-.1 0-.2-.1-.1 0-.1 0-.2-.1-.1 0-.1 0-.2-.1-.1 0-.1 0-.2-.1-.1 0-.1 0-.2-.1h-.1c-.1 0-.1 0-.2-.1-.1 0-.1 0-.2-.1-.1 0-.1-.1-.2-.1s-.1 0-.2-.1c-.1 0-.1-.1-.2-.1s-.1-.1-.2-.1-.1-.1-.2-.1-.1-.1-.2-.1h-.1c-.1 0-.1-.1-.2-.1s-.1-.1-.2-.1-.1-.1-.2-.1-.1-.1-.2-.1-.1-.1-.2-.1-.1-.1-.2-.1-.1-.1-.2-.1-.1-.1-.2-.1-.1-.1-.2-.1c0 0-.1 0-.1-.1-.1 0-.1-.1-.2-.1s-.1-.1-.2-.1-.1-.1-.2-.1-.1-.1-.2-.1-.1-.1-.2-.1-.1-.1-.2-.1-.1-.1-.2-.1-.1-.1-.2-.1l-.1-.1c-.1 0-.1-.1-.2-.1s-.1-.1-.2-.1-.1-.1-.2-.1-.1-.1-.2-.1-.1-.1-.2-.1-.1-.1-.2-.1-.1-.1-.2-.1-.1-.1-.2-.2c-.1 0-.1-.1-.2-.2l-.1-.1-.1-.1-.1-.1-.1-.1-.1-.1-.1-.1-.1-.1s0-.1-.1-.1l-.1-.1s0-.1-.1-.1c0 0-.1 0-.1-.1l-.1-.1-.1-.1-.1-.1h-.1l-.1-.1-.1-.1-.1-.1c0-.1-.1-.1-.1-.2s-.1-.1-.1-.2-.1-.1-.1-.2-.1-.1-.1-.2-.1-.1-.1-.2-.1-.1-.1-.2-.1-.1-.1-.2-.1-.1-.1-.2-.1-.1-.1-.2v-.1s0-.1-.1-.1c0 0 0-.1-.1-.1 0-.1-.1-.1-.1-.2s-.1-.1-.1-.2-.1-.1-.1-.2-.1-.1-.1-.2-.1-.1-.1-.2-.1-.1-.1-.2-.1-.1-.1-.2-.1-.1-.1-.2-.1-.1-.1-.2c0 0 0-.1-.1-.1 0-.1-.1-.1-.1-.2s-.1-.1-.1-.2-.1-.1-.1-.2-.1-.1-.1-.2-.1-.1-.1-.2-.1-.1-.1-.2-.1-.1-.1-.2-.1-.1-.1-.2-.1-.1-.1-.2c0 0 0-.1-.1-.1 0-.1-.1-.1-.1-.2s-.1-.1-.1-.2-.1-.1-.1-.2-.1-.1-.1-.2-.1-.1-.1-.2-.1-.1-.1-.2-.1-.1-.1-.2-.1-.1-.1-.2 0-.1-.1-.2c0-.1 0-.1-.1-.2v-.1c0-.1 0-.1-.1-.2 0-.1 0-.1-.1-.2 0-.1 0-.1-.1-.2 0-.1 0-.1-.1-.2 0-.1 0-.1-.1-.2 0-.1 0-.1-.1-.2 0-.1 0-.1-.1-.2 0-.1 0-.1-.1-.2 0-.1 0-.1-.1-.2 0-.1 0-.1-.1-.2v-12.4c0-.1 0-.1.1-.2v-3c0-.1 0-.1.1-.2 0-.1 0-.1.1-.2 0-.1 0-.1.1-.2 0-.1 0-.1.1-.2 0-.1 0-.1.1-.2 0-.1 0-.1.1-.2 0-.1 0-.1.1-.2 0-.1 0-.1.1-.2 0 0 0-.1.1-.1v-.1c0-.1 0-.1.1-.2 0-.1 0-.1.1-.2 0-.1 0-.1.1-.2 0-.1 0-.1.1-.2 0-.1 0-.1.1-.2 0-.1 0-.1.1-.2 0-.1 0-.1.1-.2 0-.1.1-.1.1-.2s.1-.1.1-.2v-.1l.1-.1c0-.1.1-.1.1-.2s.1-.1.1-.2.1-.1.1-.2.1-.1.1-.2.1-.1.1-.2.1-.1.1-.2.1-.1.1-.2.1-.1.1-.2c0 0 0-.1.1-.1l.1-.1.1-.1.1-.1.1-.1.1-.1.1-.1.1-.1.1-.1.1-.1.1-.1.1-.1.1-.1s0-.1.1-.1c0 0 0-.1.1-.1v-.1s0-.1.1-.1l.1-.1.1-.1.1-.1.1-.1.1-.1v-.1l.1-.1.1-.1.1-.1.1-.1.1-.1.1-.1.1-.1.1-.1.1-.1.1-.1.1-.1.1-.1.1-.1.1-.1.1-.1.1-.1.1-.1.1-.1.1-.1.1-.1.1-.1.1-.1s.1 0 .1-.1l.1-.1.1-.1.1-.1.1-.1.1-.1.1-.1.1-.1.1-.1.1-.1h.1c.1 0 .1-.1.1-.1.1 0 .1-.1.1-.1.1 0 .1-.1.2-.1s.1 0 .2-.1c.1 0 .1 0 .2-.1.1 0 .1 0 .2-.1.1 0 .1 0 .2-.1.1 0 .1 0 .2-.1h.1s.1 0 .1-.1c.1 0 .1 0 .2-.1.1 0 .1 0 .2-.1.1 0 .1 0 .2-.1.1 0 .1 0 .2-.1.1 0 .1 0 .2-.1.1 0 .1 0 .2-.1.1 0 .1 0 .2-.1.1 0 .1 0 .2-.1h12c.1 0 .1 0 .2.1.1 0 .1 0 .2.1.1 0 .1 0 .2.1.1 0 .1 0 .2.1.1 0 .1 0 .2.1.1 0 .1 0 .2.1.1 0 .1 0 .2.1.1 0 .1 0 .2.1.1 0 .1 0 .2.1.1 0 .1 0 .2.1.1 0 .1 0 .2.1 0 0 .1 0 .1.1.1 0 .1 0 .2.1.1 0 .1 0 .2.1.1 0 .1 0 .2.1.1 0 .1 0 .2.1.1 0 .1 0 .2.1.1 0 .1 0 .2.1.1 0 .1 0 .2.1l.1.1c.1 0 .1.1.2.1l.1.1.1.1.1.1.1.1.1.1.1.1.1.1.1.1.1.1.1.1.1.1.1.1.1.1.1.1.1.1.1.1.1.1.1.1.1.1.1.1.1.1.1.1.1.1.1.1.1.1.1.1.1.1s.1 0 .1.1l.1.1.1.1s.1 0 .1.1c0 0 .1 0 .1.1l.1.1.1.1.1.1.1.1.1.1h.1s0 .1.1.1l.1.1.1.1.1.1.1.1.1.1.1.1.1.1.1.1.1.1.1.1.1.1.1.1.1.1.1.1.1.1.1.1.1.1.1.1.1.1.1.1.1.1.1.1.1.1.1.1.1.1.1.1s0 .1.1.1c0 .1.1.1.1.2s.1.1.1.2.1.1.1.2.1.1.1.2.1.1.1.2.1.1.1.2.1.1.1.2.1.1.1.2.1.1.1.2c0 0 0 .1.1.1 0 .1.1.1.1.2s.1.1.1.2 0 .1.1.2c0 .1 0 .1.1.2 0 .1 0 .1.1.2 0 .1 0 .1.1.2 0 .1 0 .1.1.2 0 .1 0 .1.1.2 0 .1 0 .1.1.2 0 .1 0 .1.1.2 0 .1 0 .1.1.2 0 .1 0 .1.1.2 0 .1 0 .1.1.2 0 .1 0 .1.1.2 0 .1 0 .1.1.2 0 .1 0 .1.1.2 0 .1 0 .1.1.2 0 .1 0 .1.1.2v.8c.6-1.1.6-1 .6-.9z" fill="url(#SVGID_8_)"/><linearGradient id="SVGID_9_" gradientUnits="userSpaceOnUse" x1="306.113" y1="244.839" x2="323.658" y2="358.422"><stop offset="0" stop-color="#ff0059"/><stop offset="1" stop-color="#e27a2c"/></linearGradient><path d="M335.9 319.3V286c0-.4-.1-.8-.1-1.1v-2.6c-.1-.4-.1-.7-.2-1.1v-1.4c0-.1 0-.1-.1-.2 0-.1 0-.1-.1-.2 0-.1 0-.1-.1-.2 0-.1 0-.1-.1-.2 0-.1 0-.1-.1-.2-.1-.4-.2-.7-.3-1.1 0-.1 0-.1-.1-.2 0-.1 0-.1-.1-.2 0-.1 0-.1-.1-.2 0-.1 0-.1-.1-.2 0-.1 0-.1-.1-.2 0-.1 0-.1-.1-.2 0-.1 0-.1-.1-.2 0-.1 0-.1-.1-.2 0-.1 0-.1-.1-.2 0-.1 0-.1-.1-.2 0-.1 0-.1-.1-.2 0-.1 0-.1-.1-.2 0-.1 0-.1-.1-.2-.1-.4-.3-.7-.4-1 0-.1 0-.1-.1-.2 0-.1 0-.1-.1-.2 0-.1-.1-.1-.1-.2s-.1-.1-.1-.2-.1-.1-.1-.2-.1-.1-.1-.2-.1-.1-.1-.2-.1-.1-.1-.2-.1-.1-.1-.2-.1-.1-.1-.2-.1-.1-.1-.2-.1-.1-.1-.2-.1-.1-.1-.2-.1-.1-.1-.2c-.1-.3-.3-.7-.5-1 0-.1-.1-.1-.1-.2s-.1-.1-.1-.2-.1-.1-.1-.2-.1-.1-.1-.2-.1-.1-.1-.2-.1-.1-.1-.2-.1-.1-.1-.2-.1-.1-.1-.2-.1-.1-.1-.2-.1-.1-.1-.2-.1-.1-.1-.2-.1-.1-.1-.2-.1-.1-.1-.2l-.6-.9c0-.1-.1-.1-.1-.2s-.1-.1-.1-.2-.1-.1-.1-.2-.1-.1-.1-.2-.1-.1-.1-.2-.1-.1-.1-.2-.1-.1-.1-.2-.1-.1-.1-.2-.1-.1-.1-.2-.1-.1-.1-.2-.1-.1-.1-.2-.1-.1-.1-.2-.1-.1-.1-.2-.1-.1-.1-.2-.1-.1-.1-.2c-.2-.3-.4-.6-.7-.9 0-.1-.1-.1-.1-.2s-.1-.1-.1-.2c0 0-.1-.1-.1-.2s-.1-.1-.1-.2l-.1-.1-.1-.1-.1-.1-.1-.1-.1-.1-.1-.1-.1-.1-.1-.1-.1-.1-.1-.1-.1-.1c-.2-.3-.5-.6-.8-.8l-.1-.1-.1-.1-.1-.1-.1-.1-.1-.1-.1-.1h-.1s0-.1-.1-.1l-.1-.1-.1-.1-.1-.1-.1-.1s-.1 0-.1-.1l-.1-.1s-.1 0-.1-.1l-.1-.1-.1-.1-.1-.1-.1-.1-.1-.1c-.3-.3-.5-.5-.8-.7l-.1-.1-.1-.1-.1-.1-.1-.1-.1-.1-.1-.1-.1-.1c-.1 0-.1-.1-.2-.1s-.1-.1-.2-.1-.1-.1-.2-.1-.1-.1-.2-.1-.1-.1-.2-.1-.1-.1-.2-.1-.1-.1-.2-.1l-.1-.1c-.1 0-.1-.1-.2-.1l-.9-.6c-.1 0-.1-.1-.2-.1s-.1-.1-.2-.1-.1-.1-.2-.1-.1-.1-.2-.1-.1-.1-.2-.1-.1-.1-.2-.1-.1-.1-.2-.1-.1-.1-.2-.1-.1-.1-.2-.1-.1-.1-.2-.1-.1-.1-.2-.1-.1-.1-.2-.1-.1-.1-.2-.1-.1-.1-.2-.1-.1-.1-.2-.1-.1-.1-.2-.1-.1-.1-.2-.1c-.3-.2-.6-.4-.9-.5-.1 0-.1-.1-.2-.1s-.1-.1-.2-.1-.1-.1-.2-.1-.1-.1-.2-.1-.1-.1-.2-.1-.1-.1-.2-.1-.1-.1-.2-.1-.1-.1-.2-.1-.1-.1-.2-.1-.1-.1-.2-.1-.1-.1-.2-.1-.1-.1-.2-.1-.1-.1-.2-.1-.1 0-.2-.1c-.1 0-.1 0-.2-.1-.1 0-.1 0-.2-.1-.3-.2-.6-.3-.9-.4-.1 0-.1 0-.2-.1-.1 0-.1 0-.2-.1-.1 0-.1 0-.2-.1-.1 0-.1 0-.2-.1-.1 0-.1 0-.2-.1-.1 0-.1 0-.2-.1-.1 0-.1 0-.2-.1-.1 0-.1 0-.2-.1-.1 0-.1 0-.2-.1-.1 0-.1 0-.2-.1-.1 0-.1 0-.2-.1-.1 0-.1 0-.2-.1-.1 0-.1 0-.2-.1-.1 0-.1 0-.2-.1-.1 0-.1 0-.2-.1-.1 0-.1 0-.2-.1-.3-.1-.6-.2-1-.3-.1 0-.1 0-.2-.1-.1 0-.1 0-.2-.1h-2.6c-.3-.1-.7-.1-1-.2h-3c-.3 0-.7-.1-1-.1h-6.8c-.3 0-.7.1-1 .1h-2.6c-.3.1-.6.1-1 .2h-1.6c-.1 0-.1 0-.2.1-.1 0-.1 0-.2.1-.1 0-.1 0-.2.1-.1 0-.1 0-.2.1-.1 0-.1 0-.2.1-.1 0-.1 0-.2.1-.2 0-.3.1-.5.2h.1c.1 0 .1 0 .2.1.1 0 .1 0 .2.1.1 0 .1 0 .2.1.1 0 .1 0 .2.1.1 0 .1 0 .2.1.1 0 .1 0 .2.1.1 0 .1 0 .2.1.1 0 .1 0 .2.1.1 0 .1 0 .2.1.1 0 .1 0 .2.1.1 0 .1 0 .2.1.1 0 .1 0 .2.1.1 0 .1 0 .2.1.1 0 .1 0 .2.1.1 0 .1 0 .2.1.1 0 .1 0 .2.1.3.1.6.2.9.4.1 0 .1 0 .2.1.1 0 .1 0 .2.1.1 0 .1 0 .2.1.1 0 .1 0 .2.1.1 0 .1.1.2.1s.1.1.2.1.1.1.2.1.1.1.2.1.1.1.2.1.1.1.2.1.1.1.2.1.1.1.2.1.1.1.2.1.1.1.2.1.1.1.2.1.1.1.2.1c.3.2.6.3.9.5.1 0 .1.1.2.1s.1.1.2.1.1.1.2.1.1.1.2.1.1.1.2.1.1.1.2.1.1.1.2.1.1.1.2.1.1.1.2.1.1.1.2.1.1.1.2.1.1.1.2.1.1.1.2.1.1.1.2.1.1.1.2.1.1.1.2.1.1.1.2.1l.9.6c.1 0 .1.1.2.1s.1.1.2.1.1.1.2.1.1.1.2.1.1.1.2.1.1.1.2.1.1.1.2.1.1.1.2.1.1.1.2.1.1.1.1.1c.1 0 .1.1.1.1.1 0 .1.1.1.1.1 0 .1.1.1.1l.1.1c.1 0 .1.1.1.1l.1.1c.3.2.6.5.8.7l.1.1.1.1.1.1.1.1.1.1s.1 0 .1.1l.1.1s.1 0 .1.1l.1.1.1.1.1.1.1.1s0 .1.1.1h.1l.1.1.1.1.1.1.1.1.1.1.1.1.8.8.1.1.1.1.1.1.1.1.1.1.1.1.1.1.1.1.1.1.1.1.1.1s.1.1.1.2c0 0 .1.1.1.2 0 0 .1.1.1.2 0 0 .1.1.1.2.2.3.5.6.7.9 0 .1.1.1.1.2s.1.1.1.2.1.1.1.2.1.1.1.2.1.1.1.2.1.1.1.2.1.1.1.2.1.1.1.2.1.1.1.2.1.1.1.2.1.1.1.2.1.1.1.2.1.1.1.2.1.1.1.2.1.1.1.2l.6.9c0 .1.1.1.1.2s.1.1.1.2.1.1.1.2.1.1.1.2.1.1.1.2.1.1.1.2.1.1.1.2.1.1.1.2.1.1.1.2.1.1.1.2.1.1.1.2.1.1.1.2v.1s0 .1.1.1c.2.3.3.7.5 1 0 .1.1.1.1.2s.1.1.1.2.1.1.1.2.1.1.1.2.1.1.1.2.1.1.1.2.1.1.1.2.1.1.1.2.1.1.1.2.1.1.1.2.1.1.1.2.1.1.1.2.1.1.1.2 0 .1.1.2c.2.3.3.7.4 1 0 .1.1.1.1.2s0 .1.1.2c0 .1 0 .1.1.2 0 .1 0 .1.1.2 0 .1 0 .1.1.2 0 .1 0 .1.1.2 0 .1 0 .1.1.2 0 .1 0 .1.1.2 0 .1 0 .1.1.2 0 .1 0 .1.1.2 0 .1 0 .1.1.2 0 .1 0 .1.1.2 0 .1 0 .1.1.2.1.4.2.7.3 1.1 0 .1 0 .1.1.2 0 .1 0 .1.1.2 0 .1 0 .1.1.2 0 .1 0 .1.1.2 0 .1 0 .1.1.2v1.4c.1.4.2.7.2 1.1v37.9c-.1 1.3.1 2.6.4 3.8.6 2.2 1.7 4.3 3.4 5.9 4.7 4.5 12 4.1 16.2-1 2.8-3.5 3.8-6.7 3.6-9.9z" fill="url(#SVGID_9_)"/><linearGradient id="SVGID_10_" gradientUnits="userSpaceOnUse" x1="288.96" y1="247.482" x2="306.506" y2="361.065"><stop offset="0" stop-color="#db0093"/><stop offset=".005" stop-color="#da0093" stop-opacity="0"/><stop offset="1" stop-color="#554b9b"/></linearGradient><path d="M322.6 319.4v-32.9c0-10.7-8-22.9-22.6-24.8-7.2-.9-13-.2-19.8 4.5-6.8 4.7-18.4 17.5-9 35.9 7.3 14.4 23.7 14.2 23.7 14.2V293s-.3-6.9 2.3-7.4c-.3-.1-.5-.1-.8-.1-2-.2-4 .4-5.6 1.6-.4.3-.8.7-1.2 1.1-.3.3-.5.6-.7.9-.9 1.3-1.3 2.8-1.4 4.3v14.8c-.1 0-.1-.1-.2-.1s-.1-.1-.1-.1-.1 0-.1-.1c0 0-.1 0-.1-.1l-.1-.1-.1-.1-.1-.1-.1-.1-.1-.1-.1-.1-.1-.1s-.1 0-.1-.1l-.1-.1-.1-.1-.1-.1-.1-.1-.1-.1-.1-.1-.1-.1-.1-.1s-.1 0-.1-.1l-.1-.1-.1-.1s-.1 0-.1-.1c0 0-.1 0-.1-.1l-.1-.1-.1-.1-.1-.1h-.1s0-.1-.1-.1l-.1-.1-.1-.1-.1-.1-.1-.1-.1-.1-.1-.1-.1-.1-.1-.1-.1-.1-.1-.1-.1-.1-.1-.1s0-.1-.1-.1l-.1-.1-.1-.1-.1-.1s0-.1-.1-.1l-.1-.1-.1-.1-.1-.1-.1-.1-.1-.1-.1-.1s0-.1-.1-.1l-.1-.1-.1-.1-.1-.1-.1-.1-.1-.1-.1-.1-.1-.1-.1-.1-.1-.1-.1-.1s0-.1-.1-.1c0 0 0-.1-.1-.1 0-.1-.1-.1-.1-.2s0-.1-.1-.2c0-.1 0-.1-.1-.2 0-.1 0-.1-.1-.2 0-.1 0-.1-.1-.2 0-.1 0-.1-.1-.2 0-.1 0-.1-.1-.2 0-.1 0-.1-.1-.2 0-.1 0-.1-.1-.2 0-.1 0-.1-.1-.2v-.1c0-.1 0-.1-.1-.2 0-.1 0-.1-.1-.2 0-.1 0-.1-.1-.2 0-.1 0-.1-.1-.2 0-.1 0-.1-.1-.2 0-.1 0-.1-.1-.2 0-.1 0-.1-.1-.2 0-.1 0-.1-.1-.2 0-.1 0-.1-.1-.2 0-.1 0-.1-.1-.2 0-.1 0-.1-.1-.2v-13.8c0-.1 0-.1.1-.2 0-.1 0-.1.1-.2 0-.1 0-.1.1-.2 0-.1 0-.1.1-.2 0-.1 0-.1.1-.2 0-.1 0-.1.1-.2 0-.1 0-.1.1-.2 0-.1 0-.1.1-.2 0 0 0-.1.1-.1v-.1c0-.1 0-.1.1-.2 0-.1 0-.1.1-.2 0-.1 0-.1.1-.2 0-.1 0-.1.1-.2 0-.1 0-.1.1-.2 0-.1 0-.1.1-.2 0-.1 0-.1.1-.2 0-.1.1-.1.1-.2s.1-.1.1-.2v-.1l.1-.1c0-.1.1-.1.1-.2s.1-.1.1-.2.1-.1.1-.2.1-.1.1-.2.1-.1.1-.2.1-.1.1-.2.1-.1.1-.2.1-.1.1-.2c0 0 0-.1.1-.1l.1-.1.1-.1.1-.1.1-.1.1-.1.1-.1.1-.1.1-.1.1-.1.1-.1.1-.1.1-.1s0-.1.1-.1c0 0 0-.1.1-.1v-.1s0-.1.1-.1l.1-.1.1-.1.1-.1.1-.1.1-.1v-.1l.1-.1.1-.1.1-.1.1-.1.1-.1.1-.1.1-.1.1-.1.1-.1.1-.1.1-.1.1-.1.1-.1.1-.1.1-.1.1-.1.1-.1.1-.1.1-.1.1-.1.1-.1.1-.1s.1 0 .1-.1l.1-.1.1-.1.1-.1.1-.1.1-.1.1-.1.1-.1.1-.1.1-.1h.1c.1 0 .1-.1.1-.1.1 0 .1-.1.1-.1.1 0 .1-.1.2-.1s.1 0 .2-.1c.1 0 .1 0 .2-.1.1 0 .1 0 .2-.1.1 0 .1 0 .2-.1.1 0 .1 0 .2-.1h.1s.1 0 .1-.1c.1 0 .1 0 .2-.1.1 0 .1 0 .2-.1.1 0 .1 0 .2-.1.1 0 .1 0 .2-.1.1 0 .1 0 .2-.1.1 0 .1 0 .2-.1.1 0 .1 0 .2-.1.1 0 .1 0 .2-.1h12c.1 0 .1 0 .2.1.1 0 .1 0 .2.1.1 0 .1 0 .2.1.1 0 .1 0 .2.1.1 0 .1 0 .2.1.1 0 .1 0 .2.1.1 0 .1 0 .2.1.1 0 .1 0 .2.1.1 0 .1 0 .2.1.1 0 .1 0 .2.1.1 0 .1 0 .2.1 0 0 .1 0 .1.1.1 0 .1 0 .2.1.1 0 .1 0 .2.1.1 0 .1 0 .2.1.1 0 .1 0 .2.1.1 0 .1 0 .2.1.1 0 .1 0 .2.1.1 0 .1 0 .2.1l.1.1c.1 0 .1.1.2.1l.1.1.1.1.1.1.1.1.1.1.1.1.1.1.1.1.1.1.1.1.1.1.1.1.1.1.1.1.1.1.1.1.1.1.1.1.1.1.1.1.1.1.1.1.1.1.1.1.1.1.1.1.1.1s.1 0 .1.1l.1.1.1.1s.1 0 .1.1c0 0 .1 0 .1.1l.1.1.1.1.1.1.1.1.1.1h.1s0 .1.1.1l.1.1.1.1.1.1.1.1.1.1.1.1.1.1.1.1.1.1.1.1.1.1.1.1.1.1.1.1.1.1.1.1.1.1.1.1.1.1.1.1.1.1.1.1.1.1.1.1.1.1.1.1s0 .1.1.1c0 .1.1.1.1.2s.1.1.1.2.1.1.1.2.1.1.1.2.1.1.1.2.1.1.1.2.1.1.1.2.1.1.1.2.1.1.1.2c0 0 0 .1.1.1 0 .1.1.1.1.2s.1.1.1.2 0 .1.1.2c0 .1 0 .1.1.2 0 .1 0 .1.1.2 0 .1 0 .1.1.2 0 .1 0 .1.1.2 0 .1 0 .1.1.2 0 .1 0 .1.1.2 0 .1 0 .1.1.2 0 .1 0 .1.1.2 0 .1 0 .1.1.2 0 .1 0 .1.1.2 0 .1 0 .1.1.2 0 .1 0 .1.1.2 0 .1 0 .1.1.2 0 .1 0 .1.1.2 0 .1 0 .1.1.2v1.4c.1.4.1.8.1 1.1v33.5c-.1 1.3.1 2.6.4 3.8.6 2.2 1.7 4.3 3.4 5.9.7.6 1.4 1.2 2.1 1.6 1.2-4.6 1.2-13 1.2-13zm-28-3.2h.2c-.1.1-.2 0-.2 0h-.2.2zm-1.1-.2c.1 0 .1 0 0 0 .1 0 .1 0 0 0s-.1 0-.2-.1c.1.1.2.1.2.1zm-1-.3c.1 0 .1 0 .2.1 0 0-.1-.1-.2-.1s-.1 0-.2-.1c.1.1.2.1.2.1zm-3-1.2s.1 0 .1.1c0-.1 0-.1-.1-.1s-.1-.1-.2-.1c.1 0 .2.1.2.1zm-1.1-.6c.1 0 .1.1.2.1-.1-.1-.1-.1-.2-.1 0 0-.1-.1 0 0-.1-.1 0 0 0 0zm-2.4-1.7c.1 0 .1.1.2.1 0 0-.1 0-.2-.1 0 0 0-.1 0 0 0-.1 0 0 0 0zm-2-1.9s-.1-.1 0 0c-.1-.1 0 0 0 0zm-1.4-1.6s0 .1 0 0c0 .1 0 0 0 0 0-.1-.1-.1-.1-.2 0 .1 0 .2.1.2zm-1.9-2.7c.1.1.1.1 0 0 .1.1.1.1 0 0 0-.1-.1-.1-.1-.2.1.1.1.2.1.2zm-.7-1.3c0 .1.1.1.1.2 0-.1 0-.1-.1-.2 0-.1-.1-.1-.1-.2.1.1.1.1.1.2zm-1.4-3.6c0 .1 0 .1.1.2-.1-.1-.1-.2-.1-.2 0-.1 0-.1-.1-.2 0 0 .1.1.1.2zm-1-4.7v-.2.2z" opacity=".78" fill="url(#SVGID_10_)"/><linearGradient id="SVGID_11_" gradientUnits="userSpaceOnUse" x1="59.145" y1="48.127" x2="96.163" y2="48.127"><stop offset="0" stop-color="#90145a"/><stop offset=".256" stop-color="#a81d58" stop-opacity=".992"/><stop offset=".794" stop-color="#e63452" stop-opacity=".976"/><stop offset="1" stop-color="#ff3e4f" stop-opacity=".97"/></linearGradient><path fill="url(#SVGID_11_)" d="M88.1 80.1l8.1-14.5-28.5-49.5-8.6 14.8z"/><linearGradient id="SVGID_12_" gradientUnits="userSpaceOnUse" x1="51.935" y1="55.058" x2="88.101" y2="55.058"><stop offset="0" stop-color="#90145a"/><stop offset=".256" stop-color="#a81d58" stop-opacity=".992"/><stop offset=".794" stop-color="#e63452" stop-opacity=".976"/><stop offset="1" stop-color="#ff3e4f" stop-opacity=".97"/></linearGradient><path fill="url(#SVGID_12_)" d="M88.1 80.1H82L51.9 30l7.2.9z"/><linearGradient id="SVGID_13_" gradientUnits="userSpaceOnUse" x1="51.935" y1="23.478" x2="67.677" y2="23.478"><stop offset="0" stop-color="#90145a"/><stop offset=".256" stop-color="#a81d58" stop-opacity=".992"/><stop offset=".794" stop-color="#e63452" stop-opacity=".976"/><stop offset="1" stop-color="#ff3e4f" stop-opacity=".97"/></linearGradient><path fill="url(#SVGID_13_)" d="M51.9 30l8.6-13.9h7.2l-8.6 14.8z"/><linearGradient id="SVGID_14_" gradientUnits="userSpaceOnUse" y1="74.108" x2="75.512" y2="74.108"><stop offset="0" stop-color="#90145a"/><stop offset=".256" stop-color="#a81d58" stop-opacity=".992"/><stop offset=".794" stop-color="#e63452" stop-opacity=".976"/><stop offset="1" stop-color="#ff3e4f" stop-opacity=".97"/></linearGradient><path fill="url(#SVGID_14_)" d="M0 66.6l7.1 14.8 68.4.2-8.1-14.9z"/><linearGradient id="SVGID_15_" gradientUnits="userSpaceOnUse" y1="62.941" x2="67.357" y2="62.941"><stop offset="0" stop-color="#90145a"/><stop offset=".256" stop-color="#a81d58" stop-opacity=".992"/><stop offset=".794" stop-color="#e63452" stop-opacity=".976"/><stop offset="1" stop-color="#ff3e4f" stop-opacity=".97"/></linearGradient><path fill="url(#SVGID_15_)" d="M0 66.6l3.8-7.4 58.3.2 5.3 7.3z"/><linearGradient id="SVGID_16_" gradientUnits="userSpaceOnUse" x1="15.614" y1="55.653" x2="26.042" y2="34.123"><stop offset="0" stop-color="#90145a"/><stop offset=".256" stop-color="#a81d58" stop-opacity=".992"/><stop offset=".794" stop-color="#e63452" stop-opacity=".976"/><stop offset="1" stop-color="#ff3e4f" stop-opacity=".97"/></linearGradient><path fill="url(#SVGID_16_)" d="M23.6 49.9H7.8L36.7 0l16.4.2z"/><linearGradient id="SVGID_17_" gradientUnits="userSpaceOnUse" x1="27.741" y1="53.663" x2="37.056" y2="34.432"><stop offset="0" stop-color="#90145a"/><stop offset=".256" stop-color="#a81d58" stop-opacity=".992"/><stop offset=".794" stop-color="#e63452" stop-opacity=".976"/><stop offset="1" stop-color="#ff3e4f" stop-opacity=".97"/></linearGradient><path fill="url(#SVGID_17_)" d="M23.6 49.9l8.2-2.4L57.4 4.9 53.1.2z"/><linearGradient id="SVGID_18_" gradientUnits="userSpaceOnUse" x1="59.386" y1="48.023" x2="96.404" y2="48.023"><stop offset="0" stop-color="#90145a"/><stop offset=".391" stop-color="#a82856" stop-opacity=".609"/><stop offset="1" stop-color="#d54c4f" stop-opacity="0"/></linearGradient><path fill="url(#SVGID_18_)" d="M88.3 80l8.1-14.5L67.9 16l-8.5 14.8z"/><linearGradient id="SVGID_19_" gradientUnits="userSpaceOnUse" x1="52.176" y1="54.954" x2="88.342" y2="54.954"><stop offset="0" stop-color="#90145a"/><stop offset=".391" stop-color="#a82856" stop-opacity=".609"/><stop offset="1" stop-color="#d54c4f" stop-opacity="0"/></linearGradient><path fill="url(#SVGID_19_)" d="M88.3 80h-6L52.2 29.9l7.2.9z"/><linearGradient id="SVGID_20_" gradientUnits="userSpaceOnUse" x1="52.176" y1="23.374" x2="67.918" y2="23.374"><stop offset="0" stop-color="#90145a"/><stop offset=".391" stop-color="#a82856" stop-opacity=".609"/><stop offset="1" stop-color="#d54c4f" stop-opacity="0"/></linearGradient><path fill="url(#SVGID_20_)" d="M52.2 29.9L60.8 16h7.1l-8.5 14.8z"/><linearGradient id="SVGID_21_" gradientUnits="userSpaceOnUse" x1=".241" y1="74.023" x2="75.753" y2="74.023"><stop offset="0" stop-color="#90145a"/><stop offset=".391" stop-color="#a82856" stop-opacity=".609"/><stop offset="1" stop-color="#d54c4f" stop-opacity="0"/></linearGradient><path fill="url(#SVGID_21_)" d="M.2 66.5l7.1 14.8 68.5.2-8.2-14.9z"/><linearGradient id="SVGID_22_" gradientUnits="userSpaceOnUse" x1=".241" y1="62.856" x2="67.597" y2="62.856"><stop offset="0" stop-color="#90145a"/><stop offset=".391" stop-color="#a82856" stop-opacity=".609"/><stop offset="1" stop-color="#d54c4f" stop-opacity="0"/></linearGradient><path fill="url(#SVGID_22_)" d="M.2 66.6L4 59.1l58.3.2 5.3 7.3z"/><linearGradient id="SVGID_23_" gradientUnits="userSpaceOnUse" x1="15.855" y1="55.65" x2="26.283" y2="34.121"><stop offset="0" stop-color="#90145a"/><stop offset=".391" stop-color="#a82856" stop-opacity=".609"/><stop offset="1" stop-color="#d54c4f" stop-opacity="0"/></linearGradient><path fill="url(#SVGID_23_)" d="M23.8 49.9H8L36.9 0l16.5.2z"/><linearGradient id="SVGID_24_" gradientUnits="userSpaceOnUse" x1="27.982" y1="53.66" x2="37.297" y2="34.429"><stop offset="0" stop-color="#90145a"/><stop offset=".391" stop-color="#a82856" stop-opacity=".609"/><stop offset="1" stop-color="#d54c4f" stop-opacity="0"/></linearGradient><path fill="url(#SVGID_24_)" d="M23.8 49.9l8.3-2.4L57.6 4.9 53.4.2z"/><linearGradient id="SVGID_25_" gradientUnits="userSpaceOnUse" x1="18.521" y1="282.921" x2="45.728" y2="315.647"><stop offset="0" stop-color="#34d66b"/><stop offset=".079" stop-color="#27ca6b" stop-opacity=".998"/><stop offset=".247" stop-color="#12b56c" stop-opacity=".995"/><stop offset=".411" stop-color="#05a96c" stop-opacity=".991"/><stop offset=".565" stop-color="#01a56c" stop-opacity=".987"/><stop offset=".968" stop-color="#002e4f" stop-opacity=".97"/></linearGradient><path fill="url(#SVGID_25_)" d="M18.6 257.6L7.5 278.8l30.5 53h24.8z"/><linearGradient id="SVGID_26_" gradientUnits="userSpaceOnUse" x1="35.675" y1="278.809" x2="35.675" y2="278.809"><stop offset=".005" stop-color="#01b89d"/><stop offset=".335" stop-color="#01958e" stop-opacity=".99"/><stop offset="1" stop-color="#00466a" stop-opacity=".97"/></linearGradient><linearGradient id="SVGID_27_" gradientUnits="userSpaceOnUse" x1="89.727" y1="285.752" x2="56.965" y2="267.07"><stop offset="0" stop-color="#222961"/><stop offset=".113" stop-color="#203262" stop-opacity=".997"/><stop offset=".295" stop-color="#1c4a63" stop-opacity=".991"/><stop offset=".523" stop-color="#147065" stop-opacity=".984"/><stop offset=".786" stop-color="#0aa668" stop-opacity=".976"/><stop offset="1" stop-color="#00d66b" stop-opacity=".97"/></linearGradient><path fill-rule="evenodd" clip-rule="evenodd" fill="url(#SVGID_27_)" d="M38 278.8l10-21.2 32.6.4 12.8 20.7z"/><linearGradient id="SVGID_28_" gradientUnits="userSpaceOnUse" x1="39.502" y1="260.359" x2="112.822" y2="290.16"><stop offset="0" stop-color="#222961" stop-opacity="0"/><stop offset=".132" stop-color="#20325f" stop-opacity=".128"/><stop offset=".344" stop-color="#1a495a" stop-opacity=".334"/><stop offset=".61" stop-color="#117053" stop-opacity=".592"/><stop offset=".918" stop-color="#04a648" stop-opacity=".89"/><stop offset="1" stop-color="#00b545" stop-opacity=".97"/></linearGradient><path fill-rule="evenodd" clip-rule="evenodd" fill="url(#SVGID_28_)" d="M38 278.8l10-21.2 32.6.4 12.8 20.7z"/><linearGradient id="SVGID_29_" gradientUnits="userSpaceOnUse" x1="88.458" y1="268.925" x2="46.423" y2="334.17"><stop offset=".005" stop-color="#01c270"/><stop offset=".435" stop-color="#019567"/><stop offset="1" stop-color="#00555b"/></linearGradient><path fill="url(#SVGID_29_)" d="M38 331.8h24.8l30.6-53.1L80.6 258"/><linearGradient id="SVGID_30_" gradientUnits="userSpaceOnUse" x1="76.976" y1="257.711" x2="62.352" y2="280.409"><stop offset="0" stop-color="#222961"/><stop offset=".371" stop-color="#222b61" stop-opacity=".629"/><stop offset=".519" stop-color="#203263" stop-opacity=".481"/><stop offset=".628" stop-color="#1e3e65" stop-opacity=".372"/><stop offset=".717" stop-color="#1a5067" stop-opacity=".283"/><stop offset=".794" stop-color="#16666b" stop-opacity=".206"/><stop offset=".863" stop-color="#108270" stop-opacity=".137"/><stop offset=".926" stop-color="#0aa376" stop-opacity=".074"/><stop offset=".983" stop-color="#03c97c" stop-opacity=".017"/><stop offset="1" stop-color="#00d67e" stop-opacity="0"/></linearGradient><path d="M80.6 258c-1 .7-22.5 20.7-22.5 20.7h10.5l12-20.7z" opacity=".63" fill="url(#SVGID_30_)"/><linearGradient id="SVGID_31_" gradientUnits="userSpaceOnUse" x1="51.58" y1="288.685" x2="41.114" y2="329.051"><stop offset=".01" stop-color="#01c49d" stop-opacity="0"/><stop offset=".075" stop-color="#05af93" stop-opacity=".063"/><stop offset=".227" stop-color="#0d837e" stop-opacity=".213"/><stop offset=".382" stop-color="#145f6d" stop-opacity=".365"/><stop offset=".537" stop-color="#194360" stop-opacity=".516"/><stop offset=".691" stop-color="#1d2f57" stop-opacity=".667"/><stop offset=".845" stop-color="#1f2351" stop-opacity=".819"/><stop offset="1" stop-color="#201f4f" stop-opacity=".97"/></linearGradient><path opacity=".65" fill-rule="evenodd" clip-rule="evenodd" fill="url(#SVGID_31_)" d="M38 331.8l6.1-31.3 6.1 10.2z"/><linearGradient id="SVGID_32_" gradientUnits="userSpaceOnUse" x1="84.469" y1="303.119" x2="43.454" y2="289.757"><stop offset=".01" stop-color="#01c49d" stop-opacity="0"/><stop offset=".213" stop-color="#169b91" stop-opacity=".197"/><stop offset=".59" stop-color="#3a547b" stop-opacity=".563"/><stop offset=".863" stop-color="#50286e" stop-opacity=".827"/><stop offset="1" stop-color="#591769" stop-opacity=".96"/></linearGradient><path fill="url(#SVGID_32_)" d="M38 331.8h24.8l30.6-53.1L80.6 258"/></g></svg>