<svg xmlns="http://www.w3.org/2000/svg" viewBox="0 0 84.9 86.4"><style/><g id="Objects"><linearGradient id="SVGID_1_" gradientUnits="userSpaceOnUse" x1="48.99" y1="23.399" x2="73.161" y2="56.14"><stop offset="0" stop-color="#00d47e"/><stop offset=".142" stop-color="#02d484" stop-opacity=".996"/><stop offset=".337" stop-color="#08d696" stop-opacity=".99"/><stop offset=".564" stop-color="#11d8b3" stop-opacity=".983"/><stop offset=".812" stop-color="#1edbdb" stop-opacity=".976"/><stop offset="1" stop-color="#2adeff" stop-opacity=".97"/></linearGradient><path d="M74.3 59.8c-9.8 0-17.8-8-17.8-17.8V31.5c9.8 0 17.8 8 17.8 17.8v10.5z" fill="url(#SVGID_1_)"/><linearGradient id="SVGID_2_" gradientUnits="userSpaceOnUse" x1="43.032" y1="55.585" x2="80.987" y2="6.011"><stop offset="0" stop-color="#00bc7e"/><stop offset=".218" stop-color="#00bc7f"/><stop offset=".393" stop-color="#01bd82" stop-opacity=".993"/><stop offset=".529" stop-color="#04bf8c" stop-opacity=".988"/><stop offset=".651" stop-color="#0ac49c" stop-opacity=".983"/><stop offset=".765" stop-color="#11cab3" stop-opacity=".979"/><stop offset=".874" stop-color="#1bd2d1" stop-opacity=".975"/><stop offset=".977" stop-color="#27dcf6" stop-opacity=".971"/><stop offset="1" stop-color="#2adeff" stop-opacity=".97"/></linearGradient><path d="M84.9 10.6c0 9.8-8 17.8-17.8 17.8H56.5c0-9.8 8-17.8 17.8-17.8h10.6z" fill="url(#SVGID_2_)"/><linearGradient id="SVGID_3_" gradientUnits="userSpaceOnUse" x1="57.054" y1="38.088" x2="24.878" y2="-23.151"><stop offset=".005" stop-color="#00bc7e"/><stop offset=".143" stop-color="#02be85" stop-opacity=".996"/><stop offset=".351" stop-color="#09c39a" stop-opacity=".99"/><stop offset=".603" stop-color="#14ccbc" stop-opacity=".982"/><stop offset=".887" stop-color="#23d9ea" stop-opacity=".973"/><stop offset="1" stop-color="#2adeff" stop-opacity=".97"/></linearGradient><path d="M35.6 0c9.8 0 17.8 8 17.8 17.8v10.6c-9.8 0-17.8-8-17.8-17.8V0z" fill="url(#SVGID_3_)"/><linearGradient id="SVGID_4_" gradientUnits="userSpaceOnUse" x1="16.429" y1="4.991" x2="48.707" y2="90.13"><stop offset="0" stop-color="#90145a"/><stop offset=".15" stop-color="#842c6e" stop-opacity=".996"/><stop offset=".468" stop-color="#646aa1" stop-opacity=".986"/><stop offset=".925" stop-color="#33cdf1" stop-opacity=".972"/><stop offset="1" stop-color="#2adeff" stop-opacity=".97"/></linearGradient><path d="M17.7 59.7c-6.9 3.6-2.4 26.8 14.1 26.7 11.9-.1 21.5-9.6 21.5-21.5V31.5c-9.8 0-17.8 8-17.8 17.8v10.5c0 4.9-4 8.9-8.9 8.9s-8.9-4-8.9-9" fill="url(#SVGID_4_)"/><linearGradient id="SVGID_5_" gradientUnits="userSpaceOnUse" x1="18.694" y1="9.006" x2="43.545" y2="56.832"><stop offset="0" stop-color="#90145a"/><stop offset=".15" stop-color="#842c6e" stop-opacity=".996"/><stop offset=".468" stop-color="#646aa1" stop-opacity=".986"/><stop offset=".925" stop-color="#33cdf1" stop-opacity=".972"/><stop offset="1" stop-color="#2adeff" stop-opacity=".97"/></linearGradient><path d="M26.7 68.7c5.3-.1 8.8-4.6 8.8-8.8V49.1c0-9.8 8.1-17.5 17.9-17.5v10.3c0 25.9-26.7 26.8-26.7 26.8z" fill="url(#SVGID_5_)"/><linearGradient id="SVGID_6_" gradientUnits="userSpaceOnUse" x1="-5.815" y1="6.816" x2="41.677" y2="127.874"><stop offset="0" stop-color="#90145a"/><stop offset=".15" stop-color="#842c6e" stop-opacity=".996"/><stop offset=".468" stop-color="#646aa1" stop-opacity=".986"/><stop offset=".925" stop-color="#33cdf1" stop-opacity=".972"/><stop offset="1" stop-color="#2adeff" stop-opacity=".97"/></linearGradient><path d="M31.2 86.2C16.8 84 17.8 59.7 17.8 59.7V23.1c0-9.8-8-17.8-17.8-17.8v59.6c0 11.9 9.8 21.5 21.5 21.5h11.1c.1 0-.3-.1-1.4-.2z" fill="url(#SVGID_6_)"/><path d="M51 291.1c.1.4.1.8.1 1.1v-1.5c0 .6-.1.5-.1.4.1 0 0-.1 0-.1v-.3.4z" fill="none"/><linearGradient id="SVGID_7_" gradientUnits="userSpaceOnUse" x1="39.357" y1="290.255" x2="19.739" y2="320.668"><stop offset=".158" stop-color="#686f9f"/><stop offset=".288" stop-color="#6a67a3"/><stop offset=".491" stop-color="#7051ae"/><stop offset=".742" stop-color="#792cc1"/><stop offset="1" stop-color="#8400d7"/></linearGradient><path d="M42.4 319.9v-24c-.1-2.1-1-4.2-2.7-5.8-1.3-1.2-3-1.9-4.7-2-2-.2-4 .4-5.6 1.6-.4.3-.8.7-1.2 1.1-.3.3-.5.6-.7.9-.9 1.3-1.3 2.8-1.4 4.3v14.8c-.1 0-.1-.1-.2-.1s-.1-.1-.1-.1-.1 0-.1-.1c0 0-.1 0-.1-.1l-.1-.1-.1-.1-.1-.1-.1-.1-.1-.1-.1-.1-.1-.1s-.1 0-.1-.1l-.1-.1-.1-.1-.1-.1-.1-.1-.1-.1-.1-.1-.1-.1-.1-.1s-.1 0-.1-.1l-.1-.1-.1-.1s-.1 0-.1-.1c0 0-.1 0-.1-.1l-.1-.1-.1-.1-.1-.1h-.1s0-.1-.1-.1l-.1-.1-.1-.1-.1-.1-.1-.1-.1-.1-.1-.1-.1-.1-.1-.1-.1-.1-.1-.1-.1-.1-.1-.1s0-.1-.1-.1l-.1-.1-.1-.1-.1-.1s0-.1-.1-.1l-.1-.1-.1-.1-.1-.1-.1-.1-.1-.1-.1-.1s0-.1-.1-.1l-.1-.1-.1-.1-.1-.1-.1-.1-.1-.1-.1-.1-.1-.1-.1-.1-.1-.1-.1-.1s0-.1-.1-.1c0 0 0-.1-.1-.1 0-.1-.1-.1-.1-.2s0-.1-.1-.2c0-.1 0-.1-.1-.2 0-.1 0-.1-.1-.2 0-.1 0-.1-.1-.2 0-.1 0-.1-.1-.2 0-.1 0-.1-.1-.2 0-.1 0-.1-.1-.2 0-.1 0-.1-.1-.2 0-.1 0-.1-.1-.2v-.1c0-.1 0-.1-.1-.2 0-.1 0-.1-.1-.2 0-.1 0-.1-.1-.2 0-.1 0-.1-.1-.2 0-.1 0-.1-.1-.2 0-.1 0-.1-.1-.2 0-.1 0-.1-.1-.2 0-.1 0-.1-.1-.2 0-.1 0-.1-.1-.2 0-.1 0-.1-.1-.2 0-.1 0-.1-.1-.2v-10.9.1c0 .1 0 .1-.1.2v12.4c0 .1 0 .1.1.2 0 .1 0 .1.1.2 0 .1 0 .1.1.2 0 .1 0 .1.1.2 0 .1 0 .1.1.2 0 .1 0 .1.1.2 0 .1 0 .1.1.2 0 .1 0 .1.1.2 0 .1 0 .1.1.2 0 .1 0 .1.1.2v.1c0 .1 0 .1.1.2 0 .1.1.1.1.2s.1.1.1.2.1.1.1.2.1.1.1.2.1.1.1.2.1.1.1.2.1.1.1.2.1.1.1.2.1.1.1.2c0 0 0 .1.1.1 0 .1.1.1.1.2s.1.1.1.2.1.1.1.2.1.1.1.2.1.1.1.2.1.1.1.2.1.1.1.2.1.1.1.2.1.1.1.2c0 0 0 .1.1.1 0 .1.1.1.1.2s.1.1.1.2.1.1.1.2.1.1.1.2.1.1.1.2.1.1.1.2.1.1.1.2.1.1.1.2.1.1.1.2c0 0 0 .1.1.1 0 0 0 .1.1.1v.1c0 .1.1.1.1.2s.1.1.1.2.1.1.1.2.1.1.1.2.1.1.1.2.1.1.1.2.1.1.1.2.1.1.1.2.1.1.1.2l.1.1.1.1.1.1h.1l.1.1.1.1.1.1s.1 0 .1.1c0 0 0 .1.1.1l.1.1s0 .1.1.1l.1.1.1.1.1.1.1.1.1.1.1.1.1.1c.1 0 .1.1.2.2.1 0 .1.1.2.2.1 0 .1.1.2.1s.1.1.2.1.1.1.2.1.1.1.2.1.1.1.2.1.1.1.2.1.1.1.2.1l.1.1c.1 0 .1.1.2.1s.1.1.2.1.1.1.2.1.1.1.2.1.1.1.2.1.1.1.2.1.1.1.2.1.1.1.2.1c0 0 .1 0 .1.1.1 0 .1.1.2.1s.1.1.2.1.1.1.2.1.1.1.2.1.1.1.2.1.1.1.2.1.1.1.2.1.1.1.2.1.1.1.2.1h.1c.1 0 .1.1.2.1s.1.1.2.1.1.1.2.1.1.1.2.1.1 0 .2.1c.1 0 .1.1.2.1s.1 0 .2.1c.1 0 .1 0 .2.1h.1c.1 0 .1 0 .2.1.1 0 .1 0 .2.1.1 0 .1 0 .2.1.1 0 .1 0 .2.1.1 0 .1 0 .2.1.1 0 .1 0 .2.1.1 0 .1 0 .2.1.1 0 .1 0 .2.1.1 0 .1 0 .2.1h9.8c.1 0 .1 0 .2-.1.1 0 .1 0 .2-.1.1 0 .1 0 .2-.1h.1c-1.2 2.1-1.2 2-1.2 2z" fill="url(#SVGID_7_)"/><linearGradient id="SVGID_8_" gradientUnits="userSpaceOnUse" x1="13.156" y1="316.987" x2="30.514" y2="283.036"><stop offset=".048" stop-color="#846fde"/><stop offset=".229" stop-color="#8c60d0"/><stop offset=".581" stop-color="#a137ab"/><stop offset=".995" stop-color="#bd0079"/></linearGradient><path d="M50.9 290.7v-2.2c-.1-.4-.1-.7-.2-1.1V286c0-.1 0-.1-.1-.2 0-.1 0-.1-.1-.2 0-.1 0-.1-.1-.2 0-.1 0-.1-.1-.2 0-.1 0-.1-.1-.2-.1-.4-.2-.7-.3-1.1 0-.1 0-.1-.1-.2 0-.1 0-.1-.1-.2 0-.1 0-.1-.1-.2 0-.1 0-.1-.1-.2 0-.1 0-.1-.1-.2 0-.1 0-.1-.1-.2 0-.1 0-.1-.1-.2 0-.1 0-.1-.1-.2 0-.1 0-.1-.1-.2 0-.1 0-.1-.1-.2 0-.1 0-.1-.1-.2 0-.1 0-.1-.1-.2 0-.1 0-.1-.1-.2-.1-.4-.3-.7-.4-1 0-.1 0-.1-.1-.2 0-.1 0-.1-.1-.2 0-.1-.1-.1-.1-.2s-.1-.1-.1-.2-.1-.1-.1-.2-.1-.1-.1-.2-.1-.1-.1-.2-.1-.1-.1-.2-.1-.1-.1-.2-.1-.1-.1-.2-.1-.1-.1-.2-.1-.1-.1-.2-.1-.1-.1-.2-.1-.1-.1-.2c-.1-.3-.3-.7-.5-1 0 0 0-.1-.1-.1v-.1c0-.1-.1-.1-.1-.2s-.1-.1-.1-.2-.1-.1-.1-.2-.1-.1-.1-.2-.1-.1-.1-.2-.1-.1-.1-.2-.1-.1-.1-.2-.1-.1-.1-.2-.1-.1-.1-.2-.1-.1-.1-.2-.1-.1-.1-.2-.1-.1-.1-.2l-.6-.9c0-.1-.1-.1-.1-.2s-.1-.1-.1-.2-.1-.1-.1-.2-.1-.1-.1-.2-.1-.1-.1-.2-.1-.1-.1-.2-.1-.1-.1-.2-.1-.1-.1-.2-.1-.1-.1-.2-.1-.1-.1-.2-.1-.1-.1-.2-.1-.1-.1-.2-.1-.1-.1-.2-.1-.1-.1-.2-.1-.1-.1-.2c-.2-.3-.4-.6-.7-.9 0-.1-.1-.1-.1-.2s-.1-.1-.1-.2c0 0-.1-.1-.1-.2s-.1-.1-.1-.2l-.1-.1-.1-.1-.1-.1-.1-.1-.1-.1-.1-.1-.1-.1-.1-.1-.1-.1-.1-.1-.1-.1c-.2-.3-.5-.6-.8-.8l-.1-.1-.1-.1-.1-.1-.1-.1-.1-.1-.1-.1h-.1s0-.1-.1-.1l-.1-.1-.1-.1-.1-.1-.1-.1s-.1 0-.1-.1l-.1-.1s-.1 0-.1-.1l-.1-.1-.1-.1-.1-.1-.1-.1-.1-.1c-.3-.3-.5-.5-.8-.7l-.1-.1-.1-.1-.1-.1-.1-.1-.1-.1-.1-.1-.1-.1c-.1 0-.1-.1-.2-.1s-.1-.1-.2-.1-.1-.1-.2-.1-.1-.1-.2-.1-.1-.1-.2-.1-.1-.1-.2-.1-.1-.1-.2-.1-.1-.1-.2-.1-.1-.1-.2-.1l-.9-.6c-.1 0-.1-.1-.2-.1s-.1-.1-.2-.1-.1-.1-.2-.1-.1-.1-.2-.1-.1-.1-.2-.1-.1-.1-.2-.1-.1-.1-.2-.1-.1-.1-.2-.1-.1-.1-.2-.1-.1-.1-.2-.1-.1-.1-.2-.1-.1-.1-.2-.1-.1-.1-.2-.1-.1-.1-.2-.1-.1-.1-.2-.1-.1-.1-.2-.1-.1-.1-.2-.1c-.3-.2-.6-.4-.9-.5-.1 0-.1-.1-.2-.1s-.1-.1-.2-.1-.1-.1-.2-.1-.1-.1-.2-.1-.1-.1-.2-.1-.1-.1-.2-.1-.1-.1-.2-.1-.1-.1-.2-.1-.1-.1-.2-.1-.1-.1-.2-.1-.1-.1-.2-.1-.1-.1-.2-.1-.1-.1-.2-.1-.1 0-.2-.1c-.1 0-.1 0-.2-.1-.1 0-.1 0-.2-.1-.3-.1-.6-.3-1-.4-.1 0-.1 0-.2-.1-.1 0-.1 0-.2-.1-.1 0-.1 0-.2-.1-.1 0-.1 0-.2-.1-.1 0-.1 0-.2-.1-.1 0-.1 0-.2-.1-.1 0-.1 0-.2-.1-.1 0-.1 0-.2-.1-.1 0-.1 0-.2-.1-.1 0-.1 0-.2-.1-.1 0-.1 0-.2-.1-.1 0-.1 0-.2-.1-.1 0-.1 0-.2-.1-.1 0-.1 0-.2-.1-.1 0-.1 0-.2-.1-.1 0-.1 0-.2-.1h-.1c-.1 0-.3.1-.4.1-.1 0-.1 0-.2.1-.1 0-.1 0-.2.1-.1 0-.1 0-.2.1-.1 0-.1 0-.2.1-.1 0-.1 0-.2.1-.1 0-.1 0-.2.1-.1 0-.1 0-.2.1-.1 0-.1 0-.2.1-.1 0-.1 0-.2.1-.1 0-.1 0-.2.1-.1 0-.1 0-.2.1-.1 0-.1.1-.2.1s-.1.1-.2.1c-.3.1-.6.2-.9.4-.1 0-.1.1-.2.1s-.1.1-.2.1-.1.1-.2.1-.1.1-.2.1-.1.1-.2.1-.1.1-.2.1-.1.1-.2.1-.1.1-.2.1-.1.1-.2.1-.1.1-.2.1-.1.1-.2.1-.1.1-.2.1c-.3.1-.6.3-.9.5-.1 0-.1.1-.2.1s-.1.1-.2.1-.1.1-.2.1-.1.1-.2.1-.1.1-.2.1-.1.1-.2.1-.1.1-.2.1-.1.1-.2.1-.1.1-.2.1-.1.1-.2.1-.1.1-.2.1-.1.1-.2.1-.1.1-.2.1c-.3.2-.6.4-.8.6-.1 0-.1.1-.2.1s-.1.1-.2.1-.1.1-.2.1-.1.1-.2.1-.1.1-.2.1-.1.1-.2.1-.1.1-.2.1-.1.1-.2.1-.1.1-.2.1-.1.1-.2.1-.1.1-.2.1-.1.1-.2.1-.1.1-.2.1c-.3.2-.5.4-.8.7-.1 0-.1.1-.2.1s-.1.1-.2.1-.1.1-.2.1-.1.1-.2.1-.1.1-.2.1-.1.1-.2.1-.1.1-.2.1-.1.1-.2.1-.1.1-.2.1-.1.1-.2.1-.1.1-.2.2c-.1 0-.1.1-.1.2-.1 0-.1.1-.1.2l-.7.7-.1.1-.1.1-.1.1-.1.1v.1l-.1.1v.1l-.1.1-.1.1-.1.1s0 .1-.1.1l-.1.1s0 .1-.1.1l-.1.1-.1.1v.1l-.1.1-.1.1-.1.1-.1.1c-.2.3-.4.5-.6.8 0 .1-.1.1-.1.2s-.1.1-.1.2-.1.1-.1.2-.1.1-.1.2-.1.1-.1.2-.1.1-.1.2-.1.1-.1.2-.1.1-.1.2-.1.1-.1.2-.1.1-.1.2-.1.1-.1.2-.1.1-.1.2-.1.1-.1.2-.1.1-.1.2-.1.1-.1.2c-.2.3-.4.6-.5.9 0 .1-.1.1-.1.2s-.1.1-.1.2-.1.1-.1.2-.1.1-.1.2-.1.1-.1.2-.1.1-.1.2-.1.1-.1.2-.1.1-.1.2-.1.1-.1.2-.1.1-.1.2-.1.1-.1.2-.1.1-.1.2-.1.1-.1.2c-.2.3-.3.6-.4.9 0 .1-.1.1-.1.2s-.1.1-.1.2-.1.1-.1.2-.1.1-.1.2-.1.1-.1.2c2.7.2 2.7.3 2.7.3 0 .1-.1.1-.1.2s-.1.1-.1.2-.1.1-.1.2-.1.1-.1.2-.1.1-.1.2-.1.1-.1.2 0 .1-.1.2c0 .1 0 .1-.1.2-.1.3-.2.6-.4.9 0 .1 0 .1-.1.2 0 .1 0 .1-.1.2 0 .1 0 .1-.1.2 0 .1 0 .1-.1.2 0 .1 0 .1-.1.2 0 .1 0 .1-.1.2 0 .1 0 .1-.1.2 0 .1 0 .1-.1.2v.2c0 .1 0 .1-.1.2 0 .1 0 .1-.1.2 0 .1 0 .1-.1.2 0 .1 0 .1-.1.2 0 .1-.1.3-.1.4-.1.2-.1.5-.2.7 0 .1 0 .1-.1.2 0 .1 0 .1-.1.2v2.4c-.1.3-.1.6-.2.9v2.8c0 .3-.1.6-.1.9v6.7c0 .3 0 .6.1.9v3c0 .3.1.6.2.9v2.4c0 .1 0 .1.1.2 0 .1 0 .1.1.2 0 .1 0 .1.1.2 0 .1 0 .1.1.2 0 .1.1.3.1.4 0 .1.1.2.1.3 0 .1 0 .1.1.2 0 .1 0 .1.1.2 0 .1 0 .1.1.2 0 .1 0 .1.1.2 0 .1 0 .1.1.2 0 .1 0 .1.1.2 0 .1 0 .1.1.2 0 .1 0 .1.1.2 0 .1 0 .1.1.2 0 .1 0 .1.1.2 0 .1 0 .1.1.2 0 .1 0 .1.1.2 0 .1 0 .1.1.2 0 .1 0 .1.1.2 0 .1 0 .1.1.2 0 .1 0 .1.1.2 0 0 0 .1.1.1.1.2.1.4.2.5 0 .1 0 .1.1.2 0 .1 0 .1.1.2 0 .1 0 .1.1.2 0 .1 0 .1.1.2 0 .1 0 .1.1.2 0 .1.1.1.1.2s.1.1.1.2.1.1.1.2.1.1.1.2.1.1.1.2.1.1.1.2.1.1.1.2.1.1.1.2.1.1.1.2.1.1.1.2c.1.3.3.6.4.8 0 .1.1.1.1.2s.1.1.1.2.1.1.1.2.1.1.1.2.1.1.1.2.1.1.1.2.1.1.1.2.1.1.1.2C3 314 3 314 3 314.1c0 .1.1.1.1.2s.1.1.1.2.1.1.1.2.1.1.1.2.1.1.1.2.1.1.1.2c.2.3.3.5.5.8 0 .1.1.1.1.2s.1.1.1.2.1.1.1.2.1.1.1.2.1.1.1.2.1.1.1.2.1.1.1.2.1.1.1.2.1.1.1.2.1.1.1.2.1.1.1.2.1.1.1.1c0 .1.1.1.1.1 0 .1.1.1.1.1.1.2.3.4.4.5l.1.1.1.1.1.1.1.1.1.1.1.1.1.1.1.1.1.1.1.1.1.1.1.1.1.1.1.1c.2.2.4.5.7.7l.1.1.1.1.1.1.1.1.1.1h.1s0 .1.1.1l.1.1.1.1s.1 0 .1.1l.1.1s.1 0 .1.1l.1.1.1.1.1.1.1.1.1.1c.2.2.5.4.7.6l.1.1.1.1c.1 0 .1.1.2.1s.1.1.1.1c.1 0 .1.1.2.1s.1.1.2.1.1.1.2.1.1.1.2.1.1.1.2.1.1.1.2.1.1.1.2.1.1.1.2.1c.2.2.5.4.8.5.1 0 .1.1.2.1s.1.1.2.1.1.1.2.1.1.1.2.1.1.1.2.1.1.1.2.1.1.1.2.1.1.1.2.1.1.1.2.1.1.1.2.1.1.1.2.1.1.1.2.1c.3.2.5.3.8.4.1 0 .1.1.2.1s.1.1.2.1.1.1.2.1.1.1.2.1.1.1.2.1.1.1.2.1.1.1.2.1.1.1.2.1c0 0 .1 0 .1.1.1 0 .1.1.2.1s.1.1.2.1.1 0 .2.1c.3.1.5.2.8.3.1 0 .1 0 .2.1.1 0 .1 0 .2.1.1 0 .1 0 .2.1.1 0 .1 0 .2.1.1 0 .1 0 .2.1.1 0 .1 0 .2.1.1 0 .1 0 .2.1.1 0 .1 0 .2.1.1 0 .1 0 .2.1.1 0 .1 0 .2.1.1 0 .1 0 .2.1.3.1.5.2.8.2.1 0 .1 0 .2.1.1 0 .1 0 .2.1.1 0 .1 0 .2.1h1.6c.3.1.6.1.8.2h2.2c.3 0 .6.1.8.1h5.2c.6 0 1.1-.1 1.7-.3 1.7-.4 3.2-1.3 4.5-2.7 1.6-1.8 2.3-4.1 2.2-6.3v-1h-.1c-.1 0-.1 0-.2.1-.1 0-.1 0-.2.1-.1 0-.1 0-.2.1h-9.8c-.1 0-.1 0-.2-.1-.1 0-.1 0-.2-.1-.1 0-.1 0-.2-.1-.1 0-.1 0-.2-.1-.1 0-.1 0-.2-.1-.1 0-.1 0-.2-.1-.1 0-.1 0-.2-.1-.1 0-.1 0-.2-.1-.1 0-.1 0-.2-.1h-.1c-.1 0-.1 0-.2-.1-.1 0-.1 0-.2-.1-.1 0-.1-.1-.2-.1s-.1 0-.2-.1c-.1 0-.1-.1-.2-.1s-.1-.1-.2-.1-.1-.1-.2-.1-.1-.1-.2-.1h-.1c-.1 0-.1-.1-.2-.1s-.1-.1-.2-.1-.1-.1-.2-.1-.1-.1-.2-.1-.1-.1-.2-.1-.1-.1-.2-.1-.1-.1-.2-.1-.1-.1-.2-.1-.1-.1-.2-.1c0 0-.1 0-.1-.1-.1 0-.1-.1-.2-.1s-.1-.1-.2-.1-.1-.1-.2-.1-.1-.1-.2-.1-.1-.1-.2-.1-.1-.1-.2-.1-.1-.1-.2-.1-.1-.1-.2-.1l-.1-.1c-.1 0-.1-.1-.2-.1s-.1-.1-.2-.1-.1-.1-.2-.1-.1-.1-.2-.1-.1-.1-.2-.1-.1-.1-.2-.1-.1-.1-.2-.1-.1-.1-.2-.2c-.1 0-.1-.1-.2-.2l-.1-.1-.1-.1-.1-.1-.1-.1-.1-.1-.1-.1-.1-.1s0-.1-.1-.1l-.1-.1s0-.1-.1-.1c0 0-.1 0-.1-.1l-.1-.1-.1-.1-.1-.1h-.1l-.1-.1-.1-.1-.1-.1c0-.1-.1-.1-.1-.2s-.1-.1-.1-.2-.1-.1-.1-.2-.1-.1-.1-.2-.1-.1-.1-.2-.1-.1-.1-.2-.1-.1-.1-.2-.1-.1-.1-.2-.1-.1-.1-.2v-.1s0-.1-.1-.1c0 0 0-.1-.1-.1 0-.1-.1-.1-.1-.2s-.1-.1-.1-.2-.1-.1-.1-.2-.1-.1-.1-.2-.1-.1-.1-.2-.1-.1-.1-.2-.1-.1-.1-.2-.1-.1-.1-.2-.1-.1-.1-.2c0 0 0-.1-.1-.1 0-.1-.1-.1-.1-.2s-.1-.1-.1-.2-.1-.1-.1-.2-.1-.1-.1-.2-.1-.1-.1-.2-.1-.1-.1-.2-.1-.1-.1-.2-.1-.1-.1-.2-.1-.1-.1-.2c0 0 0-.1-.1-.1 0-.1-.1-.1-.1-.2s-.1-.1-.1-.2-.1-.1-.1-.2-.1-.1-.1-.2-.1-.1-.1-.2-.1-.1-.1-.2-.1-.1-.1-.2-.1-.1-.1-.2 0-.1-.1-.2c0-.1 0-.1-.1-.2v-.1c0-.1 0-.1-.1-.2 0-.1 0-.1-.1-.2 0-.1 0-.1-.1-.2 0-.1 0-.1-.1-.2 0-.1 0-.1-.1-.2 0-.1 0-.1-.1-.2 0-.1 0-.1-.1-.2 0-.1 0-.1-.1-.2 0-.1 0-.1-.1-.2 0-.1 0-.1-.1-.2v-12.4c0-.1 0-.1.1-.2v-3c0-.1 0-.1.1-.2 0-.1 0-.1.1-.2 0-.1 0-.1.1-.2 0-.1 0-.1.1-.2 0-.1 0-.1.1-.2 0-.1 0-.1.1-.2 0-.1 0-.1.1-.2 0-.1 0-.1.1-.2 0 0 0-.1.1-.1v-.1c0-.1 0-.1.1-.2 0-.1 0-.1.1-.2 0-.1 0-.1.1-.2 0-.1 0-.1.1-.2 0-.1 0-.1.1-.2 0-.1 0-.1.1-.2 0-.1 0-.1.1-.2 0-.1.1-.1.1-.2s.1-.1.1-.2v-.1l.1-.1c0-.1.1-.1.1-.2s.1-.1.1-.2.1-.1.1-.2.1-.1.1-.2.1-.1.1-.2.1-.1.1-.2.1-.1.1-.2.1-.1.1-.2c0 0 0-.1.1-.1l.1-.1.1-.1.1-.1.1-.1.1-.1.1-.1.1-.1.1-.1.1-.1.1-.1.1-.1.1-.1s0-.1.1-.1c0 0 0-.1.1-.1v-.1s0-.1.1-.1l.1-.1.1-.1.1-.1.1-.1.1-.1v-.1l.1-.1.1-.1.1-.1.1-.1.1-.1.1-.1.1-.1.1-.1.1-.1.1-.1.1-.1.1-.1.1-.1.1-.1.1-.1.1-.1.1-.1.1-.1.1-.1.1-.1.1-.1.1-.1s.1 0 .1-.1l.1-.1.1-.1.1-.1.1-.1.1-.1.1-.1.1-.1.1-.1.1-.1h.1c.1 0 .1-.1.1-.1.1 0 .1-.1.1-.1.1 0 .1-.1.2-.1s.1 0 .2-.1c.1 0 .1 0 .2-.1.1 0 .1 0 .2-.1.1 0 .1 0 .2-.1.1 0 .1 0 .2-.1h.1s.1 0 .1-.1c.1 0 .1 0 .2-.1.1 0 .1 0 .2-.1.1 0 .1 0 .2-.1.1 0 .1 0 .2-.1.1 0 .1 0 .2-.1.1 0 .1 0 .2-.1.1 0 .1 0 .2-.1.1 0 .1 0 .2-.1h12c.1 0 .1 0 .2.1.1 0 .1 0 .2.1.1 0 .1 0 .2.1.1 0 .1 0 .2.1.1 0 .1 0 .2.1.1 0 .1 0 .2.1.1 0 .1 0 .2.1.1 0 .1 0 .2.1.1 0 .1 0 .2.1.1 0 .1 0 .2.1.1 0 .1 0 .2.1 0 0 .1 0 .1.1.1 0 .1 0 .2.1.1 0 .1 0 .2.1.1 0 .1 0 .2.1.1 0 .1 0 .2.1.1 0 .1 0 .2.1.1 0 .1 0 .2.1.1 0 .1 0 .2.1l.1.1c.1 0 .1.1.2.1l.1.1.1.1.1.1.1.1.1.1.1.1.1.1.1.1.1.1.1.1.1.1.1.1.1.1.1.1.1.1.1.1.1.1.1.1.1.1.1.1.1.1.1.1.1.1.1.1.1.1.1.1.1.1s.1 0 .1.1l.1.1.1.1s.1 0 .1.1c0 0 .1 0 .1.1l.1.1.1.1.1.1.1.1.1.1h.1s0 .1.1.1l.1.1.1.1.1.1.1.1.1.1.1.1.1.1.1.1.1.1.1.1.1.1.1.1.1.1.1.1.1.1.1.1.1.1.1.1.1.1.1.1.1.1.1.1.1.1.1.1.1.1.1.1s0 .1.1.1c0 .1.1.1.1.2s.1.1.1.2.1.1.1.2.1.1.1.2.1.1.1.2.1.1.1.2.1.1.1.2.1.1.1.2.1.1.1.2c0 0 0 .1.1.1 0 .1.1.1.1.2s.1.1.1.2 0 .1.1.2c0 .1 0 .1.1.2 0 .1 0 .1.1.2 0 .1 0 .1.1.2 0 .1 0 .1.1.2 0 .1 0 .1.1.2 0 .1 0 .1.1.2 0 .1 0 .1.1.2 0 .1 0 .1.1.2 0 .1 0 .1.1.2 0 .1 0 .1.1.2 0 .1 0 .1.1.2 0 .1 0 .1.1.2 0 .1 0 .1.1.2 0 .1 0 .1.1.2 0 .1 0 .1.1.2v.8c-1.7.1-1.7.2-1.7.3 0-.1 0 0 0 0z" fill="url(#SVGID_8_)"/><linearGradient id="SVGID_9_" gradientUnits="userSpaceOnUse" x1="44.313" y1="249.217" x2="61.858" y2="362.799"><stop offset="0" stop-color="#ff0059"/><stop offset="1" stop-color="#e27a2c"/></linearGradient><path d="M74.1 323.7v-33.3c0-.4-.1-.8-.1-1.1v-2.6c-.1-.4-.1-.7-.2-1.1v-1.4c0-.1 0-.1-.1-.2 0-.1 0-.1-.1-.2 0-.1 0-.1-.1-.2 0-.1 0-.1-.1-.2 0-.1 0-.1-.1-.2-.1-.4-.2-.7-.3-1.1 0-.1 0-.1-.1-.2 0-.1 0-.1-.1-.2 0-.1 0-.1-.1-.2 0-.1 0-.1-.1-.2 0-.1 0-.1-.1-.2 0-.1 0-.1-.1-.2 0-.1 0-.1-.1-.2 0-.1 0-.1-.1-.2 0-.1 0-.1-.1-.2 0-.1 0-.1-.1-.2 0-.1 0-.1-.1-.2 0-.1 0-.1-.1-.2 0-.1 0-.1-.1-.2-.1-.4-.3-.7-.4-1 0-.1 0-.1-.1-.2 0-.1 0-.1-.1-.2 0-.1-.1-.1-.1-.2s-.1-.1-.1-.2-.1-.1-.1-.2-.1-.1-.1-.2-.1-.1-.1-.2-.1-.1-.1-.2-.1-.1-.1-.2-.1-.1-.1-.2-.1-.1-.1-.2-.1-.1-.1-.2-.1-.1-.1-.2-.1-.1-.1-.2c-.1-.3-.3-.7-.5-1 0-.1-.1-.1-.1-.2s-.1-.1-.1-.2-.1-.1-.1-.2-.1-.1-.1-.2-.1-.1-.1-.2-.1-.1-.1-.2-.1-.1-.1-.2-.1-.1-.1-.2-.1-.1-.1-.2-.1-.1-.1-.2-.1-.1-.1-.2-.1-.1-.1-.2-.1-.1-.1-.2l-.6-.9c0-.1-.1-.1-.1-.2s-.1-.1-.1-.2-.1-.1-.1-.2-.1-.1-.1-.2-.1-.1-.1-.2-.1-.1-.1-.2-.1-.1-.1-.2-.1-.1-.1-.2-.1-.1-.1-.2-.1-.1-.1-.2-.1-.1-.1-.2-.1-.1-.1-.2-.1-.1-.1-.2-.1-.1-.1-.2-.1-.1-.1-.2c-.2-.3-.4-.6-.7-.9 0-.1-.1-.1-.1-.2s-.1-.1-.1-.2c0 0-.1-.1-.1-.2s-.1-.1-.1-.2l-.1-.1-.1-.1-.1-.1-.1-.1-.1-.1-.1-.1-.1-.1-.1-.1-.1-.1-.1-.1-.1-.1c-.2-.3-.5-.6-.8-.8l-.1-.1-.1-.1-.1-.1-.1-.1-.1-.1-.1-.1h-.1s0-.1-.1-.1l-.1-.1-.1-.1-.1-.1-.1-.1s-.1 0-.1-.1l-.1-.1s-.1 0-.1-.1l-.1-.1-.1-.1-.1-.1-.1-.1-.1-.1c-.3-.3-.5-.5-.8-.7l-.1-.1-.1-.1-.1-.1-.1-.1-.1-.1-.1-.1-.1-.1c-.1 0-.1-.1-.2-.1s-.1-.1-.2-.1-.1-.1-.2-.1-.1-.1-.2-.1-.1-.1-.2-.1-.1-.1-.2-.1-.1-.1-.2-.1l-.1-.1c-.1 0-.1-.1-.2-.1l-.9-.6c-.1 0-.1-.1-.2-.1s-.1-.1-.2-.1-.1-.1-.2-.1-.1-.1-.2-.1-.1-.1-.2-.1-.1-.1-.2-.1-.1-.1-.2-.1-.1-.1-.2-.1-.1-.1-.2-.1-.1-.1-.2-.1-.1-.1-.2-.1-.1-.1-.2-.1-.1-.1-.2-.1-.1-.1-.2-.1-.1-.1-.2-.1-.1-.1-.2-.1-.1-.1-.2-.1c-.3-.2-.6-.4-.9-.5-.1 0-.1-.1-.2-.1s-.1-.1-.2-.1-.1-.1-.2-.1-.1-.1-.2-.1-.1-.1-.2-.1-.1-.1-.2-.1-.1-.1-.2-.1-.1-.1-.2-.1-.1-.1-.2-.1-.1-.1-.2-.1-.1-.1-.2-.1-.1-.1-.2-.1-.1-.1-.2-.1-.1 0-.2-.1c-.1 0-.1 0-.2-.1-.1 0-.1 0-.2-.1-.3-.1-.6-.3-.9-.4-.1 0-.1 0-.2-.1-.1 0-.1 0-.2-.1-.1 0-.1 0-.2-.1-.1 0-.1 0-.2-.1-.1 0-.1 0-.2-.1-.1 0-.1 0-.2-.1-.1 0-.1 0-.2-.1-.1 0-.1 0-.2-.1-.1 0-.1 0-.2-.1-.1 0-.1 0-.2-.1-.1 0-.1 0-.2-.1-.1 0-.1 0-.2-.1-.1 0-.1 0-.2-.1-.1 0-.1 0-.2-.1-.1 0-.1 0-.2-.1-.1 0-.1 0-.2-.1-.3-.1-.6-.2-1-.3-.1 0-.1 0-.2-.1-.1 0-.1 0-.2-.1h-2.6c-.3-.1-.7-.1-1-.2h-3c-.3 0-.7-.1-1-.1h-6.8c-.3 0-.7.1-1 .1h-2.6c-.3.1-.6.1-1 .2h-1.6c-.1 0-.1 0-.2.1-.1 0-.1 0-.2.1-.1 0-.1 0-.2.1-.1 0-.1 0-.2.1-.1 0-.1 0-.2.1-.1 0-.1 0-.2.1-.2 0-.3.1-.5.2h.1c.1 0 .1 0 .2.1.1 0 .1 0 .2.1.1 0 .1 0 .2.1.1 0 .1 0 .2.1.1 0 .1 0 .2.1.1 0 .1 0 .2.1.1 0 .1 0 .2.1.1 0 .1 0 .2.1.1 0 .1 0 .2.1.1 0 .1 0 .2.1.1 0 .1 0 .2.1.1 0 .1 0 .2.1.1 0 .1 0 .2.1.1 0 .1 0 .2.1.1 0 .1 0 .2.1.1 0 .1 0 .2.1.3.1.6.2 1 .4.1 0 .1 0 .2.1.1 0 .1 0 .2.1.1 0 .1 0 .2.1.1 0 .1 0 .2.1.1 0 .1.1.2.1s.1.1.2.1.1.1.2.1.1.1.2.1.1.1.2.1.1.1.2.1.1.1.2.1.1.1.2.1.1.1.2.1.1.1.2.1.1.1.2.1.1.1.2.1c.3.2.6.3.9.5.1 0 .1.1.2.1s.1.1.2.1.1.1.2.1.1.1.2.1.1.1.2.1.1.1.2.1.1.1.2.1.1.1.2.1.1.1.2.1.1.1.2.1.1.1.2.1.1.1.2.1.1.1.2.1.1.1.2.1.1.1.2.1.1.1.2.1.1.1.2.1l.9.6c.1 0 .1.1.2.1s.1.1.2.1.1.1.2.1.1.1.2.1.1.1.2.1.1.1.2.1.1.1.2.1.1.1.2.1.1.1.2.1.1.1.1.1c.1 0 .1.1.1.1.1 0 .1.1.1.1.1 0 .1.1.1.1l.1.1c.1 0 .1.1.1.1l.1.1c.3.2.6.5.8.7l.1.1.1.1.1.1.1.1.1.1s.1 0 .1.1l.1.1s.1 0 .1.1l.1.1.1.1.1.1.1.1s0 .1.1.1h.1l.1.1.1.1.1.1.1.1.1.1.1.1.8.8.1.1.1.1.1.1.1.1.1.1.1.1.1.1.1.1.1.1.1.1.1.1s.1.1.1.2c0 0 .1.1.1.2 0 0 .1.1.1.2 0 0 .1.1.1.2.2.3.5.6.7.9 0 .1.1.1.1.2s.1.1.1.2.1.1.1.2.1.1.1.2.1.1.1.2.1.1.1.2.1.1.1.2.1.1.1.2.1.1.1.2.1.1.1.2.1.1.1.2.1.1.1.2.1.1.1.2.1.1.1.2.1.1.1.2l.6.9c0 .1.1.1.1.2s.1.1.1.2.1.1.1.2.1.1.1.2.1.1.1.2.1.1.1.2.1.1.1.2.1.1.1.2.1.1.1.2.1.1.1.2.1.1.1.2.1.1.1.2v.1s0 .1.1.1c.2.3.3.7.5 1 0 .1.1.1.1.2s.1.1.1.2.1.1.1.2.1.1.1.2.1.1.1.2.1.1.1.2.1.1.1.2.1.1.1.2.1.1.1.2.1.1.1.2.1.1.1.2.1.1.1.2.1.1.1.2 0 .1.1.2c.2.3.3.7.4 1 0 .1.1.1.1.2s0 .1.1.2c0 .1 0 .1.1.2 0 .1 0 .1.1.2 0 .1 0 .1.1.2 0 .1 0 .1.1.2 0 .1 0 .1.1.2 0 .1 0 .1.1.2 0 .1 0 .1.1.2 0 .1 0 .1.1.2 0 .1 0 .1.1.2 0 .1 0 .1.1.2 0 .1 0 .1.1.2.1.4.2.7.3 1.1 0 .1 0 .1.1.2 0 .1 0 .1.1.2 0 .1 0 .1.1.2 0 .1 0 .1.1.2 0 .1 0 .1.1.2v1.4c.1.4.2.7.2 1.1v37.9c-.1 1.3.1 2.6.4 3.8.6 2.2 1.7 4.3 3.4 5.9 4.7 4.5 12 4.1 16.2-1 2.7-3.5 3.7-6.8 3.5-9.9z" fill="url(#SVGID_9_)"/><linearGradient id="SVGID_10_" gradientUnits="userSpaceOnUse" x1="27.161" y1="251.859" x2="44.706" y2="365.442"><stop offset="0" stop-color="#db0093"/><stop offset=".005" stop-color="#da0093" stop-opacity="0"/><stop offset="1" stop-color="#554b9b"/></linearGradient><path d="M60.8 323.8v-32.9c0-10.7-8-22.9-22.6-24.8-7.2-.9-13-.2-19.8 4.5-6.8 4.7-18.4 17.5-9 35.9 7.3 14.4 23.7 14.2 23.7 14.2v-23.3s-.3-6.9 2.3-7.4c-.3-.1-.5-.1-.8-.1-2-.2-4 .4-5.6 1.6-.4.3-.8.7-1.2 1.1-.3.3-.5.6-.7.9-.9 1.3-1.3 2.8-1.4 4.3v14.8c-.1 0-.1-.1-.2-.1s-.1-.1-.1-.1-.1 0-.1-.1c0 0-.1 0-.1-.1l-.1-.1-.1-.1-.1-.1-.1-.1-.1-.1-.1-.1-.1-.1s-.1 0-.1-.1l-.1-.1-.1-.1-.1-.1-.1-.1-.1-.1-.1-.1-.1-.1-.1-.1s-.1 0-.1-.1l-.1-.1-.1-.1s-.1 0-.1-.1c0 0-.1 0-.1-.1l-.1-.1-.1-.1-.1-.1h-.1s0-.1-.1-.1l-.1-.1-.1-.1-.1-.1-.1-.1-.1-.1-.1-.1-.1-.1-.1-.1-.1-.1-.1-.1-.1-.1-.1-.1s0-.1-.1-.1l-.1-.1-.1-.1-.1-.1s0-.1-.1-.1l-.1-.1-.1-.1-.1-.1-.1-.1-.1-.1-.1-.1s0-.1-.1-.1l-.1-.1-.1-.1-.1-.1-.1-.1-.1-.1-.1-.1-.1-.1-.1-.1-.1-.1-.1-.1s0-.1-.1-.1c0 0 0-.1-.1-.1 0-.1-.1-.1-.1-.2s0-.1-.1-.2c0-.1 0-.1-.1-.2 0-.1 0-.1-.1-.2 0-.1 0-.1-.1-.2 0-.1 0-.1-.1-.2 0-.1 0-.1-.1-.2 0-.1 0-.1-.1-.2 0-.1 0-.1-.1-.2 0-.1 0-.1-.1-.2v-.1c0-.1 0-.1-.1-.2 0-.1 0-.1-.1-.2 0-.1 0-.1-.1-.2 0-.1 0-.1-.1-.2 0-.1 0-.1-.1-.2 0-.1 0-.1-.1-.2 0-.1 0-.1-.1-.2 0-.1 0-.1-.1-.2 0-.1 0-.1-.1-.2 0-.1 0-.1-.1-.2 0-.1 0-.1-.1-.2V288c0-.1 0-.1.1-.2 0-.1 0-.1.1-.2 0-.1 0-.1.1-.2 0-.1 0-.1.1-.2 0-.1 0-.1.1-.2 0-.1 0-.1.1-.2 0-.1 0-.1.1-.2 0-.1 0-.1.1-.2 0 0 0-.1.1-.1v-.1c0-.1 0-.1.1-.2 0-.1 0-.1.1-.2 0-.1 0-.1.1-.2 0-.1 0-.1.1-.2 0-.1 0-.1.1-.2 0-.1 0-.1.1-.2 0-.1 0-.1.1-.2 0-.1.1-.1.1-.2s.1-.1.1-.2v-.1l.1-.1c0-.1.1-.1.1-.2s.1-.1.1-.2.1-.1.1-.2.1-.1.1-.2.1-.1.1-.2.1-.1.1-.2.1-.1.1-.2.1-.1.1-.2c0 0 0-.1.1-.1l.1-.1.1-.1.1-.1.1-.1.1-.1.1-.1.1-.1.1-.1.1-.1.1-.1.1-.1.1-.1s0-.1.1-.1c0 0 0-.1.1-.1v-.1s0-.1.1-.1l.1-.1.1-.1.1-.1.1-.1.1-.1v-.1l.1-.1.1-.1.1-.1.1-.1.1-.1.1-.1.1-.1.1-.1.1-.1.1-.1.1-.1.1-.1.1-.1.1-.1.1-.1.1-.1.1-.1.1-.1.1-.1.1-.1.1-.1.1-.1s.1 0 .1-.1l.1-.1.1-.1.1-.1.1-.1.1-.1.1-.1.1-.1.1-.1.1-.1h.1c.1 0 .1-.1.1-.1.1 0 .1-.1.1-.1.1 0 .1-.1.2-.1s.1 0 .2-.1c.1 0 .1 0 .2-.1.1 0 .1 0 .2-.1.1 0 .1 0 .2-.1.1 0 .1 0 .2-.1h.1s.1 0 .1-.1c.1 0 .1 0 .2-.1.1 0 .1 0 .2-.1.1 0 .1 0 .2-.1.1 0 .1 0 .2-.1.1 0 .1 0 .2-.1.1 0 .1 0 .2-.1.1 0 .1 0 .2-.1.1 0 .1 0 .2-.1h12c.1 0 .1 0 .2.1.1 0 .1 0 .2.1.1 0 .1 0 .2.1.1 0 .1 0 .2.1.1 0 .1 0 .2.1.1 0 .1 0 .2.1.1 0 .1 0 .2.1.1 0 .1 0 .2.1.1 0 .1 0 .2.1.1 0 .1 0 .2.1.1 0 .1 0 .2.1 0 0 .1 0 .1.1.1 0 .1 0 .2.1.1 0 .1 0 .2.1.1 0 .1 0 .2.1.1 0 .1 0 .2.1.1 0 .1 0 .2.1.1 0 .1 0 .2.1.1 0 .1 0 .2.1l.1.1c.1 0 .1.1.2.1l.1.1.1.1.1.1.1.1.1.1.1.1.1.1.1.1.1.1.1.1.1.1.1.1.1.1.1.1.1.1.1.1.1.1.1.1.1.1.1.1.1.1.1.1.1.1.1.1.1.1.1.1.1.1s.1 0 .1.1l.1.1.1.1s.1 0 .1.1c0 0 .1 0 .1.1l.1.1.1.1.1.1.1.1.1.1h.1s0 .1.1.1l.1.1.1.1.1.1.1.1.1.1.1.1.1.1.1.1.1.1.1.1.1.1.1.1.1.1.1.1.1.1.1.1.1.1.1.1.1.1.1.1.1.1.1.1.1.1.1.1.1.1.1.1s0 .1.1.1c0 .1.1.1.1.2s.1.1.1.2.1.1.1.2.1.1.1.2.1.1.1.2.1.1.1.2.1.1.1.2.1.1.1.2.1.1.1.2c0 0 0 .1.1.1 0 .1.1.1.1.2s.1.1.1.2 0 .1.1.2c0 .1 0 .1.1.2 0 .1 0 .1.1.2 0 .1 0 .1.1.2 0 .1 0 .1.1.2 0 .1 0 .1.1.2 0 .1 0 .1.1.2 0 .1 0 .1.1.2 0 .1 0 .1.1.2 0 .1 0 .1.1.2 0 .1 0 .1.1.2 0 .1 0 .1.1.2 0 .1 0 .1.1.2 0 .1 0 .1.1.2 0 .1 0 .1.1.2 0 .1 0 .1.1.2v1.4c.1.4.1.8.1 1.1v33.5c-.1 1.3.1 2.6.4 3.8.6 2.2 1.7 4.3 3.4 5.9.7.6 1.4 1.2 2.1 1.6 1.2-4.6 1.2-13 1.2-13zm-28-3.2h.2-.4.2zm-1.1-.2c.1 0 .1 0 0 0 .1 0 .1 0 0 0s-.1 0-.2-.1c.1.1.2.1.2.1zm-.9-.3c.1 0 .1 0 .2.1-.1-.1-.2-.1-.2-.1-.1 0-.1 0-.2-.1 0 .1.1.1.2.1zm-3.1-1.2s.1 0 .1.1c0-.1 0-.1-.1-.1s-.1-.1-.2-.1c.1 0 .2 0 .2.1zm-1.1-.6c.1 0 .1.1.2.1-.1-.1-.1-.1-.2-.1 0-.1-.1-.1 0 0-.1-.1 0-.1 0 0zm-2.4-1.7c.1 0 .1.1.2.1 0 0-.1-.1-.2-.1 0 0 0-.1 0 0 0-.1 0 0 0 0zm-2-1.9c0-.1-.1-.1 0 0-.1-.1 0-.1 0 0zm-1.4-1.6s0 .1 0 0c0 .1 0 0 0 0 0-.1-.1-.1-.1-.2 0 .1 0 .1.1.2zm-1.9-2.7c.1.1.1.1 0 0 .1.1.1.1 0 0 0-.1-.1-.1-.1-.2.1.1.1.2.1.2zm-.7-1.3c0 .1.1.1.1.2 0-.1 0-.2-.1-.2 0-.1-.1-.1-.1-.2.1.1.1.1.1.2zm-1.4-3.7c0 .1 0 .1.1.2-.1 0-.1-.1-.1-.2s0-.1-.1-.2c0 .1.1.2.1.2zm-1-4.7v-.2.2z" opacity=".78" fill="url(#SVGID_10_)"/><linearGradient id="SVGID_11_" gradientUnits="userSpaceOnUse" x1="-202.654" y1="52.504" x2="-165.636" y2="52.504"><stop offset="0" stop-color="#90145a"/><stop offset=".256" stop-color="#a81d58" stop-opacity=".992"/><stop offset=".794" stop-color="#e63452" stop-opacity=".976"/><stop offset="1" stop-color="#ff3e4f" stop-opacity=".97"/></linearGradient><path fill="url(#SVGID_11_)" d="M-173.7 84.5l8.1-14.5-28.5-49.5-8.6 14.8z"/><linearGradient id="SVGID_12_" gradientUnits="userSpaceOnUse" x1="-209.864" y1="59.435" x2="-173.699" y2="59.435"><stop offset="0" stop-color="#90145a"/><stop offset=".256" stop-color="#a81d58" stop-opacity=".992"/><stop offset=".794" stop-color="#e63452" stop-opacity=".976"/><stop offset="1" stop-color="#ff3e4f" stop-opacity=".97"/></linearGradient><path fill="url(#SVGID_12_)" d="M-173.7 84.5h-6.1l-30.1-50.1 7.2.9z"/><linearGradient id="SVGID_13_" gradientUnits="userSpaceOnUse" x1="-209.864" y1="27.855" x2="-194.122" y2="27.855"><stop offset="0" stop-color="#90145a"/><stop offset=".256" stop-color="#a81d58" stop-opacity=".992"/><stop offset=".794" stop-color="#e63452" stop-opacity=".976"/><stop offset="1" stop-color="#ff3e4f" stop-opacity=".97"/></linearGradient><path fill="url(#SVGID_13_)" d="M-209.9 34.4l8.6-14 7.2.1-8.6 14.8z"/><linearGradient id="SVGID_14_" gradientUnits="userSpaceOnUse" x1="-261.8" y1="78.485" x2="-186.287" y2="78.485"><stop offset="0" stop-color="#90145a"/><stop offset=".256" stop-color="#a81d58" stop-opacity=".992"/><stop offset=".794" stop-color="#e63452" stop-opacity=".976"/><stop offset="1" stop-color="#ff3e4f" stop-opacity=".97"/></linearGradient><path fill="url(#SVGID_14_)" d="M-261.8 71l7.1 14.8 68.4.2-8.1-14.9z"/><linearGradient id="SVGID_15_" gradientUnits="userSpaceOnUse" x1="-261.8" y1="67.318" x2="-194.443" y2="67.318"><stop offset="0" stop-color="#90145a"/><stop offset=".256" stop-color="#a81d58" stop-opacity=".992"/><stop offset=".794" stop-color="#e63452" stop-opacity=".976"/><stop offset="1" stop-color="#ff3e4f" stop-opacity=".97"/></linearGradient><path fill="url(#SVGID_15_)" d="M-261.8 71l3.8-7.4 58.3.1 5.3 7.4z"/><linearGradient id="SVGID_16_" gradientUnits="userSpaceOnUse" x1="-246.186" y1="60.03" x2="-235.757" y2="38.501"><stop offset="0" stop-color="#90145a"/><stop offset=".256" stop-color="#a81d58" stop-opacity=".992"/><stop offset=".794" stop-color="#e63452" stop-opacity=".976"/><stop offset="1" stop-color="#ff3e4f" stop-opacity=".97"/></linearGradient><path fill="url(#SVGID_16_)" d="M-238.2 54.3H-254l28.9-49.9 16.4.1z"/><linearGradient id="SVGID_17_" gradientUnits="userSpaceOnUse" x1="-234.059" y1="58.04" x2="-224.744" y2="38.809"><stop offset="0" stop-color="#90145a"/><stop offset=".256" stop-color="#a81d58" stop-opacity=".992"/><stop offset=".794" stop-color="#e63452" stop-opacity=".976"/><stop offset="1" stop-color="#ff3e4f" stop-opacity=".97"/></linearGradient><path fill="url(#SVGID_17_)" d="M-238.2 54.3l8.2-2.4 25.6-42.6-4.3-4.8z"/><linearGradient id="SVGID_18_" gradientUnits="userSpaceOnUse" x1="-202.413" y1="52.4" x2="-165.395" y2="52.4"><stop offset="0" stop-color="#90145a"/><stop offset=".391" stop-color="#a82856" stop-opacity=".609"/><stop offset="1" stop-color="#d54c4f" stop-opacity="0"/></linearGradient><path fill="url(#SVGID_18_)" d="M-173.5 84.4l8.1-14.5-28.5-49.5-8.5 14.8z"/><linearGradient id="SVGID_19_" gradientUnits="userSpaceOnUse" x1="-209.624" y1="59.331" x2="-173.458" y2="59.331"><stop offset="0" stop-color="#90145a"/><stop offset=".391" stop-color="#a82856" stop-opacity=".609"/><stop offset="1" stop-color="#d54c4f" stop-opacity="0"/></linearGradient><path fill="url(#SVGID_19_)" d="M-173.5 84.4h-6l-30.1-50.2 7.2 1z"/><linearGradient id="SVGID_20_" gradientUnits="userSpaceOnUse" x1="-209.624" y1="27.751" x2="-193.881" y2="27.751"><stop offset="0" stop-color="#90145a"/><stop offset=".391" stop-color="#a82856" stop-opacity=".609"/><stop offset="1" stop-color="#d54c4f" stop-opacity="0"/></linearGradient><path fill="url(#SVGID_20_)" d="M-209.6 34.3l8.6-14 7.1.1-8.5 14.8z"/><linearGradient id="SVGID_21_" gradientUnits="userSpaceOnUse" x1="-261.559" y1="78.4" x2="-186.046" y2="78.4"><stop offset="0" stop-color="#90145a"/><stop offset=".391" stop-color="#a82856" stop-opacity=".609"/><stop offset="1" stop-color="#d54c4f" stop-opacity="0"/></linearGradient><path fill="url(#SVGID_21_)" d="M-261.6 70.9l7.1 14.8 68.5.2-8.2-14.9z"/><linearGradient id="SVGID_22_" gradientUnits="userSpaceOnUse" x1="-261.559" y1="67.233" x2="-194.202" y2="67.233"><stop offset="0" stop-color="#90145a"/><stop offset=".391" stop-color="#a82856" stop-opacity=".609"/><stop offset="1" stop-color="#d54c4f" stop-opacity="0"/></linearGradient><path fill="url(#SVGID_22_)" d="M-261.6 70.9l3.8-7.4 58.3.2 5.3 7.3z"/><linearGradient id="SVGID_23_" gradientUnits="userSpaceOnUse" x1="-245.945" y1="60.027" x2="-235.517" y2="38.498"><stop offset="0" stop-color="#90145a"/><stop offset=".391" stop-color="#a82856" stop-opacity=".609"/><stop offset="1" stop-color="#d54c4f" stop-opacity="0"/></linearGradient><path fill="url(#SVGID_23_)" d="M-238 54.3h-15.8l28.9-49.9 16.5.1z"/><linearGradient id="SVGID_24_" gradientUnits="userSpaceOnUse" x1="-233.818" y1="58.037" x2="-224.503" y2="38.806"><stop offset="0" stop-color="#90145a"/><stop offset=".391" stop-color="#a82856" stop-opacity=".609"/><stop offset="1" stop-color="#d54c4f" stop-opacity="0"/></linearGradient><path fill="url(#SVGID_24_)" d="M-238 54.3l8.3-2.4 25.5-42.6-4.2-4.8z"/><linearGradient id="SVGID_25_" gradientUnits="userSpaceOnUse" x1="-243.278" y1="287.298" x2="-216.072" y2="320.024"><stop offset="0" stop-color="#34d66b"/><stop offset=".079" stop-color="#27ca6b" stop-opacity=".998"/><stop offset=".247" stop-color="#12b56c" stop-opacity=".995"/><stop offset=".411" stop-color="#05a96c" stop-opacity=".991"/><stop offset=".565" stop-color="#01a56c" stop-opacity=".987"/><stop offset=".968" stop-color="#002e4f" stop-opacity=".97"/></linearGradient><path fill="url(#SVGID_25_)" d="M-243.2 262l-11.1 21.2 30.5 53h24.8z"/><linearGradient id="SVGID_26_" gradientUnits="userSpaceOnUse" x1="-226.125" y1="283.187" x2="-226.125" y2="283.187"><stop offset=".005" stop-color="#01b89d"/><stop offset=".335" stop-color="#01958e" stop-opacity=".99"/><stop offset="1" stop-color="#00466a" stop-opacity=".97"/></linearGradient><linearGradient id="SVGID_27_" gradientUnits="userSpaceOnUse" x1="-172.073" y1="290.129" x2="-204.835" y2="271.447"><stop offset="0" stop-color="#222961"/><stop offset=".113" stop-color="#203262" stop-opacity=".997"/><stop offset=".295" stop-color="#1c4a63" stop-opacity=".991"/><stop offset=".523" stop-color="#147065" stop-opacity=".984"/><stop offset=".786" stop-color="#0aa668" stop-opacity=".976"/><stop offset="1" stop-color="#00d66b" stop-opacity=".97"/></linearGradient><path fill-rule="evenodd" clip-rule="evenodd" fill="url(#SVGID_27_)" d="M-223.8 283.2l10.1-21.2 32.5.4 12.8 20.7z"/><linearGradient id="SVGID_28_" gradientUnits="userSpaceOnUse" x1="-222.298" y1="264.736" x2="-148.977" y2="294.538"><stop offset="0" stop-color="#222961" stop-opacity="0"/><stop offset=".132" stop-color="#20325f" stop-opacity=".128"/><stop offset=".344" stop-color="#1a495a" stop-opacity=".334"/><stop offset=".61" stop-color="#117053" stop-opacity=".592"/><stop offset=".918" stop-color="#04a648" stop-opacity=".89"/><stop offset="1" stop-color="#00b545" stop-opacity=".97"/></linearGradient><path fill-rule="evenodd" clip-rule="evenodd" fill="url(#SVGID_28_)" d="M-223.8 283.2l10.1-21.2 32.5.4 12.8 20.7z"/><linearGradient id="SVGID_29_" gradientUnits="userSpaceOnUse" x1="-173.342" y1="273.302" x2="-215.377" y2="338.547"><stop offset=".005" stop-color="#01c270"/><stop offset=".435" stop-color="#019567"/><stop offset="1" stop-color="#00555b"/></linearGradient><path fill="url(#SVGID_29_)" d="M-223.8 336.2h24.8l30.6-53.1-12.8-20.7"/><linearGradient id="SVGID_30_" gradientUnits="userSpaceOnUse" x1="-184.824" y1="262.088" x2="-199.448" y2="284.786"><stop offset="0" stop-color="#222961"/><stop offset=".371" stop-color="#222b61" stop-opacity=".629"/><stop offset=".519" stop-color="#203263" stop-opacity=".481"/><stop offset=".628" stop-color="#1e3e65" stop-opacity=".372"/><stop offset=".717" stop-color="#1a5067" stop-opacity=".283"/><stop offset=".794" stop-color="#16666b" stop-opacity=".206"/><stop offset=".863" stop-color="#108270" stop-opacity=".137"/><stop offset=".926" stop-color="#0aa376" stop-opacity=".074"/><stop offset=".983" stop-color="#03c97c" stop-opacity=".017"/><stop offset="1" stop-color="#00d67e" stop-opacity="0"/></linearGradient><path d="M-181.2 262.4c-1 .7-22.5 20.7-22.5 20.7h10.5l12-20.7z" opacity=".63" fill="url(#SVGID_30_)"/><linearGradient id="SVGID_31_" gradientUnits="userSpaceOnUse" x1="-210.22" y1="293.062" x2="-220.685" y2="333.428"><stop offset=".01" stop-color="#01c49d" stop-opacity="0"/><stop offset=".075" stop-color="#05af93" stop-opacity=".063"/><stop offset=".227" stop-color="#0d837e" stop-opacity=".213"/><stop offset=".382" stop-color="#145f6d" stop-opacity=".365"/><stop offset=".537" stop-color="#194360" stop-opacity=".516"/><stop offset=".691" stop-color="#1d2f57" stop-opacity=".667"/><stop offset=".845" stop-color="#1f2351" stop-opacity=".819"/><stop offset="1" stop-color="#201f4f" stop-opacity=".97"/></linearGradient><path opacity=".65" fill-rule="evenodd" clip-rule="evenodd" fill="url(#SVGID_31_)" d="M-223.8 336.2l6.1-31.3 6.1 10.2z"/><linearGradient id="SVGID_32_" gradientUnits="userSpaceOnUse" x1="-177.331" y1="307.496" x2="-218.346" y2="294.134"><stop offset=".01" stop-color="#01c49d" stop-opacity="0"/><stop offset=".213" stop-color="#169b91" stop-opacity=".197"/><stop offset=".59" stop-color="#3a547b" stop-opacity=".563"/><stop offset=".863" stop-color="#50286e" stop-opacity=".827"/><stop offset="1" stop-color="#591769" stop-opacity=".96"/></linearGradient><path fill="url(#SVGID_32_)" d="M-223.8 336.2h24.8l30.6-53.1-12.8-20.7"/></g></svg>