<svg xmlns="http://www.w3.org/2000/svg" xmlns:xlink="http://www.w3.org/1999/xlink" viewBox="0 0 129.1 129.1"><style>.st5{fill:#ffc724}.st6{fill:#f58b1f}.st7{fill:#ee3e30}.st8{fill:#931a3d}.st10{fill:#2d2d2d}</style><g id="OBJECTS"><g id="XMLID_28_"><g id="XMLID_152_"><g id="XMLID_56_"><linearGradient id="XMLID_80_" gradientUnits="userSpaceOnUse" x1="103.41" y1="-16211.92" x2="25.038" y2="-16133.548" gradientTransform="matrix(1 0 0 -1 0 -16606.875)"><stop offset="0" stop-color="#f58b1f"/><stop offset=".495" stop-color="#ed6723"/><stop offset="1" stop-color="#ee3e30"/></linearGradient><path id="XMLID_37_" d="M99.1-464.2c-9-9-20.7-13.5-32.5-13.5s-23.5 4.5-32.5 13.5c-2.1 2.1-3.9 4.4-5.6 6.7 6.4-9.3 17.1-15.4 29.3-15.4 19.6 0 35.5 15.9 35.5 35.5 0 6.3-1.6 12.2-4.5 17.3-.7 1.3-1.5 2.6-2.4 3.8-1.8 2.4-3.8 4.5-6.1 6.4l-13.6 13.6-14.8 14.8 14.8 14.8 32.5-32.5c17.9-18 17.9-47.1-.1-65z" fill="url(#XMLID_80_)"/><linearGradient id="XMLID_81_" gradientUnits="userSpaceOnUse" x1="-2.225" y1="-16134.364" x2="113.854" y2="-16216.134" gradientTransform="matrix(1 0 0 -1 0 -16606.875)"><stop offset="0" stop-color="#c41e51"/><stop offset=".167" stop-color="#b41d4a"/><stop offset=".427" stop-color="#a21b43"/><stop offset=".699" stop-color="#971a3e"/><stop offset="1" stop-color="#931a3d"/></linearGradient><path id="XMLID_34_" d="M93.4-437.4c0-19.6-15.9-35.5-35.5-35.5-12.2 0-22.9 6.1-29.3 15.4-.1.1-.2.3-.3.4-.3.4-.5.8-.8 1.2 0 0 0 .1-.1.1-10.9 17.7-8.7 41.2 6.7 56.6L44.4-389l14.8-14.8L48.9-414c-9.8-9.8-9.8-25.7 0-35.5 4.7-4.7 11-7.3 17.7-7.3s13 2.6 17.7 7.3c7.9 7.9 9.4 19.9 4.5 29.3 2.9-5 4.6-10.9 4.6-17.2z" fill="url(#XMLID_81_)"/><linearGradient id="XMLID_83_" gradientUnits="userSpaceOnUse" x1="67.282" y1="-16207.07" x2="67.282" y2="-16170.685" gradientTransform="matrix(1 0 0 -1 0 -16606.875)"><stop offset="0" stop-color="#c41e51"/><stop offset=".167" stop-color="#b41d4a"/><stop offset=".427" stop-color="#a21b43"/><stop offset=".699" stop-color="#971a3e"/><stop offset="1" stop-color="#931a3d"/></linearGradient><path id="XMLID_13_" d="M83-431.1c0 8.6-7 15.7-15.7 15.7s-15.7-7-15.7-15.7c0-2.5.6-4.9 1.7-7 2.6-5.1 7.9-8.6 14-8.6s11.4 3.5 14 8.6c1.1 2.1 1.7 4.5 1.7 7z" fill="url(#XMLID_83_)"/></g></g><g id="XMLID_168_"><g id="XMLID_60_"><g id="XMLID_102_"><linearGradient id="XMLID_84_" gradientUnits="userSpaceOnUse" x1="481.46" y1="-16228.926" x2="558.232" y2="-16152.152" gradientTransform="matrix(1 0 0 -1 0 -16606.875)"><stop offset="0" stop-color="#f58b1f"/><stop offset=".495" stop-color="#ed6723"/><stop offset="1" stop-color="#ee3e30"/></linearGradient><path id="XMLID_11_" d="M551.7-421.7c-6.4-1.2-10.6-7.4-9.3-13.8l1.2-6.1c3.1-16.4-7.1-32.7-23.5-36-16.6-3.4-32.8 7.6-35.7 24.3-2.9 16.4 8.4 32 24.8 35.1l6.1 1.2c6.4 1.2 10.6 7.4 9.3 13.8-2.5 13 5.7 26.1 18.7 28.6 13 2.6 25.7-6 28.1-19.1 2.5-13.1-6.6-25.5-19.7-28z" fill="url(#XMLID_84_)"/><linearGradient id="XMLID_85_" gradientUnits="userSpaceOnUse" x1="494.683" y1="-16255.339" x2="494.683" y2="-16187.314" gradientTransform="matrix(1 0 0 -1 0 -16606.875)"><stop offset="0" stop-color="#c41e51"/><stop offset=".205" stop-color="#b71a4b"/><stop offset=".587" stop-color="#940f3a"/><stop offset="1" stop-color="#680225"/></linearGradient><circle id="XMLID_12_" cx="494.7" cy="-391" r="16.8" fill="url(#XMLID_85_)"/></g></g></g><g id="XMLID_123_"><g id="XMLID_61_"><g id="XMLID_36_"><g id="XMLID_14_"><path id="XMLID_15_" class="st5" d="M25-225.1l37.3-21.5v43.1z"/><path id="XMLID_40_" class="st6" d="M99.6-225.1l-37.3-21.5v43.1l37.3-21.6"/><path id="XMLID_41_" class="st7" d="M99.6-182v-43.1l-37.3 21.6"/><path id="XMLID_27_" class="st8" d="M25-182l37.3 21.6v-43.1z"/><path id="XMLID_43_" fill="#c41e51" d="M62.3-203.5v43.1L99.6-182z"/></g><g id="XMLID_42_"><path id="XMLID_46_" class="st7" d="M25-182v43.1l37.3-21.5z"/><path id="XMLID_45_" class="st6" d="M25-138.9l37.3 21.6v-43.1z"/><path id="XMLID_44_" class="st5" d="M62.3-160.4v43.1l37.3-21.6z"/></g></g></g></g><g id="XMLID_124_"><g id="XMLID_62_"><g id="XMLID_107_"><path id="XMLID_48_" class="st7" d="M291.1-182v55.6c-30.7 0-55.6-24.9-55.6-55.6h55.6z"/><path id="XMLID_50_" class="st8" d="M291.1-182h-55.6v-55.6c30.7 0 55.6 24.9 55.6 55.6z"/><path id="XMLID_52_" class="st6" d="M346.7-182c0 30.7-24.9 55.6-55.6 55.6 0-30.7 24.9-55.6 55.6-55.6z"/><path id="XMLID_51_" class="st5" d="M346.7-182c-30.7 0-55.6-24.9-55.6-55.6 30.7 0 55.6 24.9 55.6 55.6z"/></g></g></g><g id="XMLID_135_"><g id="XMLID_63_"><g id="XMLID_75_"><g id="XMLID_49_"><path id="XMLID_89_" class="st5" d="M479.7-163h-21.3c0 10.3 9.5 18.7 21.3 18.7h85.1L544.3-163h-64.6z"/><g id="XMLID_76_"><path id="XMLID_82_" class="st7" d="M564.9-231.6h-85.1v18.7h106.4c0-10.4-9.6-18.7-21.3-18.7z"/><path id="XMLID_87_" class="st8" d="M564.9-212.9v68.7c11.8 0 21.3-8.4 21.3-18.7v-49.9h-21.3z"/></g></g><path id="XMLID_74_" class="st6" d="M458.4-163h21.3v-68.7c-11.8 0-21.3 8.4-21.3 18.7v50z"/><ellipse id="XMLID_65_" class="st10" cx="502.1" cy="-188.9" rx="6.9" ry="6"/><ellipse id="XMLID_77_" class="st10" cx="525.2" cy="-188.9" rx="6.9" ry="6"/><ellipse id="XMLID_91_" class="st10" cx="548.3" cy="-188.9" rx="6.9" ry="6"/></g></g></g><g id="XMLID_148_"><g id="XMLID_64_"><g id="XMLID_94_"><linearGradient id="XMLID_86_" gradientUnits="userSpaceOnUse" x1="153.594" y1="-16720.066" x2="-2.463" y2="-16622.715" gradientTransform="matrix(1 0 0 -1 0 -16606.875)"><stop offset="0" stop-color="#f58b1f"/><stop offset=".495" stop-color="#ed6723"/><stop offset="1" stop-color="#ee3e30"/></linearGradient><path id="XMLID_125_" d="M64.6 0C28.9 0 0 28.9 0 64.6v.2C.1 33.6 25.4 8.3 56.6 8.3c2.7 0 5.4.2 8.1.6 24.4 3.5 43.8 22.6 47.8 46.9.5 2.5.7 5.1.8 7.7v2c0 .7 0 1.4-.1 2.2v-.6c-1.3 21.2-18.9 38-40.4 38-2.8 0-5.5-.3-8.2-.8-18.4-3.8-32.3-20.2-32.3-39.8 0-17.8 14.5-32.3 32.3-32.3 17.8 0 32.3 14.5 32.3 32.3 0-19.6-13.9-36-32.3-39.8-2.6-.5-5.4-.8-8.2-.8-20.8 0-38 15.8-40.2 36.1-.1 1.6-.2 3.3-.2 5v2.3c1.1 27.5 21.8 50 48.5 53.8 2.6.4 5.3.6 8.1.6 29.3 0 53.4-22.3 56.3-50.9.1-1.5.2-2.9.3-4.4v-1.9C129.1 28.9 100.2 0 64.6 0z" fill="url(#XMLID_86_)"/><g id="XMLID_122_"><defs><path id="XMLID_88_" d="M72.5 121.7c-2.7 0-5.4-.2-8.1-.6-26.7-3.8-47.3-26.3-48.4-53.8 0-.6-.1-1.1-.1-1.7v-2c.1-2.4.3-4.7.7-7-.2 1.2-.3 2.4-.4 3.5C18.4 39.8 35.5 24 56.4 24c2.8 0 5.5.3 8.2.8C83 28.6 96.8 45 96.8 64.6c0 17.8-14.5 32.3-32.3 32.3-17.8 0-32.3-14.5-32.3-32.3 0 19.6 13.9 36 32.3 39.8 2.6.5 5.4.8 8.2.8 21.5 0 39-16.8 40.4-38V65c0-1.8-.1-3.5-.2-5.3-.1-1.3-.3-2.6-.5-3.9-3.9-24.3-23.3-43.4-47.8-46.9-2.6-.4-5.3-.6-8.1-.6C25.4 8.3.1 33.6 0 64.8c0 2.1.1 4.3.3 6.4 3.3 32.6 30.8 58 64.2 58 33.5 0 61.1-25.6 64.3-58.3-2.9 28.5-27 50.8-56.3 50.8z"/></defs><linearGradient id="XMLID_90_" gradientUnits="userSpaceOnUse" x1="119.888" y1="-16766.021" x2="40.829" y2="-16649.67" gradientTransform="matrix(1 0 0 -1 0 -16606.875)"><stop offset="0" stop-color="#c41e51"/><stop offset=".167" stop-color="#b41d4a"/><stop offset=".427" stop-color="#a21b43"/><stop offset=".699" stop-color="#971a3e"/><stop offset="1" stop-color="#931a3d"/></linearGradient><use xlink:href="#XMLID_88_" overflow="visible" fill="url(#XMLID_90_)"/><clipPath id="XMLID_92_"><use xlink:href="#XMLID_88_" overflow="visible"/></clipPath></g></g></g></g><g id="XMLID_150_"><g id="XMLID_66_"><g id="XMLID_95_"><path id="XMLID_101_" fill="#d7df32" d="M298.8 22.1V0v22.1z"/><path id="XMLID_104_" class="st8" d="M298.8 106.4l-25.4-14.6-11.2-6.4v-.1.1l-19.1 11 55.7 32.1 55.6-32.1-19.1-11z"/><path id="XMLID_117_" class="st6" d="M335.3 43.2v42.2l19.1 11V32.1L298.8 0v22.1z"/><path id="XMLID_137_" class="st7" d="M243.1 96.4l19.1-11V43.2l36.6-21.1V0l-55.7 32.1v64.3z"/><path id="XMLID_138_" class="st5" d="M282.2 82.2l-7.3-4.2V50.5l23.9 13.8v27.5-27.5l23.8-13.8-23.8-13.8-23.9 13.8V78z"/><path id="XMLID_139_" class="st7" d="M298.8 64.3v27.5L322.6 78V50.5z"/><path id="XMLID_140_" class="st6" d="M274.9 50.5V78l7.3 4.2 16.6 9.6V64.3z"/></g></g></g><g id="XMLID_151_"><g id="XMLID_72_"><g id="XMLID_96_"><g id="XMLID_120_"><path id="XMLID_121_" class="st8" d="M491.5 35h.1l-18.7-10.8v42.9l18.6-10.7z"/><path id="XMLID_202_" class="st7" d="M472.9 24.2L491.6 35l18.5-10.7V2.8z"/><path id="XMLID_203_" class="st8" d="M584.4 24.2L547.2 2.8v21.5L565.7 35z"/><path id="XMLID_208_" class="st7" d="M528.6 99.3l-18.5-10.8-18.6 10.8 37.2 21.4V99.2z"/><path id="XMLID_209_" class="st8" d="M565.7 99.3l-18.5-10.8-18.5 10.7v21.5z"/><path id="XMLID_210_" class="st7" d="M565.7 35v21.4l18.6 10.7.1-42.9z"/></g><path id="XMLID_213_" class="st6" d="M528.7 93.6l15.7-9.1V66.3l-15.7-9.1z"/><path id="XMLID_215_" class="st5" d="M515.3 64.9l-2.5 1.4v18.2l15.8 9.1V57.2z"/><path id="XMLID_223_" class="st5" d="M528.6 39l-15.8-9.1-15.7 9.1 31.5 18.2z"/><path id="XMLID_224_" class="st6" d="M497.1 57.2l15.7 9.1 15.8-9.1L497.1 39z"/><path id="XMLID_225_" class="st5" d="M528.7 57.2h-.1.1l15.7 9.1 15.8-9.1V39z"/><path id="XMLID_227_" class="st6" d="M528.7 57.2L560.2 39l-15.8-9.1-15.7 9.1z"/></g></g></g><g id="XMLID_153_"><g id="XMLID_59_"><g id="XMLID_106_"><linearGradient id="XMLID_93_" gradientUnits="userSpaceOnUse" x1="262.099" y1="-16226.5" x2="262.099" y2="-16149.96" gradientTransform="matrix(1 0 0 -1 0 -16606.875)"><stop offset="0" stop-color="#c41e51"/><stop offset=".041" stop-color="#be1c4e"/><stop offset=".324" stop-color="#99113c"/><stop offset=".587" stop-color="#7e0930"/><stop offset=".821" stop-color="#6e0428"/><stop offset="1" stop-color="#680225"/></linearGradient><path id="XMLID_9_" fill="url(#XMLID_93_)" d="M238-458.6v67.8h48.2v-67.8z"/><linearGradient id="XMLID_97_" gradientUnits="userSpaceOnUse" x1="334.484" y1="-16122.759" x2="334.484" y2="-16208.934" gradientTransform="matrix(1 0 0 -1 0 -16606.875)"><stop offset="0" stop-color="#c41e51"/><stop offset=".041" stop-color="#be1c4e"/><stop offset=".324" stop-color="#99113c"/><stop offset=".587" stop-color="#7e0930"/><stop offset=".821" stop-color="#6e0428"/><stop offset="1" stop-color="#680225"/></linearGradient><path id="XMLID_24_" fill="url(#XMLID_97_)" d="M310.4-458.6v67.8h48.2v-67.8z"/><linearGradient id="XMLID_98_" gradientUnits="userSpaceOnUse" x1="255.005" y1="-336.723" x2="255.005" y2="-181.946" gradientTransform="rotate(45.001 543.427 -261.91)"><stop offset="0" stop-color="#f58b1f"/><stop offset=".495" stop-color="#ed6723"/><stop offset="1" stop-color="#ee3e30"/></linearGradient><path id="XMLID_26_" fill="url(#XMLID_98_)" d="M310.4-458.6L238-390.8h48.5l24-23.9 48.1-43.9z"/></g></g></g></g></g></svg>