<svg xmlns="http://www.w3.org/2000/svg" viewBox="0 0 85.9 74.8"><style/><g id="Objects"><linearGradient id="SVGID_1_" gradientUnits="userSpaceOnUse" x1="303.248" y1="-238.604" x2="327.419" y2="-205.864"><stop offset="0" stop-color="#00d47e"/><stop offset=".142" stop-color="#02d484" stop-opacity=".996"/><stop offset=".337" stop-color="#08d696" stop-opacity=".99"/><stop offset=".564" stop-color="#11d8b3" stop-opacity=".983"/><stop offset=".812" stop-color="#1edbdb" stop-opacity=".976"/><stop offset="1" stop-color="#2adeff" stop-opacity=".97"/></linearGradient><path d="M328.6-202.2c-9.8 0-17.8-8-17.8-17.8v-10.6c9.8 0 17.8 8 17.8 17.8v10.6z" fill="url(#SVGID_1_)"/><linearGradient id="SVGID_2_" gradientUnits="userSpaceOnUse" x1="297.29" y1="-206.418" x2="335.245" y2="-255.992"><stop offset="0" stop-color="#00bc7e"/><stop offset=".218" stop-color="#00bc7f"/><stop offset=".393" stop-color="#01bd82" stop-opacity=".993"/><stop offset=".529" stop-color="#04bf8c" stop-opacity=".988"/><stop offset=".651" stop-color="#0ac49c" stop-opacity=".983"/><stop offset=".765" stop-color="#11cab3" stop-opacity=".979"/><stop offset=".874" stop-color="#1bd2d1" stop-opacity=".975"/><stop offset=".977" stop-color="#27dcf6" stop-opacity=".971"/><stop offset="1" stop-color="#2adeff" stop-opacity=".97"/></linearGradient><path d="M339.1-251.4c0 9.8-8 17.8-17.8 17.8h-10.6c0-9.8 8-17.8 17.8-17.8h10.6z" fill="url(#SVGID_2_)"/><linearGradient id="SVGID_3_" gradientUnits="userSpaceOnUse" x1="311.312" y1="-223.915" x2="279.136" y2="-285.154"><stop offset=".005" stop-color="#00bc7e"/><stop offset=".143" stop-color="#02be85" stop-opacity=".996"/><stop offset=".351" stop-color="#09c39a" stop-opacity=".99"/><stop offset=".603" stop-color="#14ccbc" stop-opacity=".982"/><stop offset=".887" stop-color="#23d9ea" stop-opacity=".973"/><stop offset="1" stop-color="#2adeff" stop-opacity=".97"/></linearGradient><path d="M289.9-262c9.8 0 17.8 8 17.8 17.8v10.6c-9.8 0-17.8-8-17.8-17.8V-262z" fill="url(#SVGID_3_)"/><linearGradient id="SVGID_4_" gradientUnits="userSpaceOnUse" x1="270.687" y1="-257.012" x2="302.965" y2="-171.873"><stop offset="0" stop-color="#90145a"/><stop offset=".15" stop-color="#842c6e" stop-opacity=".996"/><stop offset=".468" stop-color="#646aa1" stop-opacity=".986"/><stop offset=".925" stop-color="#33cdf1" stop-opacity=".972"/><stop offset="1" stop-color="#2adeff" stop-opacity=".97"/></linearGradient><path d="M271.9-202.3c-6.9 3.6-2.4 26.8 14.1 26.7 11.9-.1 21.5-9.6 21.5-21.5v-33.4c-9.8 0-17.8 8-17.8 17.8v10.5c0 4.9-4 8.9-8.9 8.9-4.9-.1-8.9-4-8.9-9" fill="url(#SVGID_4_)"/><linearGradient id="SVGID_5_" gradientUnits="userSpaceOnUse" x1="272.952" y1="-252.998" x2="297.803" y2="-205.172"><stop offset="0" stop-color="#90145a"/><stop offset=".15" stop-color="#842c6e" stop-opacity=".996"/><stop offset=".468" stop-color="#646aa1" stop-opacity=".986"/><stop offset=".925" stop-color="#33cdf1" stop-opacity=".972"/><stop offset="1" stop-color="#2adeff" stop-opacity=".97"/></linearGradient><path d="M280.9-193.4c5.3-.1 8.8-4.6 8.8-8.8V-213c0-9.8 8.1-17.5 17.9-17.5v10.3c0 26-26.7 26.8-26.7 26.8z" fill="url(#SVGID_5_)"/><linearGradient id="SVGID_6_" gradientUnits="userSpaceOnUse" x1="248.443" y1="-255.187" x2="295.935" y2="-134.129"><stop offset="0" stop-color="#90145a"/><stop offset=".15" stop-color="#842c6e" stop-opacity=".996"/><stop offset=".468" stop-color="#646aa1" stop-opacity=".986"/><stop offset=".925" stop-color="#33cdf1" stop-opacity=".972"/><stop offset="1" stop-color="#2adeff" stop-opacity=".97"/></linearGradient><path d="M285.5-175.8c-14.4-2.1-13.5-26.4-13.5-26.4v-36.7c0-9.8-8-17.8-17.8-17.8v59.6c0 11.9 9.8 21.5 21.5 21.5h11.1c.1 0-.2-.1-1.3-.2z" fill="url(#SVGID_6_)"/><path d="M305.2 29.1c.1.4.1.8.1 1.1v-1.5c0 .6 0 .5-.1.4.1 0 0-.1 0-.1v-.3.4z" fill="none"/><linearGradient id="SVGID_7_" gradientUnits="userSpaceOnUse" x1="293.615" y1="28.251" x2="273.998" y2="58.664"><stop offset=".158" stop-color="#686f9f"/><stop offset=".288" stop-color="#6a67a3"/><stop offset=".491" stop-color="#7051ae"/><stop offset=".742" stop-color="#792cc1"/><stop offset="1" stop-color="#8400d7"/></linearGradient><path d="M296.7 57.9v-24c-.1-2.1-1-4.2-2.7-5.8-1.3-1.2-3-1.9-4.7-2-2-.2-4 .4-5.6 1.6-.4.3-.8.7-1.2 1.1-.3.3-.5.6-.7.9-.9 1.3-1.3 2.8-1.4 4.3v14.8c-.1 0-.1 0-.2-.1-.1 0-.1-.1-.1-.1s-.1 0-.1-.1c0 0-.1 0-.1-.1l-.1-.1-.1-.1-.1-.1-.1-.1-.1-.1-.1-.1-.1-.1s-.1 0-.1-.1l-.1-.1-.1-.1-.1-.1-.1-.1-.1-.1-.1-.1-.1-.1-.1-.1s-.1 0-.1-.1l-.1-.1-.1-.1s-.1 0-.1-.1c0 0-.1 0-.1-.1l-.1-.1-.1-.1-.1-.1h-.1s0-.1-.1-.1l-.1-.1-.1-.1-.1-.1-.1-.1-.1-.1-.1-.1-.1-.1-.1-.1-.1-.1-.1-.1-.1-.1-.1-.1s0-.1-.1-.1l-.1-.1-.1-.1-.1-.1s0-.1-.1-.1l-.1-.1-.1-.1-.1-.1-.1-.1-.1-.1-.1-.1s0-.1-.1-.1l-.1-.1-.1-.1-.1-.1-.1-.1-.1-.1-.1-.1-.1-.1-.1-.1-.1-.1-.1-.1s0-.1-.1-.1c0 0 0-.1-.1-.1 0-.1-.1-.1-.1-.2s0-.1-.1-.2c0-.1 0-.1-.1-.2 0-.1 0-.1-.1-.2 0-.1 0-.1-.1-.2 0-.1 0-.1-.1-.2 0-.1 0-.1-.1-.2 0-.1 0-.1-.1-.2 0-.1 0-.1-.1-.2 0-.1 0-.1-.1-.2v-.1c0-.1 0-.1-.1-.2 0-.1 0-.1-.1-.2 0-.1 0-.1-.1-.2 0-.1 0-.1-.1-.2 0-.1 0-.1-.1-.2 0-.1 0-.1-.1-.2 0-.1 0-.1-.1-.2 0-.1 0-.1-.1-.2 0-.1 0-.1-.1-.2 0-.1 0-.1-.1-.2 0-.1 0-.1-.1-.2V27.1v.1c0 .1 0 .1-.1.2v12.4c0 .1 0 .1.1.2 0 .1 0 .1.1.2 0 .1 0 .1.1.2 0 .1 0 .1.1.2 0 .1 0 .1.1.2 0 .1 0 .1.1.2 0 .1 0 .1.1.2 0 .1 0 .1.1.2 0 .1 0 .1.1.2 0 .1 0 .1.1.2v.1c0 .1 0 .1.1.2 0 .1.1.1.1.2s.1.1.1.2.1.1.1.2.1.1.1.2.1.1.1.2.1.1.1.2.1.1.1.2.1.1.1.2.1.1.1.2c0 0 0 .1.1.1 0 .1.1.1.1.2s.1.1.1.2.1.1.1.2.1.1.1.2.1.1.1.2.1.1.1.2.1.1.1.2.1.1.1.2.1.1.1.2c0 0 0 .1.1.1 0 .1.1.1.1.2s.1.1.1.2.1.1.1.2.1.1.1.2.1.1.1.2.1.1.1.2.1.1.1.2.1.1.1.2.1.1.1.2c0 0 0 .1.1.1 0 0 0 .1.1.1v.1c0 .1.1.1.1.2s.1.1.1.2.1.1.1.2.1.1.1.2.1.1.1.2.1.1.1.2.1.1.1.2.1.1.1.2.1.1.1.2l.1.1.1.1.1.1h.1l.1.1.1.1.1.1s.1 0 .1.1c0 0 0 .1.1.1l.1.1s0 .1.1.1l.1.1.1.1.1.1.1.1.1.1.1.1.1.1c.1 0 .1.1.2.2.1 0 .1.1.2.2.1 0 .1.1.2.1s.1.1.2.1.1.1.2.1.1.1.2.1.1.1.2.1.1.1.2.1.1.1.2.1l.1.1c.1 0 .1.1.2.1s.1.1.2.1.1.1.2.1.1.1.2.1.1.1.2.1.1.1.2.1.1.1.2.1.1.1.2.1c0 0 .1 0 .1.1.1 0 .1.1.2.1s.1.1.2.1.1.1.2.1.1.1.2.1.1.1.2.1.1.1.2.1.1.1.2.1.1.1.2.1.1.1.2.1h.1c.1 0 .1.1.2.1s.1.1.2.1.1.1.2.1.1.1.2.1.1 0 .2.1c.1 0 .1.1.2.1s.1 0 .2.1c.1 0 .1 0 .2.1h.1c.1 0 .1 0 .2.1.1 0 .1 0 .2.1.1 0 .1 0 .2.1.1 0 .1 0 .2.1.1 0 .1 0 .2.1.1 0 .1 0 .2.1.1 0 .1 0 .2.1.1 0 .1 0 .2.1.1 0 .1 0 .2.1h9.8c.1 0 .1 0 .2-.1.1 0 .1 0 .2-.1.1 0 .1 0 .2-.1h.1c-1.2 2.1-1.2 2-1.2 2z" fill="url(#SVGID_7_)"/><linearGradient id="SVGID_8_" gradientUnits="userSpaceOnUse" x1="267.414" y1="54.983" x2="284.772" y2="21.032"><stop offset=".048" stop-color="#846fde"/><stop offset=".229" stop-color="#8c60d0"/><stop offset=".581" stop-color="#a137ab"/><stop offset=".995" stop-color="#bd0079"/></linearGradient><path d="M305.2 28.6v-2.2c-.1-.4-.1-.7-.2-1.1v-1.4c0-.1 0-.1-.1-.2 0-.1 0-.1-.1-.2 0-.1 0-.1-.1-.2 0-.1 0-.1-.1-.2 0-.1 0-.1-.1-.2-.1-.4-.2-.7-.3-1.1 0-.1 0-.1-.1-.2 0-.1 0-.1-.1-.2 0-.1 0-.1-.1-.2 0-.1 0-.1-.1-.2 0-.1 0-.1-.1-.2 0-.1 0-.1-.1-.2 0-.1 0-.1-.1-.2 0-.1 0-.1-.1-.2 0-.1 0-.1-.1-.2 0-.1 0-.1-.1-.2 0-.1 0-.1-.1-.2 0-.1 0-.1-.1-.2 0-.1 0-.1-.1-.2-.1-.4-.3-.7-.4-1 0-.1 0-.1-.1-.2 0-.1 0-.1-.1-.2 0-.1-.1-.1-.1-.2s-.1-.1-.1-.2-.1-.1-.1-.2-.1-.1-.1-.2-.1-.1-.1-.2-.1-.1-.1-.2-.1-.1-.1-.2-.1-.1-.1-.2-.1-.1-.1-.2-.1-.1-.1-.2-.1-.1-.1-.2-.1-.1-.1-.2c-.1-.3-.3-.7-.5-1 0 0 0-.1-.1-.1v-.1c0-.1-.1-.1-.1-.2s-.1-.1-.1-.2-.1-.1-.1-.2-.1-.1-.1-.2-.1-.1-.1-.2-.1-.1-.1-.2-.1-.1-.1-.2-.1-.1-.1-.2-.1-.1-.1-.2-.1-.1-.1-.2-.1-.1-.1-.2-.1-.1-.1-.2l-.6-.9c0-.1-.1-.1-.1-.2s-.1-.1-.1-.2-.1-.1-.1-.2-.1-.1-.1-.2-.1-.1-.1-.2-.1-.1-.1-.2-.1-.1-.1-.2-.1-.1-.1-.2-.1-.1-.1-.2-.1-.1-.1-.2-.1-.1-.1-.2-.1-.1-.1-.2-.1-.1-.1-.2-.1-.1-.1-.2-.1-.1-.1-.2c-.2-.3-.4-.6-.7-.9 0-.1-.1-.1-.1-.2s-.1-.1-.1-.2c0 0-.1-.1-.1-.2s-.1-.1-.1-.2l-.1-.1-.1-.1-.1-.1-.1-.1-.1-.1-.1-.1-.1-.1-.1-.1-.1-.1-.1-.1-.1-.1c-.2-.3-.5-.6-.8-.8l-.1-.1-.1-.1-.1-.1-.1-.1-.1-.1-.1-.1h-.1s0-.1-.1-.1l-.1-.1-.1-.1-.1-.1-.1-.1s-.1 0-.1-.1l-.1-.1s-.1 0-.1-.1l-.1-.1-.1-.1-.1-.1-.1-.1-.1-.1c-.3-.3-.5-.5-.8-.7l-.1-.1-.1-.1-.1-.1-.1-.1-.1-.1-.1-.1-.1-.1c-.1 0-.1-.1-.2-.1s-.1-.1-.2-.1-.1-.1-.2-.1-.1-.1-.2-.1-.1-.1-.2-.1-.1-.1-.2-.1-.1-.1-.2-.1-.1-.1-.2-.1-.1-.1-.2-.1l-.9-.6c-.1 0-.1-.1-.2-.1s-.1-.1-.2-.1-.1-.1-.2-.1-.1-.1-.2-.1-.1-.1-.2-.1-.1-.1-.2-.1-.1-.1-.2-.1-.1-.1-.2-.1-.1-.1-.2-.1-.1-.1-.2-.1-.1-.1-.2-.1-.1-.1-.2-.1-.1-.1-.2-.1-.1-.1-.2-.1-.1-.1-.2-.1-.1-.1-.2-.1-.1-.1-.2-.1c-.3-.2-.6-.4-.9-.5-.1 0-.1-.1-.2-.1s-.1-.1-.2-.1-.1-.1-.2-.1-.1-.1-.2-.1-.1-.1-.2-.1-.1-.1-.2-.1-.1-.1-.2-.1-.1-.1-.2-.1-.1-.1-.2-.1-.1-.1-.2-.1-.1-.1-.2-.1-.1-.1-.2-.1-.1-.1-.2-.1-.1 0-.2-.1c-.1 0-.1 0-.2-.1-.1 0-.1 0-.2-.1-.3-.1-.6-.3-.9-.4-.1 0-.1 0-.2-.1-.1 0-.1 0-.2-.1-.1 0-.1 0-.2-.1-.1 0-.1 0-.2-.1-.1 0-.1 0-.2-.1-.1 0-.1 0-.2-.1-.1 0-.1 0-.2-.1-.1 0-.1 0-.2-.1-.1 0-.1 0-.2-.1-.1 0-.1 0-.2-.1-.1 0-.1 0-.2-.1-.1 0-.1 0-.2-.1-.1 0-.1 0-.2-.1-.1 0-.1 0-.2-.1-.1 0-.1 0-.2-.1-.1 0-.1 0-.2-.1h-.1c-.1 0-.3.1-.4.1-.1 0-.1 0-.2.1-.1 0-.1 0-.2.1-.1 0-.1 0-.2.1-.1 0-.1 0-.2.1-.1 0-.1 0-.2.1-.1 0-.1 0-.2.1-.1 0-.1 0-.2.1-.1 0-.1 0-.2.1-.1 0-.1 0-.2.1-.1 0-.1 0-.2.1-.1 0-.1 0-.2.1-.1 0-.1.1-.2.1s-.1.1-.2.1c-.3.1-.6.2-.9.4-.1 0-.1.1-.2.1s-.1.1-.2.1-.1.1-.2.1-.1.1-.2.1-.1.1-.2.1-.1.1-.2.1-.1.1-.2.1-.1.1-.2.1-.1.1-.2.1-.1.1-.2.1-.1.1-.2.1-.1.1-.2.1c-.3.1-.6.3-.9.5-.1 0-.1.1-.2.1s-.1.1-.2.1-.1.1-.2.1-.1.1-.2.1c1.7.4 1.7.4 1.6.5-.1 0-.1.1-.2.1s-.1.1-.2.1-.1.1-.2.1-.1.1-.2.1-.1.1-.2.1-.1.1-.2.1-.1.1-.2.1-.1.1-.2.1c-.3.2-.6.4-.8.6-.1 0-.1.1-.2.1s-.1.1-.2.1-.1.1-.2.1-.1.1-.2.1-.1.1-.2.1-.1.1-.2.1-.1.1-.2.1-.1.1-.2.1-.1.1-.2.1-.1.1-.2.1-.1.1-.2.1-.1.1-.2.1-.1.1-.2.1c-.3.2-.5.4-.8.7-.1 0-.1.1-.2.1s-.1.1-.2.1-.1.1-.2.1-.1.1-.2.1-.1.1-.2.1-.1.1-.2.1-.1.1-.2.1-.1.1-.2.1-.1.1-.2.1-.1.1-.2.1-.1.1-.2.2c-.1 0-.1.1-.1.2-.1 0-.1.1-.1.2l-.7.7-.1.1-.1.1-.1.1-.1.1v.1l-.1.1v.1l-.1.1-.1.1-.1.1s0 .1-.1.1l-.1.1s0 .1-.1.1l-.1.1-.1.1v.1l-.1.1-.1.1-.1.1-.1.1c-.2.3-.4.5-.6.8 0 .1-.1.1-.1.2s-.1.1-.1.2-.1.1-.1.2-.1.1-.1.2-.1.1-.1.2-.1.1-.1.2-.1.1-.1.2-.1.1-.1.2-.1.1-.1.2-.1.1-.1.2-.1.1-.1.2-.1.1-.1.2-.1.1-.1.2-.1.1-.1.2-.1.1-.1.2c-.2.3-.4.6-.5.9 0 .1-.1.1-.1.2s-.1.1-.1.2-.1.1-.1.2-.1.1-.1.2-.1.1-.1.2-.1.1-.1.2-.1.1-.1.2-.1.1-.1.2-.1.1-.1.2-.1.1-.1.2-.1.1-.1.2-.1.1-.1.2-.1.1-.1.2c-.2.3-.3.6-.4.9 0 .1-.1.1-.1.2s-.1.1-.1.2-.1.1-.1.2-.1.1-.1.2-.1.1-.1.2-.1.1-.1.2-.1.1-.1.2-.1.1-.1.2-.1.1-.1.2-.1.1-.1.2-.1.1-.1.2-.1.1-.1.2 0 .1-.1.2c0 .1 0 .1-.1.2-.1.3-.2.6-.4.9 0 .1 0 .1-.1.2 0 .1 0 .1-.1.2 0 .1 0 .1-.1.2 0 .1 0 .1-.1.2 0 .1 0 .1-.1.2 0 .1 0 .1-.1.2 0 .1 0 .1-.1.2 0 .1 0 .1-.1.2v.2c0 .1 0 .1-.1.2 0 .1 0 .1-.1.2 0 .1 0 .1-.1.2 0 .1 0 .1-.1.2 0 .1-.1.3-.1.4-.1.2-.1.5-.2.7 0 .1 0 .1-.1.2 0 .1 0 .1-.1.2v2.4c-.1.3-.1.6-.2.9v2.8c0 .3-.1.6-.1.9v6.7c0 .3 0 .6.1.9v3c0 .3.1.6.2.9v2.4c0 .1 0 .1.1.2 0 .1 0 .1.1.2 0 .1 0 .1.1.2 0 .1 0 .1.1.2 0 .1.1.3.1.4 0 .1.1.2.1.3 0 .1 0 .1.1.2 0 .1 0 .1.1.2 0 .1 0 .1.1.2 0 .1 0 .1.1.2 0 .1 0 .1.1.2 0 .1 0 .1.1.2 0 .1 0 .1.1.2 0 .1 0 .1.1.2 0 .1 0 .1.1.2 0 .1 0 .1.1.2 0 .1 0 .1.1.2 0 .1 0 .1.1.2 0 .1 0 .1.1.2 0 .1 0 .1.1.2 0 .1 0 .1.1.2 0 .1 0 .1.1.2 0 0 0 .1.1.1.1.2.1.4.2.5 0 .1 0 .1.1.2 0 .1 0 .1.1.2 0 .1 0 .1.1.2 0 .1 0 .1.1.2 0 .1 0 .1.1.2 0 .1.1.1.1.2s.1.1.1.2.1.1.1.2.1.1.1.2.1.1.1.2.1.1.1.2.1.1.1.2.1.1.1.2.1.1.1.2.1.1.1.2c.1.3.3.6.4.8 0 .1.1.1.1.2s.1.1.1.2.1.1.1.2.1.1.1.2.1.1.1.2.1.1.1.2.1.1.1.2.1.1.1.2.1.1.1.2.1.1.1.2.1.1.1.2.1.1.1.2.1.1.1.2.1.1.1.2.1.1.1.2c.2.3.3.5.5.8 0 .1.1.1.1.2s.1.1.1.2.1.1.1.2.1.1.1.2.1.1.1.2.1.1.1.2.1.1.1.2.1.1.1.2.1.1.1.2.1.1.1.2.1.1.1.2.1.1.1.1c0 .1.1.1.1.1 0 .1.1.1.1.1.1.2.3.4.4.5l.1.1.1.1.1.1.1.1.1.1.1.1.1.1.1.1.1.1.1.1.1.1.1.1.1.1.1.1c.2.2.4.5.7.7l.1.1.1.1.1.1.1.1.1.1h.1s0 .1.1.1l.1.1.1.1s.1 0 .1.1l.1.1s.1 0 .1.1l.1.1.1.1.1.1.1.1.1.1c.2.2.5.4.7.6l.1.1.1.1c.1 0 .1.1.2.1l.1.1c.1 0 .1.1.2.1s.1.1.2.1.1.1.2.1.1.1.2.1.1.1.2.1.1.1.2.1.1.1.2.1.1.1.2.1c.2.2.5.4.8.5.1 0 .1.1.2.1s.1.1.2.1.1.1.2.1.1.1.2.1.1.1.2.1.1.1.2.1.1.1.2.1.1.1.2.1.1.1.2.1.1.1.2.1.1.1.2.1.1.1.2.1c.3.2.5.3.8.4.1 0 .1.1.2.1s.1.1.2.1.1.1.2.1.1.1.2.1.1.1.2.1.1.1.2.1.1.1.2.1.1.1.2.1c0 0 .1 0 .1.1.1 0 .1.1.2.1s.1.1.2.1.1 0 .2.1c.3.1.5.2.8.3.1 0 .1 0 .2.1.1 0 .1 0 .2.1.1 0 .1 0 .2.1.1 0 .1 0 .2.1.1 0 .1 0 .2.1.1 0 .1 0 .2.1.1 0 .1 0 .2.1.1 0 .1 0 .2.1.1 0 .1 0 .2.1.1 0 .1 0 .2.1.1 0 .1 0 .2.1.3.1.5.2.8.2.1 0 .1 0 .2.1.1 0 .1 0 .2.1.1 0 .1 0 .2.1h1.6c.3.1.6.1.8.2h2.2c.3 0 .6.1.8.1h5.2c.6 0 1.1-.1 1.7-.3 1.7-.4 3.2-1.3 4.5-2.7 1.6-1.8 2.3-4.1 2.2-6.3v-1h-.1c-.1 0-.1 0-.2.1-.1 0-.1 0-.2.1-.1 0-.1 0-.2.1h-9.8c-.1 0-.1 0-.2-.1-.1 0-.1 0-.2-.1-.1 0-.1 0-.2-.1-.1 0-.1 0-.2-.1-.1 0-.1 0-.2-.1-.1 0-.1 0-.2-.1-.1 0-.1 0-.2-.1-.1 0-.1 0-.2-.1-.1 0-.1 0-.2-.1h-.1c-.1 0-.1 0-.2-.1-.1 0-.1 0-.2-.1-.1 0-.1-.1-.2-.1s-.1 0-.2-.1c-.1 0-.1-.1-.2-.1s-.1-.1-.2-.1-.1-.1-.2-.1-.1-.1-.2-.1h-.1c-.1 0-.1-.1-.2-.1s-.1-.1-.2-.1-.1-.1-.2-.1-.1-.1-.2-.1-.1-.1-.2-.1-.1-.1-.2-.1-.1-.1-.2-.1-.1-.1-.2-.1-.1-.1-.2-.1c0 0-.1 0-.1-.1-.1 0-.1-.1-.2-.1s-.1-.1-.2-.1-.1-.1-.2-.1-.1-.1-.2-.1-.1-.1-.2-.1-.1-.1-.2-.1-.1-.1-.2-.1-.1-.1-.2-.1l-.1-.1c-.1 0-.1-.1-.2-.1s-.1-.1-.2-.1-.1-.1-.2-.1-.1-.1-.2-.1-.1-.1-.2-.1-.1-.1-.2-.1-.1-.1-.2-.1-.1-.1-.2-.2c-.1 0-.1-.1-.2-.2l-.1-.1-.1-.1-.1-.1-.1-.1-.1-.1-.1-.1-.1-.1s0-.1-.1-.1l-.1-.1s0-.1-.1-.1c0 0-.1 0-.1-.1l-.1-.1-.1-.1-.1-.1h-.1l-.1-.1-.1-.1-.1-.1c0-.1-.1-.1-.1-.2s-.1-.1-.1-.2-.1-.1-.1-.2-.1-.1-.1-.2-.1-.1-.1-.2-.1-.1-.1-.2-.1-.1-.1-.2-.1-.1-.1-.2-.1-.1-.1-.2v-.1s0-.1-.1-.1c0 0 0-.1-.1-.1 0-.1-.1-.1-.1-.2s-.1-.1-.1-.2-.1-.1-.1-.2-.1-.1-.1-.2-.1-.1-.1-.2-.1-.1-.1-.2-.1-.1-.1-.2-.1-.1-.1-.2-.1-.1-.1-.2c0 0 0-.1-.1-.1 0-.1-.1-.1-.1-.2s-.1-.1-.1-.2-.1-.1-.1-.2-.1-.1-.1-.2-.1-.1-.1-.2-.1-.1-.1-.2-.1-.1-.1-.2-.1-.1-.1-.2-.1-.1-.1-.2c0 0 0-.1-.1-.1 0-.1-.1-.1-.1-.2s-.1-.1-.1-.2-.1-.1-.1-.2-.1-.1-.1-.2-.1-.1-.1-.2-.1-.1-.1-.2-.1-.1-.1-.2-.1-.1-.1-.2 0-.1-.1-.2c0-.1 0-.1-.1-.2v-.1c0-.1 0-.1-.1-.2 0-.1 0-.1-.1-.2 0-.1 0-.1-.1-.2 0-.1 0-.1-.1-.2 0-.1 0-.1-.1-.2 0-.1 0-.1-.1-.2 0-.1 0-.1-.1-.2 0-.1 0-.1-.1-.2 0-.1 0-.1-.1-.2 0-.1 0-.1-.1-.2V30.8c0-.1 0-.1.1-.2v-3c0-.1 0-.1.1-.2 0-.1 0-.1.1-.2 0-.1 0-.1.1-.2 0-.1 0-.1.1-.2 0-.1 0-.1.1-.2 0-.1 0-.1.1-.2 0-.1 0-.1.1-.2 0-.1 0-.1.1-.2 0 0 0-.1.1-.1v-.1c0-.1 0-.1.1-.2 0-.1 0-.1.1-.2 0-.1 0-.1.1-.2 0-.1 0-.1.1-.2 0-.1 0-.1.1-.2 0-.1 0-.1.1-.2 0-.1 0-.1.1-.2 0-.1.1-.1.1-.2s.1-.1.1-.2v-.1l.1-.1c0-.1.1-.1.1-.2s.1-.1.1-.2.1-.1.1-.2.1-.1.1-.2.1-.1.1-.2.1-.1.1-.2.1-.1.1-.2.1-.1.1-.2c0 0 0-.1.1-.1l.1-.1.1-.1.1-.1.1-.1.1-.1.1-.1.1-.1.1-.1.1-.1.1-.1.1-.1.1-.1s0-.1.1-.1c0 0 0-.1.1-.1v-.1s0-.1.1-.1l.1-.1.1-.1.1-.1.1-.1.1-.1v-.1l.1-.1.1-.1.1-.1.1-.1.1-.1.1-.1.1-.1.1-.1.1-.1.1-.1.1-.1.1-.1.1-.1.1-.1.1-.1.1-.1.1-.1.1-.1.1-.1.1-.1.1-.1.1-.1s.1 0 .1-.1l.1-.1.1-.1.1-.1.1-.1.1-.1.1-.1.1-.1.1-.1.1-.1h.1c.1 0 .1-.1.1-.1.1 0 .1-.1.1-.1.1 0 .1-.1.2-.1s.1-.1.2-.1.1 0 .2-.1c.1 0 .1 0 .2-.1.1 0 .1 0 .2-.1.1 0 .1 0 .2-.1h.1s.1 0 .1-.1c.1 0 .1 0 .2-.1.1 0 .1 0 .2-.1.1 0 .1 0 .2-.1.1 0 .1 0 .2-.1.1 0 .1 0 .2-.1.1 0 .1 0 .2-.1.1 0 .1 0 .2-.1.1 0 .1 0 .2-.1h12c.1 0 .1 0 .2.1.1 0 .1 0 .2.1.1 0 .1 0 .2.1.1 0 .1 0 .2.1.1 0 .1 0 .2.1.1 0 .1 0 .2.1.1 0 .1 0 .2.1.1 0 .1 0 .2.1.1 0 .1 0 .2.1.1 0 .1 0 .2.1.1 0 .1 0 .2.1 0 0 .1 0 .1.1.1 0 .1 0 .2.1.1 0 .1 0 .2.1.1 0 .1 0 .2.1.1 0 .1 0 .2.1.1 0 .1 0 .2.1.1 0 .1 0 .2.1.1 0 .1 0 .2.1l.1.1c.1 0 .1.1.2.1l.1.1.1.1.1.1.1.1.1.1.1.1.1.1.1.1.1.1.1.1.1.1.1.1.1.1.1.1.1.1.1.1.1.1.1.1.1.1.1.1.1.1.1.1.1.1.1.1.1.1.1.1.1.1s.1 0 .1.1l.1.1.1.1s.1 0 .1.1c0 0 .1 0 .1.1l.1.1.1.1.1.1.1.1.1.1h.1s0 .1.1.1l.1.1.1.1.1.1.1.1.1.1.1.1.1.1.1.1.1.1.1.1.1.1.1.1.1.1.1.1.1.1.1.1.1.1.1.1.1.1.1.1.1.1.1.1.1.1.1.1.1.1.1.1s0 .1.1.1c0 .1.1.1.1.2s.1.1.1.2.1.1.1.2.1.1.1.2.1.1.1.2.1.1.1.2.1.1.1.2.1.1.1.2.1.1.1.2c0 0 0 .1.1.1 0 .1.1.1.1.2s.1.1.1.2 0 .1.1.2c0 .1 0 .1.1.2 0 .1 0 .1.1.2 0 .1 0 .1.1.2 0 .1 0 .1.1.2 0 .1 0 .1.1.2 0 .1 0 .1.1.2 0 .1 0 .1.1.2 0 .1 0 .1.1.2 0 .1 0 .1.1.2 0 .1 0 .1.1.2 0 .1 0 .1.1.2 0 .1 0 .1.1.2 0 .1 0 .1.1.2 0 .1 0 .1.1.2 0 .1 0 .1.1.2v.8c-1.3-1.4-1.2-1.3-1.2-1.3 0 .1 0 .1 0 0z" fill="url(#SVGID_8_)"/><linearGradient id="SVGID_9_" gradientUnits="userSpaceOnUse" x1="298.571" y1="-12.787" x2="316.116" y2="100.796"><stop offset="0" stop-color="#ff0059"/><stop offset="1" stop-color="#e27a2c"/></linearGradient><path d="M328.4 61.7V28.4c0-.4-.1-.8-.1-1.1v-2.6c-.1-.4-.1-.7-.2-1.1v-1.4c0-.1 0-.1-.1-.2 0-.1 0-.1-.1-.2 0-.1 0-.1-.1-.2 0-.1 0-.1-.1-.2 0-.1 0-.1-.1-.2-.1-.4-.2-.7-.3-1.1 0-.1 0-.1-.1-.2 0-.1 0-.1-.1-.2 0-.1 0-.1-.1-.2 0-.1 0-.1-.1-.2 0-.1 0-.1-.1-.2 0-.1 0-.1-.1-.2 0-.1 0-.1-.1-.2 0-.1 0-.1-.1-.2 0-.1 0-.1-.1-.2 0-.1 0-.1-.1-.2 0-.1 0-.1-.1-.2 0-.1 0-.1-.1-.2 0-.1 0-.1-.1-.2-.1-.4-.3-.7-.4-1 0-.1 0-.1-.1-.2 0-.1 0-.1-.1-.2 0-.1-.1-.1-.1-.2s-.1-.1-.1-.2-.1-.1-.1-.2-.1-.1-.1-.2-.1-.1-.1-.2-.1-.1-.1-.2-.1-.1-.1-.2-.1-.1-.1-.2-.1-.1-.1-.2-.1-.1-.1-.2-.1-.1-.1-.2-.1-.1-.1-.2c-.1-.3-.3-.7-.5-1 0-.1-.1-.1-.1-.2s-.1-.1-.1-.2-.1-.1-.1-.2-.1-.1-.1-.2-.1-.1-.1-.2-.1-.1-.1-.2-.1-.1-.1-.2-.1-.1-.1-.2-.1-.1-.1-.2-.1-.1-.1-.2-.1-.1-.1-.2-.1-.1-.1-.2-.1-.1-.1-.2l-.6-.9c0-.1-.1-.1-.1-.2s-.1-.1-.1-.2-.1-.1-.1-.2-.1-.1-.1-.2-.1-.1-.1-.2-.1-.1-.1-.2-.1-.1-.1-.2-.1-.1-.1-.2-.1-.1-.1-.2-.1-.1-.1-.2-.1-.1-.1-.2-.1-.1-.1-.2-.1-.1-.1-.2-.1-.1-.1-.2-.1-.1-.1-.2c-.2-.3-.4-.6-.7-.9 0-.1-.1-.1-.1-.2s-.1-.1-.1-.2c0 0-.1-.1-.1-.2s-.1-.1-.1-.2l-.1-.1-.1-.1-.1-.1-.1-.1-.1-.1-.1-.1-.1-.1-.1-.1-.1-.1-.1-.1-.1-.1c-.2-.3-.5-.6-.8-.8l-.1-.1-.1-.1-.1-.1-.1-.1-.1-.1-.1-.1h-.1s0-.1-.1-.1l-.1-.1-.1-.1-.1-.1-.1-.1s-.1 0-.1-.1l-.1-.1s-.1 0-.1-.1l-.1-.1-.1-.1-.1-.1-.1-.1-.1-.1c-.3-.3-.5-.5-.8-.7l-.1-.1-.1-.1-.1-.1-.1-.1-.1-.1-.1-.1-.1-.1c-.1 0-.1-.1-.2-.1s-.1-.1-.2-.1-.1-.1-.2-.1-.1-.1-.2-.1-.1-.1-.2-.1-.1-.1-.2-.1-.1-.1-.2-.1l-.1-.1c-.1 0-.1-.1-.2-.1l-.9-.6c-.1 0-.1-.1-.2-.1s-.1-.1-.2-.1-.1-.1-.2-.1-.1-.1-.2-.1-.1-.1-.2-.1-.1-.1-.2-.1-.1-.1-.2-.1-.1-.1-.2-.1-.1-.1-.2-.1-.1-.1-.2-.1-.1-.1-.2-.1-.1-.1-.2-.1-.1-.1-.2-.1-.1-.1-.2-.1-.1-.1-.2-.1-.1-.1-.2-.1-.1-.1-.2-.1c-.3-.2-.6-.4-.9-.5-.1 0-.1-.1-.2-.1s-.1-.1-.2-.1-.1-.1-.2-.1-.1-.1-.2-.1-.1-.1-.2-.1-.1-.1-.2-.1-.1-.1-.2-.1-.1-.1-.2-.1-.1-.1-.2-.1-.1-.1-.2-.1-.1-.1-.2-.1-.1-.1-.2-.1-.1-.1-.2-.1-.1 0-.2-.1c-.1 0-.1 0-.2-.1-.1 0-.1 0-.2-.1-.3-.1-.6-.3-.9-.4-.1 0-.1 0-.2-.1-.1 0-.1 0-.2-.1-.1 0-.1 0-.2-.1-.1 0-.1 0-.2-.1-.1 0-.1 0-.2-.1-.1 0-.1 0-.2-.1-.1 0-.1 0-.2-.1-.1 0-.1 0-.2-.1-.1 0-.1 0-.2-.1-.1 0-.1 0-.2-.1-.1 0-.1 0-.2-.1-.1 0-.1 0-.2-.1-.1 0-.1 0-.2-.1-.1 0-.1 0-.2-.1-.1 0-.1 0-.2-.1-.1 0-.1 0-.2-.1-.3-.1-.6-.2-1-.3-.1 0-.1 0-.2-.1-.1 0-.1 0-.2-.1h-2.6c-.3-.1-.7-.1-1-.2h-3c-.3 0-.7-.1-1-.1h-6.8c-.3 0-.7.1-1 .1h-2.6c-.3.1-.6.1-1 .2h-1.6c-.1 0-.1 0-.2.1-.1 0-.1 0-.2.1-.1 0-.1 0-.2.1-.1 0-.1 0-.2.1-.1 0-.1 0-.2.1-.1 0-.1 0-.2.1-.2 0-.3.1-.5.2h.1c.1 0 .1 0 .2.1.1 0 .1 0 .2.1.1 0 .1 0 .2.1.1 0 .1 0 .2.1.1 0 .1 0 .2.1.1 0 .1 0 .2.1.1 0 .1 0 .2.1.1 0 .1 0 .2.1.1 0 .1 0 .2.1.1 0 .1 0 .2.1.1 0 .1 0 .2.1.1 0 .1 0 .2.1.1 0 .1 0 .2.1.1 0 .1 0 .2.1.1 0 .1 0 .2.1.1 0 .1 0 .2.1.3.1.6.2.9.4.1 0 .1 0 .2.1.1 0 .1 0 .2.1.1 0 .1 0 .2.1.1 0 .1 0 .2.1.1 0 .1 0 .2.1.1 0 .1.1.2.1s.1.1.2.1.1.1.2.1.1.1.2.1.1.1.2.1.1.1.2.1.1.1.2.1.1.1.2.1.1.1.2.1.1.1.2.1.1.1.2.1c.3.2.6.3.9.5.1 0 .1.1.2.1s.1.1.2.1.1.1.2.1.1.1.2.1.1.1.2.1.1.1.2.1.1.1.2.1.1.1.2.1.1.1.2.1.1.1.2.1.1.1.2.1.1.1.2.1.1.1.2.1.1.1.2.1.1.1.2.1.1.1.2.1.1.1.2.1l.9.6c.1 0 .1.1.2.1s.1.1.2.1.1.1.2.1.1.1.2.1.1.1.2.1.1.1.2.1.1.1.2.1.1.1.2.1.1.1.2.1.1.1.1.1c.1 0 .1.1.1.1.1 0 .1.1.1.1.1 0 .1.1.1.1l.1.1c.1 0 .1.1.1.1l.1.1c.3.2.6.5.8.7l.1.1.1.1.1.1.1.1.1.1s.1 0 .1.1l.1.1s.1 0 .1.1l.1.1.1.1.1.1.1.1s0 .1.1.1h.1l.1.1.1.1.1.1.1.1.1.1.1.1.8.8.1.1.1.1.1.1.1.1.1.1.1.1.1.1.1.1.1.1.1.1.1.1s.1.1.1.2c0 0 .1.1.1.2 0 0 .1.1.1.2 0 0 .1.1.1.2.2.3.5.6.7.9 0 .1.1.1.1.2s.1.1.1.2.1.1.1.2.1.1.1.2.1.1.1.2.1.1.1.2.1.1.1.2.1.1.1.2.1.1.1.2.1.1.1.2.1.1.1.2.1.1.1.2.1.1.1.2.1.1.1.2.1.1.1.2l.6.9c0 .1.1.1.1.2s.1.1.1.2.1.1.1.2.1.1.1.2.1.1.1.2.1.1.1.2.1.1.1.2.1.1.1.2.1.1.1.2.1.1.1.2.1.1.1.2.1.1.1.2v.1s0 .1.1.1c.2.3.3.7.5 1 0 .1.1.1.1.2s.1.1.1.2.1.1.1.2.1.1.1.2.1.1.1.2.1.1.1.2.1.1.1.2.1.1.1.2.1.1.1.2.1.1.1.2.1.1.1.2.1.1.1.2.1.1.1.2 0 .1.1.2c.2.3.3.7.4 1 0 .1.1.1.1.2s0 .1.1.2c0 .1 0 .1.1.2 0 .1 0 .1.1.2 0 .1 0 .1.1.2 0 .1 0 .1.1.2 0 .1 0 .1.1.2 0 .1 0 .1.1.2 0 .1 0 .1.1.2 0 .1 0 .1.1.2 0 .1 0 .1.1.2 0 .1 0 .1.1.2 0 .1 0 .1.1.2.1.4.2.7.3 1.1 0 .1 0 .1.1.2 0 .1 0 .1.1.2 0 .1 0 .1.1.2 0 .1 0 .1.1.2 0 .1 0 .1.1.2v1.4c.1.4.2.7.2 1.1v37.9c-.1 1.3.1 2.6.4 3.8.6 2.2 1.7 4.3 3.4 5.9 4.7 4.5 12 4.1 16.2-1 2.8-3.5 3.7-6.8 3.6-9.9z" fill="url(#SVGID_9_)"/><linearGradient id="SVGID_10_" gradientUnits="userSpaceOnUse" x1="281.419" y1="-10.144" x2="298.964" y2="103.438"><stop offset="0" stop-color="#db0093"/><stop offset=".005" stop-color="#da0093" stop-opacity="0"/><stop offset="1" stop-color="#554b9b"/></linearGradient><path d="M315.1 61.8V28.9c0-10.7-8-22.9-22.6-24.8-7.2-.9-13-.2-19.8 4.5-6.8 4.7-18.4 17.5-9 35.9 7.3 14.4 23.7 14.2 23.7 14.2V35.4s-.3-6.9 2.3-7.4c-.3-.1-.5-.1-.8-.1-2-.2-4 .4-5.6 1.6-.4.3-.8.7-1.2 1.1-.3.3-.5.6-.7.9-.9 1.3-1.3 2.8-1.4 4.3v14.8c-.1 0-.1-.1-.2-.1s-.1-.1-.1-.1-.1 0-.1-.1c0 0-.1 0-.1-.1l-.1-.1-.1-.1-.1-.1-.1-.1-.1-.1-.1-.1-.1-.1s-.1 0-.1-.1l-.1-.1-.1-.1-.1-.1-.1-.1-.1-.1-.1-.1-.1-.1-.1-.1s-.1 0-.1-.1l-.1-.1-.1-.1s-.1 0-.1-.1c0 0-.1 0-.1-.1l-.1-.1-.1-.1-.1-.1h-.1s0-.1-.1-.1l-.1-.1-.1-.1-.1-.1-.1-.1-.1-.1-.1-.1-.1-.1-.1-.1-.1-.1-.1-.1-.1-.1-.1-.1s0-.1-.1-.1l-.1-.1-.1-.1-.1-.1s0-.1-.1-.1l-.1-.1-.1-.1-.1-.1-.1-.1-.1-.1-.1-.1s0-.1-.1-.1l-.1-.1-.1-.1-.1-.1-.1-.1-.1-.1-.1-.1-.1-.1-.1-.1-.1-.1-.1-.1s0-.1-.1-.1c0 0 0-.1-.1-.1 0-.1-.1-.1-.1-.2s0-.1-.1-.2c0-.1 0-.1-.1-.2 0-.1 0-.1-.1-.2 0-.1 0-.1-.1-.2 0-.1 0-.1-.1-.2 0-.1 0-.1-.1-.2 0-.1 0-.1-.1-.2 0-.1 0-.1-.1-.2 0-.1 0-.1-.1-.2V42c0-.1 0-.1-.1-.2 0-.1 0-.1-.1-.2 0-.1 0-.1-.1-.2 0-.1 0-.1-.1-.2 0-.1 0-.1-.1-.2 0-.1 0-.1-.1-.2 0-.1 0-.1-.1-.2 0-.1 0-.1-.1-.2 0-.1 0-.1-.1-.2 0-.1 0-.1-.1-.2 0-.1 0-.1-.1-.2V26c0-.1 0-.1.1-.2 0-.1 0-.1.1-.2 0-.1 0-.1.1-.2 0-.1 0-.1.1-.2 0-.1 0-.1.1-.2 0-.1 0-.1.1-.2 0-.1 0-.1.1-.2 0-.1 0-.1.1-.2 0 0 0-.1.1-.1v-.1c0-.1 0-.1.1-.2 0-.1 0-.1.1-.2 0-.1 0-.1.1-.2 0-.1 0-.1.1-.2 0-.1 0-.1.1-.2 0-.1 0-.1.1-.2 0-.1 0-.1.1-.2 0-.1.1-.1.1-.2s.1-.1.1-.2v-.1l.1-.1c0-.1.1-.1.1-.2s.1-.1.1-.2.1-.1.1-.2.1-.1.1-.2.1-.1.1-.2.1-.1.1-.2.1-.1.1-.2.1-.1.1-.2c0 0 0-.1.1-.1l.1-.1.1-.1.1-.1.1-.1.1-.1.1-.1.1-.1.1-.1.1-.1.1-.1.1-.1.1-.1s0-.1.1-.1c0 0 0-.1.1-.1V19s0-.1.1-.1l.1-.1.1-.1.1-.1.1-.1.1-.1v-.1l.1-.1.1-.1.1-.1.1-.1.1-.1.1-.1.1-.1.1-.1.1-.1.1-.1.1-.1.1-.1.1-.1.1-.1.1-.1.1-.1.1-.1.1-.1.1-.1.1-.1.1-.1.1-.1s.1 0 .1-.1l.1-.1.1-.1.1-.1.1-.1.1-.1.1-.1.1-.1.1-.1.1-.1h.1c.1 0 .1-.1.1-.1.1 0 .1-.1.1-.1.1 0 .1-.1.2-.1s.1-.1.2-.1.1 0 .2-.1c.1 0 .1 0 .2-.1.1 0 .1 0 .2-.1.1 0 .1 0 .2-.1h.1s.1 0 .1-.1c.1 0 .1 0 .2-.1.1 0 .1 0 .2-.1.1 0 .1 0 .2-.1.1 0 .1 0 .2-.1.1 0 .1 0 .2-.1.1 0 .1 0 .2-.1.1 0 .1 0 .2-.1.1 0 .1 0 .2-.1h12c.1 0 .1 0 .2.1.1 0 .1 0 .2.1.1 0 .1 0 .2.1.1 0 .1 0 .2.1.1 0 .1 0 .2.1.1 0 .1 0 .2.1.1 0 .1 0 .2.1.1 0 .1 0 .2.1.1 0 .1 0 .2.1.1 0 .1 0 .2.1.1 0 .1 0 .2.1 0 0 .1 0 .1.1.1 0 .1 0 .2.1.1 0 .1 0 .2.1.1 0 .1 0 .2.1.1 0 .1 0 .2.1.1 0 .1 0 .2.1.1 0 .1 0 .2.1.1 0 .1 0 .2.1l.1.1c.1 0 .1.1.2.1l.1.1.1.1.1.1.1.1.1.1.1.1.1.1.1.1.1.1.1.1.1.1.1.1.1.1.1.1.1.1.1.1.1.1.1.1.1.1.1.1.1.1.1.1.1.1.1.1.1.1.1.1.1.1s.1 0 .1.1l.1.1.1.1s.1 0 .1.1c0 0 .1 0 .1.1l.1.1.1.1.1.1.1.1.1.1h.1s0 .1.1.1l.1.1.1.1.1.1.1.1.1.1.1.1.1.1.1.1.1.1.1.1.1.1.1.1.1.1.1.1.1.1.1.1.1.1.1.1.1.1.1.1.1.1.1.1.1.1.1.1.1.1.1.1s0 .1.1.1c0 .1.1.1.1.2s.1.1.1.2.1.1.1.2.1.1.1.2.1.1.1.2.1.1.1.2.1.1.1.2.1.1.1.2.1.1.1.2c0 0 0 .1.1.1 0 .1.1.1.1.2s.1.1.1.2 0 .1.1.2c0 .1 0 .1.1.2 0 .1 0 .1.1.2 0 .1 0 .1.1.2 0 .1 0 .1.1.2 0 .1 0 .1.1.2 0 .1 0 .1.1.2 0 .1 0 .1.1.2 0 .1 0 .1.1.2 0 .1 0 .1.1.2 0 .1 0 .1.1.2 0 .1 0 .1.1.2 0 .1 0 .1.1.2 0 .1 0 .1.1.2 0 .1 0 .1.1.2 0 .1 0 .1.1.2v1.4c.1.4.1.8.1 1.1v33.5c-.1 1.3.1 2.6.4 3.8.6 2.2 1.7 4.3 3.4 5.9.7.6 1.4 1.2 2.1 1.6 1.2-4.6 1.2-13 1.2-13zM287 58.6h-.2.2zm-1-.2c-.1 0-.1 0-.2-.1.1 0 .1.1.2.1zm-1-.3c.1 0 .1 0 .2.1-.1-.1-.1-.1-.2-.1s-.1 0-.2-.1c.1.1.1.1.2.1zm-3-1.2s.1 0 .1.1c0-.1-.1-.1-.1-.1-.1 0-.1-.1-.2-.1.1 0 .1 0 .2.1zm-1.1-.6c.1 0 .1.1.2.1-.1-.1-.2-.1-.2-.1-.1-.1-.1-.1 0 0-.1-.1-.1-.1 0 0zm-2.4-1.7c.1 0 .1.1.2.1-.1 0-.1-.1-.2-.1 0-.1-.1-.1 0 0-.1-.1 0-.1 0 0zm-2.1-1.9c.1 0 .1 0 0 0 .1 0 .1 0 0 0 0-.1 0-.1 0 0 0-.1 0-.1 0 0zm-1.3-1.6c0-.1-.1-.1-.1-.2 0 .1 0 .1.1.2zm-1.9-2.7c0 .1 0 .1 0 0 0 .1 0 .1 0 0s-.1-.1-.1-.2c0 .1.1.2.1.2zm-.7-1.3c0 .1.1.1.1.2 0-.1-.1-.2-.1-.2 0-.1-.1-.1-.1-.2 0 .1.1.1.1.2zm-1.5-3.7c0 .1 0 .1.1.2 0 0 0-.1-.1-.2 0-.1 0-.1-.1-.2.1.1.1.2.1.2zm-.9-4.7v-.2.2z" opacity=".78" fill="url(#SVGID_10_)"/><linearGradient id="SVGID_11_" gradientUnits="userSpaceOnUse" x1="51.604" y1="-209.5" x2="88.622" y2="-209.5"><stop offset="0" stop-color="#90145a"/><stop offset=".256" stop-color="#a81d58" stop-opacity=".992"/><stop offset=".794" stop-color="#e63452" stop-opacity=".976"/><stop offset="1" stop-color="#ff3e4f" stop-opacity=".97"/></linearGradient><path fill="url(#SVGID_11_)" d="M80.6-177.5l8-14.5-28.5-49.5-8.5 14.8z"/><linearGradient id="SVGID_12_" gradientUnits="userSpaceOnUse" x1="44.394" y1="-202.568" x2="80.559" y2="-202.568"><stop offset="0" stop-color="#90145a"/><stop offset=".256" stop-color="#a81d58" stop-opacity=".992"/><stop offset=".794" stop-color="#e63452" stop-opacity=".976"/><stop offset="1" stop-color="#ff3e4f" stop-opacity=".97"/></linearGradient><path fill="url(#SVGID_12_)" d="M80.6-177.5h-6.1l-30.1-50.2 7.2 1z"/><linearGradient id="SVGID_13_" gradientUnits="userSpaceOnUse" x1="44.394" y1="-234.148" x2="60.136" y2="-234.148"><stop offset="0" stop-color="#90145a"/><stop offset=".256" stop-color="#a81d58" stop-opacity=".992"/><stop offset=".794" stop-color="#e63452" stop-opacity=".976"/><stop offset="1" stop-color="#ff3e4f" stop-opacity=".97"/></linearGradient><path fill="url(#SVGID_13_)" d="M44.4-227.6l8.6-14 7.1.1-8.5 14.8z"/><linearGradient id="SVGID_14_" gradientUnits="userSpaceOnUse" x1="-7.542" y1="-183.518" x2="67.971" y2="-183.518"><stop offset="0" stop-color="#90145a"/><stop offset=".256" stop-color="#a81d58" stop-opacity=".992"/><stop offset=".794" stop-color="#e63452" stop-opacity=".976"/><stop offset="1" stop-color="#ff3e4f" stop-opacity=".97"/></linearGradient><path fill="url(#SVGID_14_)" d="M-7.5-191l7 14.8 68.5.2-8.2-15z"/><linearGradient id="SVGID_15_" gradientUnits="userSpaceOnUse" x1="-7.542" y1="-194.685" x2="59.815" y2="-194.685"><stop offset="0" stop-color="#90145a"/><stop offset=".256" stop-color="#a81d58" stop-opacity=".992"/><stop offset=".794" stop-color="#e63452" stop-opacity=".976"/><stop offset="1" stop-color="#ff3e4f" stop-opacity=".97"/></linearGradient><path fill="url(#SVGID_15_)" d="M-7.5-191l3.7-7.4 58.3.1 5.3 7.3z"/><linearGradient id="SVGID_16_" gradientUnits="userSpaceOnUse" x1="8.072" y1="-201.974" x2="18.501" y2="-223.503"><stop offset="0" stop-color="#90145a"/><stop offset=".256" stop-color="#a81d58" stop-opacity=".992"/><stop offset=".794" stop-color="#e63452" stop-opacity=".976"/><stop offset="1" stop-color="#ff3e4f" stop-opacity=".97"/></linearGradient><path fill="url(#SVGID_16_)" d="M16.1-207.7H.2l28.9-49.9 16.5.1z"/><linearGradient id="SVGID_17_" gradientUnits="userSpaceOnUse" x1="20.199" y1="-203.964" x2="29.514" y2="-223.195"><stop offset="0" stop-color="#90145a"/><stop offset=".256" stop-color="#a81d58" stop-opacity=".992"/><stop offset=".794" stop-color="#e63452" stop-opacity=".976"/><stop offset="1" stop-color="#ff3e4f" stop-opacity=".97"/></linearGradient><path fill="url(#SVGID_17_)" d="M16-207.7l8.3-2.4 25.5-42.6-4.2-4.8z"/><linearGradient id="SVGID_18_" gradientUnits="userSpaceOnUse" x1="51.845" y1="-209.604" x2="88.863" y2="-209.604"><stop offset="0" stop-color="#90145a"/><stop offset=".391" stop-color="#a82856" stop-opacity=".609"/><stop offset="1" stop-color="#d54c4f" stop-opacity="0"/></linearGradient><path fill="url(#SVGID_18_)" d="M80.8-177.6l8.1-14.5-28.5-49.5-8.6 14.8z"/><linearGradient id="SVGID_19_" gradientUnits="userSpaceOnUse" x1="44.635" y1="-202.673" x2="80.8" y2="-202.673"><stop offset="0" stop-color="#90145a"/><stop offset=".391" stop-color="#a82856" stop-opacity=".609"/><stop offset="1" stop-color="#d54c4f" stop-opacity="0"/></linearGradient><path fill="url(#SVGID_19_)" d="M80.8-177.6h-6.1l-30.1-50.2 7.2 1z"/><linearGradient id="SVGID_20_" gradientUnits="userSpaceOnUse" x1="44.635" y1="-234.253" x2="60.377" y2="-234.253"><stop offset="0" stop-color="#90145a"/><stop offset=".391" stop-color="#a82856" stop-opacity=".609"/><stop offset="1" stop-color="#d54c4f" stop-opacity="0"/></linearGradient><path fill="url(#SVGID_20_)" d="M44.6-227.7l8.6-14 7.2.1-8.6 14.8z"/><linearGradient id="SVGID_21_" gradientUnits="userSpaceOnUse" x1="-7.301" y1="-183.603" x2="68.212" y2="-183.603"><stop offset="0" stop-color="#90145a"/><stop offset=".391" stop-color="#a82856" stop-opacity=".609"/><stop offset="1" stop-color="#d54c4f" stop-opacity="0"/></linearGradient><path fill="url(#SVGID_21_)" d="M-7.3-191.1l7.1 14.8 68.4.2-8.1-14.9z"/><linearGradient id="SVGID_22_" gradientUnits="userSpaceOnUse" x1="-7.301" y1="-194.77" x2="60.056" y2="-194.77"><stop offset="0" stop-color="#90145a"/><stop offset=".391" stop-color="#a82856" stop-opacity=".609"/><stop offset="1" stop-color="#d54c4f" stop-opacity="0"/></linearGradient><path fill="url(#SVGID_22_)" d="M-7.3-191.1l3.8-7.4 58.3.2 5.3 7.3z"/><linearGradient id="SVGID_23_" gradientUnits="userSpaceOnUse" x1="8.313" y1="-201.976" x2="18.741" y2="-223.505"><stop offset="0" stop-color="#90145a"/><stop offset=".391" stop-color="#a82856" stop-opacity=".609"/><stop offset="1" stop-color="#d54c4f" stop-opacity="0"/></linearGradient><path fill="url(#SVGID_23_)" d="M16.3-207.7H.4l29-49.9 16.4.1z"/><linearGradient id="SVGID_24_" gradientUnits="userSpaceOnUse" x1="20.44" y1="-203.966" x2="29.755" y2="-223.197"><stop offset="0" stop-color="#90145a"/><stop offset=".391" stop-color="#a82856" stop-opacity=".609"/><stop offset="1" stop-color="#d54c4f" stop-opacity="0"/></linearGradient><path fill="url(#SVGID_24_)" d="M16.3-207.7l8.2-2.4 25.6-42.6-4.3-4.8z"/><linearGradient id="SVGID_25_" gradientUnits="userSpaceOnUse" x1="10.98" y1="25.295" x2="38.186" y2="58.021"><stop offset="0" stop-color="#34d66b"/><stop offset=".079" stop-color="#27ca6b" stop-opacity=".998"/><stop offset=".247" stop-color="#12b56c" stop-opacity=".995"/><stop offset=".411" stop-color="#05a96c" stop-opacity=".991"/><stop offset=".565" stop-color="#01a56c" stop-opacity=".987"/><stop offset=".968" stop-color="#002e4f" stop-opacity=".97"/></linearGradient><path fill="url(#SVGID_25_)" d="M11.1 0L0 21.2l30.5 53h24.7z"/><linearGradient id="SVGID_26_" gradientUnits="userSpaceOnUse" x1="28.133" y1="21.183" x2="28.133" y2="21.183"><stop offset=".005" stop-color="#01b89d"/><stop offset=".335" stop-color="#01958e" stop-opacity=".99"/><stop offset="1" stop-color="#00466a" stop-opacity=".97"/></linearGradient><linearGradient id="SVGID_27_" gradientUnits="userSpaceOnUse" x1="82.185" y1="28.126" x2="49.423" y2="9.444"><stop offset="0" stop-color="#222961"/><stop offset=".113" stop-color="#203262" stop-opacity=".997"/><stop offset=".295" stop-color="#1c4a63" stop-opacity=".991"/><stop offset=".523" stop-color="#147065" stop-opacity=".984"/><stop offset=".786" stop-color="#0aa668" stop-opacity=".976"/><stop offset="1" stop-color="#00d66b" stop-opacity=".97"/></linearGradient><path fill-rule="evenodd" clip-rule="evenodd" fill="url(#SVGID_27_)" d="M30.5 21.2L40.5 0l32.6.4 12.8 20.7z"/><linearGradient id="SVGID_28_" gradientUnits="userSpaceOnUse" x1="31.96" y1="2.733" x2="105.281" y2="32.534"><stop offset="0" stop-color="#222961" stop-opacity="0"/><stop offset=".132" stop-color="#20325f" stop-opacity=".128"/><stop offset=".344" stop-color="#1a495a" stop-opacity=".334"/><stop offset=".61" stop-color="#117053" stop-opacity=".592"/><stop offset=".918" stop-color="#04a648" stop-opacity=".89"/><stop offset="1" stop-color="#00b545" stop-opacity=".97"/></linearGradient><path fill-rule="evenodd" clip-rule="evenodd" fill="url(#SVGID_28_)" d="M30.5 21.2L40.5 0l32.6.4 12.8 20.7z"/><linearGradient id="SVGID_29_" gradientUnits="userSpaceOnUse" x1="80.916" y1="11.298" x2="38.881" y2="76.543"><stop offset=".005" stop-color="#01c270"/><stop offset=".435" stop-color="#019567"/><stop offset="1" stop-color="#00555b"/></linearGradient><path fill="url(#SVGID_29_)" d="M30.5 74.2h24.7l30.7-53.1L73.1.4"/><linearGradient id="SVGID_30_" gradientUnits="userSpaceOnUse" x1="69.434" y1=".084" x2="54.81" y2="22.782"><stop offset="0" stop-color="#222961"/><stop offset=".371" stop-color="#222b61" stop-opacity=".629"/><stop offset=".519" stop-color="#203263" stop-opacity=".481"/><stop offset=".628" stop-color="#1e3e65" stop-opacity=".372"/><stop offset=".717" stop-color="#1a5067" stop-opacity=".283"/><stop offset=".794" stop-color="#16666b" stop-opacity=".206"/><stop offset=".863" stop-color="#108270" stop-opacity=".137"/><stop offset=".926" stop-color="#0aa376" stop-opacity=".074"/><stop offset=".983" stop-color="#03c97c" stop-opacity=".017"/><stop offset="1" stop-color="#00d67e" stop-opacity="0"/></linearGradient><path d="M73.1.4c-1 .7-22.5 20.7-22.5 20.7h10.5L73.1.4z" opacity=".63" fill="url(#SVGID_30_)"/><linearGradient id="SVGID_31_" gradientUnits="userSpaceOnUse" x1="44.038" y1="31.058" x2="33.572" y2="71.424"><stop offset=".01" stop-color="#01c49d" stop-opacity="0"/><stop offset=".075" stop-color="#05af93" stop-opacity=".063"/><stop offset=".227" stop-color="#0d837e" stop-opacity=".213"/><stop offset=".382" stop-color="#145f6d" stop-opacity=".365"/><stop offset=".537" stop-color="#194360" stop-opacity=".516"/><stop offset=".691" stop-color="#1d2f57" stop-opacity=".667"/><stop offset=".845" stop-color="#1f2351" stop-opacity=".819"/><stop offset="1" stop-color="#201f4f" stop-opacity=".97"/></linearGradient><path opacity=".65" fill-rule="evenodd" clip-rule="evenodd" fill="url(#SVGID_31_)" d="M30.5 74.2l6.1-31.3 6.1 10.2z"/><linearGradient id="SVGID_32_" gradientUnits="userSpaceOnUse" x1="76.927" y1="45.492" x2="35.912" y2="32.13"><stop offset=".01" stop-color="#01c49d" stop-opacity="0"/><stop offset=".213" stop-color="#169b91" stop-opacity=".197"/><stop offset=".59" stop-color="#3a547b" stop-opacity=".563"/><stop offset=".863" stop-color="#50286e" stop-opacity=".827"/><stop offset="1" stop-color="#591769" stop-opacity=".96"/></linearGradient><path fill="url(#SVGID_32_)" d="M30.5 74.2h24.7l30.7-53.1L73.1.4"/></g></svg>